<svg xmlns="http://www.w3.org/2000/svg" width="1260" height="660" viewBox="0 0 1260 660" font-family="'PingFang SC','Hiragino Sans GB','Microsoft YaHei','Segoe UI',sans-serif">
<style>text{font-family:'PingFang SC','Hiragino Sans GB','Microsoft YaHei','Segoe UI',sans-serif;} .lbl{font-weight:700;}</style>
<defs>
<linearGradient id="g-data" x1="0" y1="0" x2="0" y2="1"><stop offset="0" stop-color="#f1f9f1"/><stop offset="1" stop-color="#e2f0e2"/></linearGradient>
<linearGradient id="g-frozen" x1="0" y1="0" x2="0" y2="1"><stop offset="0" stop-color="#f0f7fe"/><stop offset="1" stop-color="#dcecfb"/></linearGradient>
<linearGradient id="g-train" x1="0" y1="0" x2="0" y2="1"><stop offset="0" stop-color="#fff6e8"/><stop offset="1" stop-color="#ffedd4"/></linearGradient>
<linearGradient id="g-loss" x1="0" y1="0" x2="0" y2="1"><stop offset="0" stop-color="#fdf0f1"/><stop offset="1" stop-color="#f9e0e2"/></linearGradient>
<linearGradient id="g-act" x1="0" y1="0" x2="0" y2="1"><stop offset="0" stop-color="#f8f1fb"/><stop offset="1" stop-color="#f0e4f7"/></linearGradient>
<linearGradient id="g-loop" x1="0" y1="0" x2="0" y2="1"><stop offset="0" stop-color="#f2f5f7"/><stop offset="1" stop-color="#e6ebee"/></linearGradient>
<linearGradient id="g-env" x1="0" y1="0" x2="0" y2="1"><stop offset="0" stop-color="#eef8f6"/><stop offset="1" stop-color="#dcf0ec"/></linearGradient>
<linearGradient id="g-mem" x1="0" y1="0" x2="0" y2="1"><stop offset="0" stop-color="#fffef0"/><stop offset="1" stop-color="#fdf6d8"/></linearGradient>
<linearGradient id="g-reward" x1="0" y1="0" x2="0" y2="1"><stop offset="0" stop-color="#fdf2f7"/><stop offset="1" stop-color="#f9e2ed"/></linearGradient>
<linearGradient id="g-key" x1="0" y1="0" x2="0" y2="1"><stop offset="0" stop-color="#fffaf0"/><stop offset="1" stop-color="#fff1d6"/></linearGradient>
<linearGradient id="g-title" x1="0" y1="0" x2="1" y2="0"><stop offset="0" stop-color="#00695c"/><stop offset="1" stop-color="#1565c0"/></linearGradient>
<marker id="arr-main" viewBox="0 0 10 10" refX="8.5" refY="5" markerWidth="13" markerHeight="13" markerUnits="userSpaceOnUse" orient="auto-start-reverse"><path d="M0 0 L10 5 L0 10 z" fill="#546e7a"/></marker>
<marker id="arr-thick" viewBox="0 0 10 10" refX="8.5" refY="5" markerWidth="13" markerHeight="13" markerUnits="userSpaceOnUse" orient="auto-start-reverse"><path d="M0 0 L10 5 L0 10 z" fill="#263238"/></marker>
<marker id="arr-thin" viewBox="0 0 10 10" refX="8.5" refY="5" markerWidth="13" markerHeight="13" markerUnits="userSpaceOnUse" orient="auto-start-reverse"><path d="M0 0 L10 5 L0 10 z" fill="#9fb0bb"/></marker>
<marker id="arr-fb" viewBox="0 0 10 10" refX="8.5" refY="5" markerWidth="13" markerHeight="13" markerUnits="userSpaceOnUse" orient="auto-start-reverse"><path d="M0 0 L10 5 L0 10 z" fill="#1565c0"/></marker>
<marker id="arr-loss" viewBox="0 0 10 10" refX="8.5" refY="5" markerWidth="13" markerHeight="13" markerUnits="userSpaceOnUse" orient="auto-start-reverse"><path d="M0 0 L10 5 L0 10 z" fill="#c62828"/></marker>
</defs>
<rect width="1260" height="660" fill="#ffffff"/>
<rect x="34" y="30" width="5" height="42" rx="2.5" fill="url(#g-title)"/>
<text x="52" y="52" font-size="25" font-weight="800" fill="#1a2733">DQC：解耦 Q-Chunking</text>
<text x="52" y="74" font-size="13.5" fill="#78909c">Actor 短 chunk 保在线反应 × Critic 大 chunk 保信用分配 —— chunk 长度解耦的 POMDP 修正（ICLR 2026）</text>
<text x="1226" y="642" font-size="11.5" fill="#a0aab4" text-anchor="end">DQC · arXiv 2512.10926 · Levine 组</text>
<rect x="330" y="132" width="600" height="352" rx="18" fill="#fbfdff" stroke="#b7c6d6" stroke-width="1.4" stroke-dasharray="8 5"/>
<rect x="346" y="145" width="106.0" height="26" rx="13" fill="#eef3f8" stroke="#b7c6d6"/>
<text x="357" y="162" font-size="12.5" fill="#4a6579">DQC 解耦核心</text>
<rect x="950" y="132" width="274" height="352" rx="18" fill="#fbfdff" stroke="#b7c6d6" stroke-width="1.4" stroke-dasharray="8 5"/>
<rect x="966" y="145" width="135.0" height="26" rx="13" fill="#eef3f8" stroke="#b7c6d6"/>
<text x="977" y="162" font-size="12.5" fill="#4a6579">OGBench 长程操作</text>
<path d="M 262.0 348.0 L 315.0 348.0 L 315.0 222.8 L 368.0 222.8" fill="none" stroke="#546e7a" stroke-width="3.2" marker-end="url(#arr-main)" opacity="0.92"/>
<path d="M 262.0 348.0 L 356.0 348.0 L 356.0 222.8 L 650.0 222.8" fill="none" stroke="#9fb0bb" stroke-width="2.2" marker-end="url(#arr-thin)" opacity="0.92"/>
<path d="M 556.8 290.0 L 556.8 348.0 L 986.0 348.0" fill="none" stroke="#263238" stroke-width="4.4" marker-end="url(#arr-thick)" opacity="0.92"/>
<path d="M 986.0 359.5 L 262.0 348.0" fill="none" stroke="#1565c0" stroke-width="2.8" stroke-dasharray="12 7" marker-end="url(#arr-fb)" opacity="0.92"/>
<path d="M 650.0 234.0 L 610.0 234.0" fill="none" stroke="#c62828" stroke-width="2.8" stroke-dasharray="3 4.5 11 4.5" marker-end="url(#arr-loss)" opacity="0.92"/>
<path d="M 703.2 290.0 L 703.2 328.0 L 578.6 328.0 L 578.6 366.0" fill="none" stroke="#c62828" stroke-width="2.8" stroke-dasharray="3 4.5 11 4.5" marker-end="url(#arr-loss)" opacity="0.92"/>
<path d="M 704.6 366.0 L 704.6 328.0 L 855.7 328.0 L 855.7 290.0" fill="none" stroke="#c62828" stroke-width="2.8" stroke-dasharray="3 4.5 11 4.5" marker-end="url(#arr-loss)" opacity="0.92"/>
<rect x="52.5" y="303.5" width="212" height="96" rx="14" fill="#37474f" opacity="0.13"/>
<rect x="50" y="300" width="212" height="96" rx="14" fill="url(#g-data)" stroke="#2e7d32" stroke-width="2.0"/>
<circle cx="156.0" cy="300" r="24" fill="#ffffff" stroke="#2e7d32" stroke-width="1.8"/>
<circle cx="156.0" cy="300" r="27.5" fill="none" stroke="#2e7d32" stroke-width="1" opacity="0.35"/>
<g transform="translate(142.5,286.5) scale(0.1055)"><path d="M176,80v96H80V80Z" opacity="0.2"/><path d="M224,40V80a8,8,0,0,1-16,0V48H176a8,8,0,0,1,0-16h40A8,8,0,0,1,224,40ZM80,208H48V176a8,8,0,0,0-16,0v40a8,8,0,0,0,8,8H80a8,8,0,0,0,0-16Zm136-40a8,8,0,0,0-8,8v32H176a8,8,0,0,0,0,16h40a8,8,0,0,0,8-8V176A8,8,0,0,0,216,168ZM40,88a8,8,0,0,0,8-8V48H80a8,8,0,0,0,0-16H40a8,8,0,0,0-8,8V80A8,8,0,0,0,40,88ZM80,72h96a8,8,0,0,1,8,8v96a8,8,0,0,1-8,8H80a8,8,0,0,1-8-8V80A8,8,0,0,1,80,72Zm8,96h80V88H88Z"/></g>
<text x="156.0" y="351" font-size="16" class="lbl" fill="#1b5e20" text-anchor="middle">状态 s_t</text>
<text x="156.0" y="370" font-size="12" fill="#5f6b7a" text-anchor="middle">部分可观测环境</text>
<rect x="370.5" y="181.5" width="242" height="112" rx="14" fill="#37474f" opacity="0.13"/>
<rect x="368" y="178" width="242" height="112" rx="14" fill="url(#g-train)" stroke="#ef6c00" stroke-width="3.2"/>
<circle cx="489.0" cy="178" r="24" fill="#ffffff" stroke="#ef6c00" stroke-width="1.8"/>
<circle cx="489.0" cy="178" r="27.5" fill="none" stroke="#ef6c00" stroke-width="1" opacity="0.35"/>
<g transform="translate(475.5,164.5) scale(1.1250)">
  <path d="M4 14a1 1 0 0 1-.78-1.63l9.9-10.2a.5.5 0 0 1 .86.46l-1.92 6.02A1 1 0 0 0 13 10h7a1 1 0 0 1 .78 1.63l-9.9 10.2a.5.5 0 0 1-.86-.46l1.92-6.02A1 1 0 0 0 11 14z" />
</g>
<text x="489.0" y="229" font-size="16" class="lbl" fill="#b34700" text-anchor="middle">chunk 策略 π</text>
<text x="489.0" y="248" font-size="12" fill="#5f6b7a" text-anchor="middle">动作块长度 4</text>
<text x="489.0" y="265" font-size="12" fill="#5f6b7a" text-anchor="middle">在线执行，不等 critic</text>
<g><rect x="550.65" y="186" width="51.4" height="21" rx="10.5" fill="#ef6c00" opacity="0.14"/><text x="576.3" y="200.5" font-size="11.5" font-weight="700" fill="#b34700" text-anchor="middle">h_a=4</text></g>
<rect x="652.5" y="181.5" width="242" height="112" rx="14" fill="#37474f" opacity="0.13"/>
<rect x="650" y="178" width="242" height="112" rx="14" fill="url(#g-frozen)" stroke="#1565c0" stroke-width="2.0"/>
<circle cx="771.0" cy="178" r="24" fill="#ffffff" stroke="#1565c0" stroke-width="1.8"/>
<circle cx="771.0" cy="178" r="27.5" fill="none" stroke="#1565c0" stroke-width="1" opacity="0.35"/>
<g transform="translate(757.5,164.5) scale(0.1055)"><path d="M176,128a48,48,0,1,1-48-48A48,48,0,0,1,176,128Z" opacity="0.2"/><path d="M221.87,83.16A104.1,104.1,0,1,1,195.67,49l22.67-22.68a8,8,0,0,1,11.32,11.32l-96,96a8,8,0,0,1-11.32-11.32l27.72-27.72a40,40,0,1,0,17.87,31.09,8,8,0,1,1,16-.9,56,56,0,1,1-22.38-41.65L184.3,60.39a87.88,87.88,0,1,0,23.13,29.67,8,8,0,0,1,14.44-6.9Z"/></g>
<text x="771.0" y="229" font-size="16" class="lbl" fill="#0d47a1" text-anchor="middle">部分可观测 Q</text>
<text x="771.0" y="248" font-size="12" fill="#5f6b7a" text-anchor="middle">子序列长度 16</text>
<text x="771.0" y="265" font-size="12" fill="#5f6b7a" text-anchor="middle">只看 o(t..t+16) 的 Q</text>
<g><rect x="825.98" y="186" width="58.0" height="21" rx="10.5" fill="#1565c0" opacity="0.14"/><text x="855.0" y="200.5" font-size="11.5" font-weight="700" fill="#0d47a1" text-anchor="middle">h_c=16</text></g>
<rect x="510.5" y="369.5" width="252" height="100" rx="14" fill="#37474f" opacity="0.13"/>
<rect x="508" y="366" width="252" height="100" rx="14" fill="url(#g-loss)" stroke="#c62828" stroke-width="2.0" stroke-dasharray="7 4"/>
<circle cx="634.0" cy="366" r="24" fill="#ffffff" stroke="#c62828" stroke-width="1.8"/>
<circle cx="634.0" cy="366" r="27.5" fill="none" stroke="#c62828" stroke-width="1" opacity="0.35"/>
<g transform="translate(620.5,352.5) scale(1.1250)">
  <path d="M14 2v6a2 2 0 0 0 .245.96l5.51 10.08A2 2 0 0 1 18 22H6a2 2 0 0 1-1.755-2.96l5.51-10.08A2 2 0 0 0 10 8V2" />
  <path d="M6.453 15h11.094" />
  <path d="M8.5 2h7" />
</g>
<text x="634.0" y="417" font-size="16" class="lbl" fill="#b71c1c" text-anchor="middle">partial critic 蒸馏</text>
<text x="634.0" y="436" font-size="12" fill="#5f6b7a" text-anchor="middle">expectile 乐观回归</text>
<rect x="988.5" y="303.5" width="200" height="96" rx="14" fill="#37474f" opacity="0.13"/>
<rect x="986" y="300" width="200" height="96" rx="14" fill="url(#g-env)" stroke="#00695c" stroke-width="2.0"/>
<circle cx="1086.0" cy="300" r="24" fill="#ffffff" stroke="#00695c" stroke-width="1.8"/>
<circle cx="1086.0" cy="300" r="27.5" fill="none" stroke="#00695c" stroke-width="1" opacity="0.35"/>
<g transform="translate(1072.5,286.5) scale(1.1250)">
  <path d="M9.671 4.136a2.34 2.34 0 0 1 4.659 0 2.34 2.34 0 0 0 3.319 1.915 2.34 2.34 0 0 1 2.33 4.033 2.34 2.34 0 0 0 0 3.831 2.34 2.34 0 0 1-2.33 4.033 2.34 2.34 0 0 0-3.319 1.915 2.34 2.34 0 0 1-4.659 0 2.34 2.34 0 0 0-3.32-1.915 2.34 2.34 0 0 1-2.33-4.033 2.34 2.34 0 0 0 0-3.831A2.34 2.34 0 0 1 6.35 6.051a2.34 2.34 0 0 0 3.319-1.915" />
  <circle cx="12" cy="12" r="3" />
</g>
<text x="1086.0" y="351" font-size="16" class="lbl" fill="#004d40" text-anchor="middle">环境转移</text>
<text x="1086.0" y="370" font-size="12" fill="#5f6b7a" text-anchor="middle">执行 a(t..t+4)</text>
<g transform="translate(315.0,285.4)"><rect x="-35.6" y="-11" width="71.3" height="22" rx="11" fill="#ffffff" stroke="#546e7a" stroke-width="1.2"/><text y="4" font-size="12" fill="#546e7a" font-weight="600" text-anchor="middle">观测 s_t</text></g>
<g transform="translate(393.4,248.8)"><rect x="-40.8" y="-11" width="81.6" height="22" rx="11" fill="#ffffff" stroke="#9fb0bb" stroke-width="1.2"/><text y="4" font-size="12" fill="#9fb0bb" font-weight="600" text-anchor="middle">子序列观测</text></g>
<g transform="translate(742.4,348.0)"><rect x="-48.4" y="-11" width="96.7" height="22" rx="11" fill="#ffffff" stroke="#263238" stroke-width="1.2"/><text y="4" font-size="12" fill="#263238" font-weight="600" text-anchor="middle">短块 ×4 执行</text></g>
<g transform="translate(624.0,353.8)"><rect x="-34.4" y="-11" width="68.9" height="22" rx="11" fill="#ffffff" stroke="#1565c0" stroke-width="1.2"/><text y="4" font-size="12" fill="#1565c0" font-weight="600" text-anchor="middle">下一状态</text></g>
<g transform="translate(630.0,200.0)"><rect x="-82.0" y="-11" width="163.9" height="22" rx="11" fill="#ffffff" stroke="#c62828" stroke-width="1.2"/><text y="4" font-size="12" fill="#c62828" font-weight="600" text-anchor="middle">TD 信号（无偏 n-step）</text></g>
<g transform="translate(568.9,332.0)"><rect x="-56.5" y="-11" width="113.0" height="22" rx="11" fill="#ffffff" stroke="#c62828" stroke-width="1.2"/><text y="4" font-size="12" fill="#c62828" font-weight="600" text-anchor="middle">expectile 优化</text></g>
<g transform="translate(858.1,332.0)"><rect x="-44.9" y="-11" width="89.8" height="22" rx="11" fill="#ffffff" stroke="#c62828" stroke-width="1.2"/><text y="4" font-size="12" fill="#c62828" font-weight="600" text-anchor="middle">部分-Q 蒸馏</text></g>
<text x="40" y="608.5" font-size="12" fill="#78909c">图例</text>
<g><rect x="86" y="594" width="93.43" height="22" rx="11" fill="url(#g-data)" stroke="#2e7d32" stroke-width="1.3"/><circle cx="99" cy="605" r="4.2" fill="#2e7d32"/><text x="110" y="609" font-size="11.5" fill="#1b5e20">数据/输入</text></g>
<g><rect x="191.43" y="594" width="98.95" height="22" rx="11" fill="url(#g-train)" stroke="#ef6c00" stroke-width="1.3"/><circle cx="204.43" cy="605" r="4.2" fill="#ef6c00"/><text x="215.43" y="609" font-size="11.5" fill="#b34700">可训练模块</text></g>
<g><rect x="302.38" y="594" width="86.76" height="22" rx="11" fill="url(#g-frozen)" stroke="#1565c0" stroke-width="1.3"/><circle cx="315.38" cy="605" r="4.2" fill="#1565c0"/><text x="326.38" y="609" font-size="11.5" fill="#0d47a1">冻结模块</text></g>
<g><rect x="401.14" y="594" width="93.43" height="22" rx="11" fill="url(#g-loss)" stroke="#c62828" stroke-width="1.3"/><circle cx="414.14" cy="605" r="4.2" fill="#c62828"/><text x="425.14" y="609" font-size="11.5" fill="#b71c1c">损失/监督</text></g>
<g><rect x="506.57" y="594" width="62.38" height="22" rx="11" fill="url(#g-env)" stroke="#00695c" stroke-width="1.3"/><circle cx="519.5699999999999" cy="605" r="4.2" fill="#00695c"/><text x="530.5699999999999" y="609" font-size="11.5" fill="#004d40">环境</text></g>
<text x="40" y="648" font-size="11.5" fill="#78909c">线型</text>
<g><path d="M 80 644 h 44" stroke="#546e7a" stroke-width="3.2" marker-end="url(#arr-main)"/><text x="132" y="648" font-size="11.5" fill="#546e7a">信息流</text></g>
<g><path d="M 200.57 644 h 44" stroke="#9fb0bb" stroke-width="2.2" marker-end="url(#arr-thin)"/><text x="252.57" y="648" font-size="11.5" fill="#9fb0bb">弱关联</text></g>
<g><path d="M 321.14 644 h 44" stroke="#263238" stroke-width="4.4" marker-end="url(#arr-thick)"/><text x="373.14" y="648" font-size="11.5" fill="#263238">主数据流</text></g>
<g><path d="M 453.9 644 h 44" stroke="#1565c0" stroke-width="2.8" stroke-dasharray="12 7" marker-end="url(#arr-fb)"/><text x="505.9" y="648" font-size="11.5" fill="#1565c0">闭环反馈</text></g>
<g><path d="M 586.66 644 h 44" stroke="#c62828" stroke-width="2.8" stroke-dasharray="3 4.5 11 4.5" marker-end="url(#arr-loss)"/><text x="638.66" y="648" font-size="11.5" fill="#c62828">损失/监督</text></g>
</svg>