<svg xmlns="http://www.w3.org/2000/svg" width="1700" height="1180" viewBox="0 0 1700 1180" font-family="'PingFang SC','Hiragino Sans GB','Microsoft YaHei','Segoe UI',sans-serif">
<style>text{font-family:'PingFang SC','Hiragino Sans GB','Microsoft YaHei','Segoe UI',sans-serif;} .lbl{font-weight:700;}</style>
<defs>
<linearGradient id="g-data" x1="0" y1="0" x2="0" y2="1"><stop offset="0" stop-color="#f1f9f1"/><stop offset="1" stop-color="#e2f0e2"/></linearGradient>
<linearGradient id="g-frozen" x1="0" y1="0" x2="0" y2="1"><stop offset="0" stop-color="#f0f7fe"/><stop offset="1" stop-color="#dcecfb"/></linearGradient>
<linearGradient id="g-train" x1="0" y1="0" x2="0" y2="1"><stop offset="0" stop-color="#fff6e8"/><stop offset="1" stop-color="#ffedd4"/></linearGradient>
<linearGradient id="g-loss" x1="0" y1="0" x2="0" y2="1"><stop offset="0" stop-color="#fdf0f1"/><stop offset="1" stop-color="#f9e0e2"/></linearGradient>
<linearGradient id="g-act" x1="0" y1="0" x2="0" y2="1"><stop offset="0" stop-color="#f8f1fb"/><stop offset="1" stop-color="#f0e4f7"/></linearGradient>
<linearGradient id="g-loop" x1="0" y1="0" x2="0" y2="1"><stop offset="0" stop-color="#f2f5f7"/><stop offset="1" stop-color="#e6ebee"/></linearGradient>
<linearGradient id="g-env" x1="0" y1="0" x2="0" y2="1"><stop offset="0" stop-color="#eef8f6"/><stop offset="1" stop-color="#dcf0ec"/></linearGradient>
<linearGradient id="g-mem" x1="0" y1="0" x2="0" y2="1"><stop offset="0" stop-color="#fffef0"/><stop offset="1" stop-color="#fdf6d8"/></linearGradient>
<linearGradient id="g-reward" x1="0" y1="0" x2="0" y2="1"><stop offset="0" stop-color="#fdf2f7"/><stop offset="1" stop-color="#f9e2ed"/></linearGradient>
<linearGradient id="g-key" x1="0" y1="0" x2="0" y2="1"><stop offset="0" stop-color="#fffaf0"/><stop offset="1" stop-color="#fff1d6"/></linearGradient>
<linearGradient id="g-title" x1="0" y1="0" x2="1" y2="0"><stop offset="0" stop-color="#00695c"/><stop offset="1" stop-color="#1565c0"/></linearGradient>
<marker id="arr-main" viewBox="0 0 10 10" refX="8.5" refY="5" markerWidth="13" markerHeight="13" markerUnits="userSpaceOnUse" orient="auto-start-reverse"><path d="M0 0 L10 5 L0 10 z" fill="#546e7a"/></marker>
<marker id="arr-thick" viewBox="0 0 10 10" refX="8.5" refY="5" markerWidth="13" markerHeight="13" markerUnits="userSpaceOnUse" orient="auto-start-reverse"><path d="M0 0 L10 5 L0 10 z" fill="#263238"/></marker>
<marker id="arr-thin" viewBox="0 0 10 10" refX="8.5" refY="5" markerWidth="13" markerHeight="13" markerUnits="userSpaceOnUse" orient="auto-start-reverse"><path d="M0 0 L10 5 L0 10 z" fill="#9fb0bb"/></marker>
<marker id="arr-fb" viewBox="0 0 10 10" refX="8.5" refY="5" markerWidth="13" markerHeight="13" markerUnits="userSpaceOnUse" orient="auto-start-reverse"><path d="M0 0 L10 5 L0 10 z" fill="#1565c0"/></marker>
<marker id="arr-loss" viewBox="0 0 10 10" refX="8.5" refY="5" markerWidth="13" markerHeight="13" markerUnits="userSpaceOnUse" orient="auto-start-reverse"><path d="M0 0 L10 5 L0 10 z" fill="#c62828"/></marker>
</defs>
<rect width="1700" height="1180" fill="#ffffff"/>
<rect x="34" y="30" width="5" height="42" rx="2.5" fill="url(#g-title)"/>
<text x="52" y="52" font-size="25" font-weight="800" fill="#1a2733">coskill</text>
<text x="52" y="74" font-size="13.5" fill="#78909c">数字域对照工作（ALFWorld 文本家庭任务 + WebShop 模拟电商，LLM agent，全文无任何真机或机器人控制实验）**：把&quot;技能库的编辑者&quot;从一个固定工作流（反</text>
<text x="1666" y="1162" font-size="11.5" fill="#a0aab4" text-anchor="end">coskill · arXiv 2609.04865 · v3 auto</text>
<path d="M 290.0 219.0 L 400.0 219.0" fill="none" stroke="#263238" stroke-width="4.4" marker-end="url(#arr-thick)" opacity="0.92"/>
<path d="M 630.0 219.0 L 740.0 219.0" fill="none" stroke="#263238" stroke-width="4.4" marker-end="url(#arr-thick)" opacity="0.92"/>
<path d="M 960.0 219.0 L 1060.0 219.0" fill="none" stroke="#263238" stroke-width="4.4" marker-end="url(#arr-thick)" opacity="0.92"/>
<path d="M 1290.0 219.0 L 1390.0 219.0" fill="none" stroke="#263238" stroke-width="4.4" marker-end="url(#arr-thick)" opacity="0.92"/>
<path d="M 1555.6 150.0 L 1555.6 110.0 L 1225.6 110.0 L 1225.6 150.0" fill="none" stroke="#1565c0" stroke-width="2.8" stroke-dasharray="12 7" marker-end="url(#arr-fb)" opacity="0.92"/>
<path d="M 1505.0 288.0 L 1505.0 470.0" fill="none" stroke="#1565c0" stroke-width="2.8" stroke-dasharray="12 7" marker-end="url(#arr-fb)" opacity="0.92"/>
<path d="M 1390.0 539.0 L 1270.0 539.0" fill="none" stroke="#263238" stroke-width="4.4" marker-end="url(#arr-thick)" opacity="0.92"/>
<path d="M 1050.0 539.0 L 960.0 533.0" fill="none" stroke="#263238" stroke-width="4.4" marker-end="url(#arr-thick)" opacity="0.92"/>
<path d="M 740.0 533.0 L 630.0 539.0" fill="none" stroke="#263238" stroke-width="4.4" marker-end="url(#arr-thick)" opacity="0.92"/>
<path d="M 410.0 539.0 L 290.0 539.0" fill="none" stroke="#263238" stroke-width="4.4" marker-end="url(#arr-thick)" opacity="0.92"/>
<path d="M 175.0 608.0 L 190.0 830.0" fill="none" stroke="#263238" stroke-width="4.4" marker-end="url(#arr-thick)" opacity="0.92"/>
<path d="M 340.0 895.1 L 400.0 885.2" fill="none" stroke="#263238" stroke-width="4.4" marker-end="url(#arr-thick)" opacity="0.92"/>
<path d="M 340.0 830.0 L 340.0 249.4 L 400.0 249.4" fill="none" stroke="#1565c0" stroke-width="2.8" stroke-dasharray="12 7" marker-end="url(#arr-fb)" opacity="0.92"/>
<path d="M 400.0 830.0 L 400.0 288.0" fill="none" stroke="#263238" stroke-width="4.4" marker-end="url(#arr-thick)" opacity="0.92"/>
<path d="M 1060.0 219.0 L 1010.0 219.0 L 1010.0 882.5 L 960.0 882.5" fill="none" stroke="#263238" stroke-width="4.4" marker-end="url(#arr-thick)" opacity="0.92"/>
<path d="M 1574.0 608.0 L 1574.0 719.0 L 1236.0 719.0 L 1236.0 830.0" fill="none" stroke="#263238" stroke-width="4.4" marker-end="url(#arr-thick)" opacity="0.92"/>
<path d="M 175.0 608.0 L 175.0 719.0 L 1170.0 719.0 L 1170.0 830.0" fill="none" stroke="#1565c0" stroke-width="2.8" stroke-dasharray="12 7" marker-end="url(#arr-fb)" opacity="0.92"/>
<path d="M 845.6 935.0 L 845.6 1006.0 L 1505.0 1006.0 L 1505.0 968.0" fill="none" stroke="#263238" stroke-width="4.4" marker-end="url(#arr-thick)" opacity="0.92"/>
<path d="M 1280.0 882.5 L 1335.0 882.5 L 1335.0 899.0 L 1390.0 899.0" fill="none" stroke="#263238" stroke-width="4.4" marker-end="url(#arr-thick)" opacity="0.92"/>
<path d="M 1562.5 830.0 L 1562.5 620.0 L 1290.0 620.0 L 1290.0 288.0" fill="none" stroke="#1565c0" stroke-width="2.8" stroke-dasharray="12 7" marker-end="url(#arr-fb)" opacity="0.92"/>
<path d="M 1620.0 899.0 L 1668.0 899.0 L 1668.0 539.0 L 1620.0 539.0" fill="none" stroke="#1565c0" stroke-width="2.8" stroke-dasharray="12 7" marker-end="url(#arr-fb)" opacity="0.92"/>
<path d="M 1505.0 968.0 L 1505.0 1010.0" fill="none" stroke="#263238" stroke-width="4.4" marker-end="url(#arr-thick)" opacity="0.92"/>
<rect x="62.5" y="153.5" width="230" height="138" rx="14" fill="#37474f" opacity="0.13"/>
<rect x="60" y="150" width="230" height="138" rx="14" fill="url(#g-loop)" stroke="#546e7a" stroke-width="2.0"/>
<circle cx="175.0" cy="150" r="24" fill="#ffffff" stroke="#546e7a" stroke-width="1.8"/>
<circle cx="175.0" cy="150" r="27.5" fill="none" stroke="#546e7a" stroke-width="1" opacity="0.35"/>
<g transform="translate(161.5,136.5) scale(1.1250)">
  <path d="M3 12a9 9 0 0 1 9-9 9.75 9.75 0 0 1 6.74 2.74L21 8" />
  <path d="M21 3v5h-5" />
  <path d="M21 12a9 9 0 0 1-9 9 9.75 9.75 0 0 1-6.74-2.74L3 16" />
  <path d="M8 16H3v5" />
</g>
<text x="175.0" y="206" font-size="15" class="lbl" fill="#37474f" text-anchor="middle"><tspan x="175.0" dy="0">离线初始化: 外部 LL</tspan><tspan x="175.0" dy="20">M 采每组 8 条 roll</tspan></text>
<text x="175.0" y="236" font-size="12" fill="#5f6b7a" text-anchor="middle">out</text>
<rect x="402.5" y="153.5" width="230" height="138" rx="14" fill="#37474f" opacity="0.13"/>
<rect x="400" y="150" width="230" height="138" rx="14" fill="url(#g-loop)" stroke="#546e7a" stroke-width="2.0"/>
<circle cx="515.0" cy="150" r="24" fill="#ffffff" stroke="#546e7a" stroke-width="1.8"/>
<circle cx="515.0" cy="150" r="27.5" fill="none" stroke="#546e7a" stroke-width="1" opacity="0.35"/>
<g transform="translate(501.5,136.5) scale(1.1250)">
  <rect x="16" y="16" width="6" height="6" rx="1" />
  <rect x="2" y="16" width="6" height="6" rx="1" />
  <rect x="9" y="2" width="6" height="6" rx="1" />
  <path d="M5 16v-3a1 1 0 0 1 1-1h12a1 1 0 0 1 1 1v3" />
  <path d="M12 12V8" />
</g>
<text x="515.0" y="206" font-size="15" class="lbl" fill="#37474f" text-anchor="middle"><tspan x="515.0" dy="0">层级技能库 (mem): </tspan><tspan x="515.0" dy="20">任务技能 -&gt; 步骤技</tspan></text>
<text x="515.0" y="236" font-size="12" fill="#5f6b7a" text-anchor="middle">能两级</text>
<rect x="742.5" y="153.5" width="220" height="138" rx="14" fill="#37474f" opacity="0.13"/>
<rect x="740" y="150" width="220" height="138" rx="14" fill="url(#g-loop)" stroke="#546e7a" stroke-width="2.0"/>
<circle cx="850.0" cy="150" r="24" fill="#ffffff" stroke="#546e7a" stroke-width="1.8"/>
<circle cx="850.0" cy="150" r="27.5" fill="none" stroke="#546e7a" stroke-width="1" opacity="0.35"/>
<g transform="translate(836.5,136.5) scale(1.1250)">
  <path d="M22 17a2 2 0 0 1-2 2H6.828a2 2 0 0 0-1.414.586l-2.202 2.202A.71.71 0 0 1 2 21.286V5a2 2 0 0 1 2-2h16a2 2 0 0 1 2 2z" />
</g>
<text x="850.0" y="206" font-size="15" class="lbl" fill="#37474f" text-anchor="middle"><tspan x="850.0" dy="0">两级检索: 先指令嵌</tspan><tspan x="850.0" dy="20">入选任务束</tspan></text>
<text x="850.0" y="236" font-size="12" fill="#5f6b7a" text-anchor="middle">再只在束内选步骤技能</text>
<rect x="1062.5" y="153.5" width="230" height="138" rx="14" fill="#37474f" opacity="0.13"/>
<rect x="1060" y="150" width="230" height="138" rx="14" fill="url(#g-loop)" stroke="#546e7a" stroke-width="2.0"/>
<circle cx="1175.0" cy="150" r="24" fill="#ffffff" stroke="#546e7a" stroke-width="1.8"/>
<circle cx="1175.0" cy="150" r="27.5" fill="none" stroke="#546e7a" stroke-width="1" opacity="0.35"/>
<g transform="translate(1161.5,136.5) scale(0.1055)"><path d="M240,124a48,48,0,0,1-32,45.27h0V176a40,40,0,0,1-80,0,40,40,0,0,1-80,0v-6.73h0a48,48,0,0,1,0-90.54V72a40,40,0,0,1,80,0,40,40,0,0,1,80,0v6.73A48,48,0,0,1,240,124Z" opacity="0.2"/><path d="M248,124a56.11,56.11,0,0,0-32-50.61V72a48,48,0,0,0-88-26.49A48,48,0,0,0,40,72v1.39a56,56,0,0,0,0,101.2V176a48,48,0,0,0,88,26.49A48,48,0,0,0,216,176v-1.41A56.09,56.09,0,0,0,248,124ZM88,208a32,32,0,0,1-31.81-28.56A55.87,55.87,0,0,0,64,180h8a8,8,0,0,0,0-16H64A40,40,0,0,1,50.67,86.27,8,8,0,0,0,56,78.73V72a32,32,0,0,1,64,0v68.26A47.8,47.8,0,0,0,88,128a8,8,0,0,0,0,16,32,32,0,0,1,0,64Zm104-44h-8a8,8,0,0,0,0,16h8a55.87,55.87,0,0,0,7.81-.56A32,32,0,1,1,168,144a8,8,0,0,0,0-16,47.8,47.8,0,0,0-32,12.26V72a32,32,0,0,1,64,0v6.73a8,8,0,0,0,5.33,7.54A40,40,0,0,1,192,164Zm16-52a8,8,0,0,1-8,8h-4a36,36,0,0,1-36-36V80a8,8,0,0,1,16,0v4a20,20,0,0,0,20,20h4A8,8,0,0,1,208,112ZM60,120H56a8,8,0,0,1,0-16h4A20,20,0,0,0,80,84V80a8,8,0,0,1,16,0v4A36,36,0,0,1,60,120Z"/></g>
<text x="1175.0" y="206" font-size="15" class="lbl" fill="#37474f" text-anchor="middle"><tspan x="1175.0" dy="0">Reasoning Agent (</tspan><tspan x="1175.0" dy="20">被 RL 的共享骨干)</tspan></text>
<text x="1175.0" y="236" font-size="12" fill="#5f6b7a" text-anchor="middle">Qwen2.5-7B, 执行环</text>
<rect x="1392.5" y="153.5" width="230" height="138" rx="14" fill="#37474f" opacity="0.13"/>
<rect x="1390" y="150" width="230" height="138" rx="14" fill="url(#g-loop)" stroke="#546e7a" stroke-width="2.0"/>
<circle cx="1505.0" cy="150" r="24" fill="#ffffff" stroke="#546e7a" stroke-width="1.8"/>
<circle cx="1505.0" cy="150" r="27.5" fill="none" stroke="#546e7a" stroke-width="1" opacity="0.35"/>
<g transform="translate(1491.5,136.5) scale(1.1250)">
  <path d="M22 17a2 2 0 0 1-2 2H6.828a2 2 0 0 0-1.414.586l-2.202 2.202A.71.71 0 0 1 2 21.286V5a2 2 0 0 1 2-2h16a2 2 0 0 1 2 2z" />
</g>
<text x="1505.0" y="206" font-size="15" class="lbl" fill="#37474f" text-anchor="middle"><tspan x="1505.0" dy="0">文本环境: ALFWorld</tspan><tspan x="1505.0" dy="20"> / WebShop</tspan></text>
<text x="1505.0" y="236" font-size="12" fill="#5f6b7a" text-anchor="middle">秒级免费重置</text>
<rect x="1392.5" y="473.5" width="230" height="138" rx="14" fill="#37474f" opacity="0.13"/>
<rect x="1390" y="470" width="230" height="138" rx="14" fill="url(#g-loop)" stroke="#546e7a" stroke-width="2.0"/>
<circle cx="1505.0" cy="470" r="24" fill="#ffffff" stroke="#546e7a" stroke-width="1.8"/>
<circle cx="1505.0" cy="470" r="27.5" fill="none" stroke="#546e7a" stroke-width="1" opacity="0.35"/>
<g transform="translate(1491.5,456.5) scale(1.1250)">
  <rect x="16" y="16" width="6" height="6" rx="1" />
  <rect x="2" y="16" width="6" height="6" rx="1" />
  <rect x="9" y="2" width="6" height="6" rx="1" />
  <path d="M5 16v-3a1 1 0 0 1 1-1h12a1 1 0 0 1 1 1v3" />
  <path d="M12 12V8" />
</g>
<text x="1505.0" y="526" font-size="15" class="lbl" fill="#37474f" text-anchor="middle"><tspan x="1505.0" dy="0">Meta-Skill Agent (</tspan><tspan x="1505.0" dy="20">核心 novelty): 同</tspan></text>
<text x="1505.0" y="556" font-size="12" fill="#5f6b7a" text-anchor="middle">一共享骨干</text>
<rect x="1052.5" y="473.5" width="220" height="138" rx="14" fill="#37474f" opacity="0.13"/>
<rect x="1050" y="470" width="220" height="138" rx="14" fill="url(#g-loop)" stroke="#546e7a" stroke-width="2.0"/>
<circle cx="1160.0" cy="470" r="24" fill="#ffffff" stroke="#546e7a" stroke-width="1.8"/>
<circle cx="1160.0" cy="470" r="27.5" fill="none" stroke="#546e7a" stroke-width="1" opacity="0.35"/>
<g transform="translate(1146.5,456.5) scale(1.1250)">
  <path d="M3 12a9 9 0 0 1 9-9 9.75 9.75 0 0 1 6.74 2.74L21 8" />
  <path d="M21 3v5h-5" />
  <path d="M21 12a9 9 0 0 1-9 9 9.75 9.75 0 0 1-6.74-2.74L3 16" />
  <path d="M8 16H3v5" />
</g>
<text x="1160.0" y="526" font-size="15" class="lbl" fill="#37474f" text-anchor="middle"><tspan x="1160.0" dy="0">暂存编辑提议: INSER</tspan><tspan x="1160.0" dy="20">T / UPDATE / DELET</tspan></text>
<text x="1160.0" y="556" font-size="12" fill="#5f6b7a" text-anchor="middle">E / KEEP</text>
<rect x="742.5" y="473.5" width="220" height="126" rx="14" fill="#37474f" opacity="0.13"/>
<rect x="740" y="470" width="220" height="126" rx="14" fill="url(#g-loop)" stroke="#546e7a" stroke-width="2.0"/>
<circle cx="850.0" cy="470" r="24" fill="#ffffff" stroke="#546e7a" stroke-width="1.8"/>
<circle cx="850.0" cy="470" r="27.5" fill="none" stroke="#546e7a" stroke-width="1" opacity="0.35"/>
<g transform="translate(836.5,456.5) scale(1.1250)">
  <path d="M3 12a9 9 0 0 1 9-9 9.75 9.75 0 0 1 6.74 2.74L21 8" />
  <path d="M21 3v5h-5" />
  <path d="M21 12a9 9 0 0 1-9 9 9.75 9.75 0 0 1-6.74-2.74L3 16" />
  <path d="M8 16H3v5" />
</g>
<text x="850.0" y="526" font-size="15" class="lbl" fill="#37474f" text-anchor="middle"><tspan x="850.0" dy="0">回合结束: 暂存编辑</tspan><tspan x="850.0" dy="20">应用到束的私有副本</tspan></text>
<rect x="412.5" y="473.5" width="220" height="138" rx="14" fill="#37474f" opacity="0.13"/>
<rect x="410" y="470" width="220" height="138" rx="14" fill="url(#g-loop)" stroke="#546e7a" stroke-width="2.0"/>
<circle cx="520.0" cy="470" r="24" fill="#ffffff" stroke="#546e7a" stroke-width="1.8"/>
<circle cx="520.0" cy="470" r="27.5" fill="none" stroke="#546e7a" stroke-width="1" opacity="0.35"/>
<g transform="translate(506.5,456.5) scale(1.1250)">
  <path d="M3 12a9 9 0 0 1 9-9 9.75 9.75 0 0 1 6.74 2.74L21 8" />
  <path d="M21 3v5h-5" />
  <path d="M21 12a9 9 0 0 1-9 9 9.75 9.75 0 0 1-6.74-2.74L3 16" />
  <path d="M8 16H3v5" />
</g>
<text x="520.0" y="526" font-size="15" class="lbl" fill="#37474f" text-anchor="middle"><tspan x="520.0" dy="0">post-edit 验证: 同</tspan><tspan x="520.0" dy="20">任务重置</tspan></text>
<text x="520.0" y="556" font-size="12" fill="#5f6b7a" text-anchor="middle">带私有副本重跑 M=1 </text>
<rect x="62.5" y="473.5" width="230" height="138" rx="14" fill="#37474f" opacity="0.13"/>
<rect x="60" y="470" width="230" height="138" rx="14" fill="url(#g-loop)" stroke="#546e7a" stroke-width="2.0"/>
<circle cx="175.0" cy="470" r="24" fill="#ffffff" stroke="#546e7a" stroke-width="1.8"/>
<circle cx="175.0" cy="470" r="27.5" fill="none" stroke="#546e7a" stroke-width="1" opacity="0.35"/>
<g transform="translate(161.5,456.5) scale(0.1055)"><path d="M200,48v63.1c0,39.7-31.75,72.6-71.45,72.9A72,72,0,0,1,56,112V48Z" opacity="0.2"/><path d="M232,64H208V48a8,8,0,0,0-8-8H56a8,8,0,0,0-8,8V64H24A16,16,0,0,0,8,80V96a40,40,0,0,0,40,40h3.65A80.13,80.13,0,0,0,120,191.61V216H96a8,8,0,0,0,0,16h64a8,8,0,0,0,0-16H136V191.58c31.94-3.23,58.44-25.64,68.08-55.58H208a40,40,0,0,0,40-40V80A16,16,0,0,0,232,64ZM48,120A24,24,0,0,1,24,96V80H48v32q0,4,.39,8Zm144-8.9c0,35.52-29,64.64-64,64.9a64,64,0,0,1-64-64V56H192ZM232,96a24,24,0,0,1-24,24h-.5a81.81,81.81,0,0,0,.5-8.9V80h24Z"/></g>
<text x="175.0" y="526" font-size="15" class="lbl" fill="#37474f" text-anchor="middle"><tspan x="175.0" dy="0">技能奖励 delta_ski</tspan><tspan x="175.0" dy="20">ll = 验证均值 - 基</tspan></text>
<text x="175.0" y="556" font-size="12" fill="#5f6b7a" text-anchor="middle">线回报</text>
<rect x="42.5" y="833.5" width="300" height="105" rx="14" fill="#37474f" opacity="0.13"/>
<rect x="40" y="830" width="300" height="105" rx="14" fill="url(#g-loop)" stroke="#546e7a" stroke-width="2.0"/>
<circle cx="190.0" cy="830" r="24" fill="#ffffff" stroke="#546e7a" stroke-width="1.8"/>
<circle cx="190.0" cy="830" r="27.5" fill="none" stroke="#546e7a" stroke-width="1" opacity="0.35"/>
<g transform="translate(176.5,816.5) scale(1.1250)">
  <path d="M3 12a9 9 0 0 1 9-9 9.75 9.75 0 0 1 6.74 2.74L21 8" />
  <path d="M21 3v5h-5" />
  <path d="M21 12a9 9 0 0 1-9 9 9.75 9.75 0 0 1-6.74-2.74L3 16" />
  <path d="M8 16H3v5" />
</g>
<text x="190.0" y="886" font-size="15" class="lbl" fill="#37474f" text-anchor="middle"><tspan x="190.0" dy="0">编辑有效且非平凡</tspan><tspan x="190.0" dy="20">且验证胜过基线?</tspan></text>
<rect x="402.5" y="833.5" width="230" height="138" rx="14" fill="#37474f" opacity="0.13"/>
<rect x="400" y="830" width="230" height="138" rx="14" fill="url(#g-loop)" stroke="#546e7a" stroke-width="2.0"/>
<circle cx="515.0" cy="830" r="24" fill="#ffffff" stroke="#546e7a" stroke-width="1.8"/>
<circle cx="515.0" cy="830" r="27.5" fill="none" stroke="#546e7a" stroke-width="1" opacity="0.35"/>
<g transform="translate(501.5,816.5) scale(1.1250)">
  <path d="M3 12a9 9 0 0 1 9-9 9.75 9.75 0 0 1 6.74 2.74L21 8" />
  <path d="M21 3v5h-5" />
  <path d="M21 12a9 9 0 0 1-9 9 9.75 9.75 0 0 1-6.74-2.74L3 16" />
  <path d="M8 16H3v5" />
</g>
<text x="515.0" y="886" font-size="15" class="lbl" fill="#37474f" text-anchor="middle"><tspan x="515.0" dy="0">组内晋升 top-2, 容</tspan><tspan x="515.0" dy="20">量 300 每 5 步驱逐</tspan></text>
<text x="515.0" y="916" font-size="12" fill="#5f6b7a" text-anchor="middle">原始束保留维持谱系</text>
<rect x="742.5" y="833.5" width="220" height="105" rx="14" fill="#37474f" opacity="0.13"/>
<rect x="740" y="830" width="220" height="105" rx="14" fill="url(#g-loop)" stroke="#546e7a" stroke-width="2.0"/>
<circle cx="850.0" cy="830" r="24" fill="#ffffff" stroke="#546e7a" stroke-width="1.8"/>
<circle cx="850.0" cy="830" r="27.5" fill="none" stroke="#546e7a" stroke-width="1" opacity="0.35"/>
<g transform="translate(836.5,816.5) scale(0.1055)"><path d="M240,124a48,48,0,0,1-32,45.27h0V176a40,40,0,0,1-80,0,40,40,0,0,1-80,0v-6.73h0a48,48,0,0,1,0-90.54V72a40,40,0,0,1,80,0,40,40,0,0,1,80,0v6.73A48,48,0,0,1,240,124Z" opacity="0.2"/><path d="M248,124a56.11,56.11,0,0,0-32-50.61V72a48,48,0,0,0-88-26.49A48,48,0,0,0,40,72v1.39a56,56,0,0,0,0,101.2V176a48,48,0,0,0,88,26.49A48,48,0,0,0,216,176v-1.41A56.09,56.09,0,0,0,248,124ZM88,208a32,32,0,0,1-31.81-28.56A55.87,55.87,0,0,0,64,180h8a8,8,0,0,0,0-16H64A40,40,0,0,1,50.67,86.27,8,8,0,0,0,56,78.73V72a32,32,0,0,1,64,0v68.26A47.8,47.8,0,0,0,88,128a8,8,0,0,0,0,16,32,32,0,0,1,0,64Zm104-44h-8a8,8,0,0,0,0,16h8a55.87,55.87,0,0,0,7.81-.56A32,32,0,1,1,168,144a8,8,0,0,0,0-16,47.8,47.8,0,0,0-32,12.26V72a32,32,0,0,1,64,0v6.73a8,8,0,0,0,5.33,7.54A40,40,0,0,1,192,164Zm16-52a8,8,0,0,1-8,8h-4a36,36,0,0,1-36-36V80a8,8,0,0,1,16,0v4a20,20,0,0,0,20,20h4A8,8,0,0,1,208,112ZM60,120H56a8,8,0,0,1,0-16h4A20,20,0,0,0,80,84V80a8,8,0,0,1,16,0v4A36,36,0,0,1,60,120Z"/></g>
<text x="850.0" y="886" font-size="15" class="lbl" fill="#37474f" text-anchor="middle"><tspan x="850.0" dy="0">D_R: 推理转移轨迹</tspan><tspan x="850.0" dy="20">保留自己的环境回报</tspan></text>
<rect x="1062.5" y="833.5" width="220" height="105" rx="14" fill="#37474f" opacity="0.13"/>
<rect x="1060" y="830" width="220" height="105" rx="14" fill="url(#g-loop)" stroke="#546e7a" stroke-width="2.0"/>
<circle cx="1170.0" cy="830" r="24" fill="#ffffff" stroke="#546e7a" stroke-width="1.8"/>
<circle cx="1170.0" cy="830" r="27.5" fill="none" stroke="#546e7a" stroke-width="1" opacity="0.35"/>
<g transform="translate(1156.5,816.5) scale(0.1055)"><path d="M200,48v63.1c0,39.7-31.75,72.6-71.45,72.9A72,72,0,0,1,56,112V48Z" opacity="0.2"/><path d="M232,64H208V48a8,8,0,0,0-8-8H56a8,8,0,0,0-8,8V64H24A16,16,0,0,0,8,80V96a40,40,0,0,0,40,40h3.65A80.13,80.13,0,0,0,120,191.61V216H96a8,8,0,0,0,0,16h64a8,8,0,0,0,0-16H136V191.58c31.94-3.23,58.44-25.64,68.08-55.58H208a40,40,0,0,0,40-40V80A16,16,0,0,0,232,64ZM48,120A24,24,0,0,1,24,96V80H48v32q0,4,.39,8Zm144-8.9c0,35.52-29,64.64-64,64.9a64,64,0,0,1-64-64V56H192ZM232,96a24,24,0,0,1-24,24h-.5a81.81,81.81,0,0,0,.5-8.9V80h24Z"/></g>
<text x="1170.0" y="886" font-size="15" class="lbl" fill="#37474f" text-anchor="middle"><tspan x="1170.0" dy="0">D_S: 编辑轨迹</tspan><tspan x="1170.0" dy="20">奖励 = delta_skill</tspan></text>
<rect x="1392.5" y="833.5" width="230" height="138" rx="14" fill="#37474f" opacity="0.13"/>
<rect x="1390" y="830" width="230" height="138" rx="14" fill="url(#g-loop)" stroke="#546e7a" stroke-width="2.0"/>
<circle cx="1505.0" cy="830" r="24" fill="#ffffff" stroke="#546e7a" stroke-width="1.8"/>
<circle cx="1505.0" cy="830" r="27.5" fill="none" stroke="#546e7a" stroke-width="1" opacity="0.35"/>
<g transform="translate(1491.5,816.5) scale(1.1250)">
  <path d="M4 14a1 1 0 0 1-.78-1.63l9.9-10.2a.5.5 0 0 1 .86.46l-1.92 6.02A1 1 0 0 0 13 10h7a1 1 0 0 1 .78 1.63l-9.9 10.2a.5.5 0 0 1-.86-.46l1.92-6.02A1 1 0 0 0 11 14z" />
</g>
<text x="1505.0" y="886" font-size="15" class="lbl" fill="#37474f" text-anchor="middle"><tspan x="1505.0" dy="0">GiGPO 联合更新共享</tspan><tspan x="1505.0" dy="20">策略: episode + st</tspan></text>
<text x="1505.0" y="916" font-size="12" fill="#5f6b7a" text-anchor="middle">ep 双层优势</text>
<rect x="1392.5" y="1013.5" width="230" height="138" rx="14" fill="#37474f" opacity="0.13"/>
<rect x="1390" y="1010" width="230" height="138" rx="14" fill="url(#g-loop)" stroke="#546e7a" stroke-width="2.0"/>
<circle cx="1505.0" cy="1010" r="24" fill="#ffffff" stroke="#546e7a" stroke-width="1.8"/>
<circle cx="1505.0" cy="1010" r="27.5" fill="none" stroke="#546e7a" stroke-width="1" opacity="0.35"/>
<g transform="translate(1491.5,996.5) scale(1.1250)">
  <path d="M3 12a9 9 0 0 1 9-9 9.75 9.75 0 0 1 6.74 2.74L21 8" />
  <path d="M21 3v5h-5" />
  <path d="M21 12a9 9 0 0 1-9 9 9.75 9.75 0 0 1-6.74-2.74L3 16" />
  <path d="M8 16H3v5" />
</g>
<text x="1505.0" y="1066" font-size="15" class="lbl" fill="#37474f" text-anchor="middle"><tspan x="1505.0" dy="0">ALFWorld 98.4% (六</tspan><tspan x="1505.0" dy="20">类中五类 100%), We</tspan></text>
<text x="1505.0" y="1096" font-size="12" fill="#5f6b7a" text-anchor="middle">bShop 90.6%</text>
<g transform="translate(1010.0,135.0)"><rect x="-55.1" y="-11" width="110.2" height="22" rx="11" fill="#ffffff" stroke="#263238" stroke-width="1.2"/><text y="4" font-size="12" fill="#263238" font-weight="600" text-anchor="middle">&quot;技能进上下文&quot;</text></g>
<g transform="translate(1340.0,163.0)"><rect x="-42.4" y="-11" width="84.8" height="22" rx="11" fill="#ffffff" stroke="#263238" stroke-width="1.2"/><text y="4" font-size="12" fill="#263238" font-weight="600" text-anchor="middle">&quot;环境动作&quot;</text></g>
<g transform="translate(1390.6,120.0)"><rect x="-88.7" y="-11" width="177.4" height="22" rx="11" fill="#ffffff" stroke="#1565c0" stroke-width="1.2"/><text y="4" font-size="12" fill="#1565c0" font-weight="600" text-anchor="middle">&quot;下一观测 / 奖励 / 反馈&quot;</text></g>
<g transform="translate(1505.0,361.0)"><rect x="-136.1" y="-11" width="272.2" height="22" rx="11" fill="#ffffff" stroke="#1565c0" stroke-width="1.2"/><text y="4" font-size="12" fill="#1565c0" font-weight="600" text-anchor="middle">&quot;同一转移: 观测+活动技能+推理动作+反馈&quot;</text></g>
<g transform="translate(1005.0,480.0)"><rect x="-42.4" y="-11" width="84.8" height="22" rx="11" fill="#ffffff" stroke="#263238" stroke-width="1.2"/><text y="4" font-size="12" fill="#263238" font-weight="600" text-anchor="middle">&quot;回合结束&quot;</text></g>
<g transform="translate(370.0,834.2)"><rect x="-23.3" y="-11" width="46.6" height="22" rx="11" fill="#ffffff" stroke="#263238" stroke-width="1.2"/><text y="4" font-size="12" fill="#263238" font-weight="600" text-anchor="middle">&quot;是&quot;</text></g>
<g transform="translate(340.0,435.7)"><rect x="-88.1" y="-11" width="176.2" height="22" rx="11" fill="#ffffff" stroke="#1565c0" stroke-width="1.2"/><text y="4" font-size="12" fill="#1565c0" font-weight="600" text-anchor="middle">&quot;否: 拒绝写回, 原束保留&quot;</text></g>
<g transform="translate(672.5,719.0)"><rect x="-42.4" y="-11" width="84.8" height="22" rx="11" fill="#ffffff" stroke="#1565c0" stroke-width="1.2"/><text y="4" font-size="12" fill="#1565c0" font-weight="600" text-anchor="middle">&quot;延迟奖励&quot;</text></g>
<g transform="translate(1365.2,630.0)"><rect x="-86.9" y="-11" width="173.8" height="22" rx="11" fill="#ffffff" stroke="#1565c0" stroke-width="1.2"/><text y="4" font-size="12" fill="#1565c0" font-weight="600" text-anchor="middle">&quot;同一套权重更新两个角色&quot;</text></g>
<text x="40" y="1128.5" font-size="12" fill="#78909c">图例</text>
<g><rect x="86" y="1114" width="93.43" height="22" rx="11" fill="url(#g-loop)" stroke="#546e7a" stroke-width="1.3"/><circle cx="99" cy="1125" r="4.2" fill="#546e7a"/><text x="110" y="1129" font-size="11.5" fill="#37474f">循环/反馈</text></g>
<text x="40" y="1168" font-size="11.5" fill="#78909c">线型</text>
<g><path d="M 80 1164 h 44" stroke="#263238" stroke-width="4.4" marker-end="url(#arr-thick)"/><text x="132" y="1168" font-size="11.5" fill="#263238">主数据流</text></g>
<g><path d="M 212.76 1164 h 44" stroke="#1565c0" stroke-width="2.8" stroke-dasharray="12 7" marker-end="url(#arr-fb)"/><text x="264.76" y="1168" font-size="11.5" fill="#1565c0">闭环反馈</text></g>
</svg>