<svg xmlns="http://www.w3.org/2000/svg" width="1511" height="496" viewBox="0 0 1511 496" font-family="'PingFang SC','Hiragino Sans GB','Microsoft YaHei','Segoe UI',sans-serif">
<style>text{font-family:'PingFang SC','Hiragino Sans GB','Microsoft YaHei','Segoe UI',sans-serif;} .lbl{font-weight:700;}</style>
<defs>
<linearGradient id="g-data" x1="0" y1="0" x2="0" y2="1"><stop offset="0" stop-color="#f1f9f1"/><stop offset="1" stop-color="#e2f0e2"/></linearGradient>
<linearGradient id="g-frozen" x1="0" y1="0" x2="0" y2="1"><stop offset="0" stop-color="#f0f7fe"/><stop offset="1" stop-color="#dcecfb"/></linearGradient>
<linearGradient id="g-train" x1="0" y1="0" x2="0" y2="1"><stop offset="0" stop-color="#fff6e8"/><stop offset="1" stop-color="#ffedd4"/></linearGradient>
<linearGradient id="g-loss" x1="0" y1="0" x2="0" y2="1"><stop offset="0" stop-color="#fdf0f1"/><stop offset="1" stop-color="#f9e0e2"/></linearGradient>
<linearGradient id="g-act" x1="0" y1="0" x2="0" y2="1"><stop offset="0" stop-color="#f8f1fb"/><stop offset="1" stop-color="#f0e4f7"/></linearGradient>
<linearGradient id="g-loop" x1="0" y1="0" x2="0" y2="1"><stop offset="0" stop-color="#f2f5f7"/><stop offset="1" stop-color="#e6ebee"/></linearGradient>
<linearGradient id="g-env" x1="0" y1="0" x2="0" y2="1"><stop offset="0" stop-color="#eef8f6"/><stop offset="1" stop-color="#dcf0ec"/></linearGradient>
<linearGradient id="g-mem" x1="0" y1="0" x2="0" y2="1"><stop offset="0" stop-color="#fffef0"/><stop offset="1" stop-color="#fdf6d8"/></linearGradient>
<linearGradient id="g-reward" x1="0" y1="0" x2="0" y2="1"><stop offset="0" stop-color="#fdf2f7"/><stop offset="1" stop-color="#f9e2ed"/></linearGradient>
<linearGradient id="g-key" x1="0" y1="0" x2="0" y2="1"><stop offset="0" stop-color="#fffaf0"/><stop offset="1" stop-color="#fff1d6"/></linearGradient>
<linearGradient id="g-title" x1="0" y1="0" x2="1" y2="0"><stop offset="0" stop-color="#00695c"/><stop offset="1" stop-color="#1565c0"/></linearGradient>
<marker id="arr-main" viewBox="0 0 10 10" refX="8.5" refY="5" markerWidth="13" markerHeight="13" markerUnits="userSpaceOnUse" orient="auto-start-reverse"><path d="M0 0 L10 5 L0 10 z" fill="#546e7a"/></marker>
<marker id="arr-thick" viewBox="0 0 10 10" refX="8.5" refY="5" markerWidth="13" markerHeight="13" markerUnits="userSpaceOnUse" orient="auto-start-reverse"><path d="M0 0 L10 5 L0 10 z" fill="#263238"/></marker>
<marker id="arr-thin" viewBox="0 0 10 10" refX="8.5" refY="5" markerWidth="13" markerHeight="13" markerUnits="userSpaceOnUse" orient="auto-start-reverse"><path d="M0 0 L10 5 L0 10 z" fill="#9fb0bb"/></marker>
<marker id="arr-fb" viewBox="0 0 10 10" refX="8.5" refY="5" markerWidth="13" markerHeight="13" markerUnits="userSpaceOnUse" orient="auto-start-reverse"><path d="M0 0 L10 5 L0 10 z" fill="#1565c0"/></marker>
<marker id="arr-loss" viewBox="0 0 10 10" refX="8.5" refY="5" markerWidth="13" markerHeight="13" markerUnits="userSpaceOnUse" orient="auto-start-reverse"><path d="M0 0 L10 5 L0 10 z" fill="#c62828"/></marker>
</defs>
<rect width="1511" height="496" fill="#ffffff"/>
<rect x="34" y="30" width="5" height="42" rx="2.5" fill="url(#g-title)"/>
<text x="52" y="52" font-size="25" font-weight="800" fill="#1a2733">torl-vla</text>
<text x="52" y="74" font-size="13.5" fill="#78909c">TORL-VLA 提出触觉引导在线 RL 框架：VLA 同时预测参考动作和未来 wrench（力+力矩）序列，轻量在线 RL 模块用实时 wrench 反馈精调动作，inter</text>
<text x="1477" y="478" font-size="11.5" fill="#a0aab4" text-anchor="end">torl-vla · arXiv 2606.09337 · v3 auto</text>
<rect x="20" y="86" width="579" height="206" rx="18" fill="#fbfdff" stroke="#b7c6d6" stroke-width="1.4" stroke-dasharray="8 5"/>
<rect x="36" y="99" width="161.5" height="26" rx="13" fill="#eef3f8" stroke="#b7c6d6"/>
<text x="47" y="116" font-size="12.5" fill="#4a6579">真机在线回路 (20 Hz)</text>
<path d="M 277.0 209.0 L 312.0 209.0 L 312.0 193.0 L 347.0 193.0" fill="none" stroke="#546e7a" stroke-width="3.2" marker-end="url(#arr-main)" opacity="0.92"/>
<path d="M 415.4 256.0 L 415.4 346.0 L 172.2 346.0 L 172.2 272.0" fill="none" stroke="#546e7a" stroke-width="3.2" marker-end="url(#arr-main)" opacity="0.92"/>
<path d="M 575.0 193.0 L 610.0 193.0 L 610.0 268.0 L 645.0 268.0" fill="none" stroke="#263238" stroke-width="4.4" marker-end="url(#arr-thick)" opacity="0.92"/>
<path d="M 878.0 268.0 L 944.0 268.0" fill="none" stroke="#263238" stroke-width="4.4" marker-end="url(#arr-thick)" opacity="0.92"/>
<path d="M 575.0 193.0 L 633.0 193.0 L 633.0 268.0 L 944.0 268.0" fill="none" stroke="#263238" stroke-width="4.4" marker-end="url(#arr-thick)" opacity="0.92"/>
<path d="M 1171.0 268.0 L 1237.0 268.0" fill="none" stroke="#263238" stroke-width="4.4" marker-end="url(#arr-thick)" opacity="0.92"/>
<path d="M 1306.0 331.0 L 1306.0 405.0 L 172.2 405.0 L 172.2 272.0" fill="none" stroke="#263238" stroke-width="4.4" marker-end="url(#arr-thick)" opacity="0.92"/>
<path d="M 277.0 209.0 L 310.0 209.0 L 310.0 343.0 L 343.0 343.0" fill="none" stroke="#263238" stroke-width="4.4" marker-end="url(#arr-thick)" opacity="0.92"/>
<path d="M 276.0 342.5 L 343.0 343.0" fill="none" stroke="#1565c0" stroke-width="2.8" stroke-dasharray="12 7" marker-end="url(#arr-fb)" opacity="0.92"/>
<path d="M 579.0 343.0 L 890.0 343.0 L 890.0 268.0 L 944.0 268.0" fill="none" stroke="#c62828" stroke-width="2.8" stroke-dasharray="3 4.5 11 4.5" marker-end="url(#arr-loss)" opacity="0.92"/>
<rect x="46.5" y="149.5" width="233" height="126" rx="14" fill="#37474f" opacity="0.13"/>
<rect x="44" y="146" width="233" height="126" rx="14" fill="url(#g-env)" stroke="#00695c" stroke-width="2.0"/>
<circle cx="160.5" cy="146" r="24" fill="#ffffff" stroke="#00695c" stroke-width="1.8"/>
<circle cx="160.5" cy="146" r="27.5" fill="none" stroke="#00695c" stroke-width="1" opacity="0.35"/>
<g transform="translate(147.0,132.5) scale(1.1250)">
  <path d="M9.671 4.136a2.34 2.34 0 0 1 4.659 0 2.34 2.34 0 0 0 3.319 1.915 2.34 2.34 0 0 1 2.33 4.033 2.34 2.34 0 0 0 0 3.831 2.34 2.34 0 0 1-2.33 4.033 2.34 2.34 0 0 0-3.319 1.915 2.34 2.34 0 0 1-4.659 0 2.34 2.34 0 0 0-3.32-1.915 2.34 2.34 0 0 1-2.33-4.033 2.34 2.34 0 0 0 0-3.831A2.34 2.34 0 0 1 6.35 6.051a2.34 2.34 0 0 0 3.319-1.915" />
  <circle cx="12" cy="12" r="3" />
</g>
<text x="160.5" y="190" font-size="15" class="lbl" fill="#004d40" text-anchor="middle"><tspan x="160.5" dy="0">接触丰富任务</tspan><tspan x="160.5" dy="20">coffee / latch / e</tspan></text>
<text x="160.5" y="220" font-size="12" fill="#5f6b7a" text-anchor="middle">gg</text>
<rect x="349.5" y="133.5" width="228" height="126" rx="14" fill="#37474f" opacity="0.13"/>
<rect x="347" y="130" width="228" height="126" rx="14" fill="url(#g-data)" stroke="#2e7d32" stroke-width="2.0"/>
<circle cx="461.0" cy="130" r="24" fill="#ffffff" stroke="#2e7d32" stroke-width="1.8"/>
<circle cx="461.0" cy="130" r="27.5" fill="none" stroke="#2e7d32" stroke-width="1" opacity="0.35"/>
<g transform="translate(447.5,116.5) scale(0.1055)"><path d="M176,80v96H80V80Z" opacity="0.2"/><path d="M224,40V80a8,8,0,0,1-16,0V48H176a8,8,0,0,1,0-16h40A8,8,0,0,1,224,40ZM80,208H48V176a8,8,0,0,0-16,0v40a8,8,0,0,0,8,8H80a8,8,0,0,0,0-16Zm136-40a8,8,0,0,0-8,8v32H176a8,8,0,0,0,0,16h40a8,8,0,0,0,8-8V176A8,8,0,0,0,216,168ZM40,88a8,8,0,0,0,8-8V48H80a8,8,0,0,0,0-16H40a8,8,0,0,0-8,8V80A8,8,0,0,0,40,88ZM80,72h96a8,8,0,0,1,8,8v96a8,8,0,0,1-8,8H80a8,8,0,0,1-8-8V80A8,8,0,0,1,80,72Zm8,96h80V88H88Z"/></g>
<text x="461.0" y="174" font-size="15" class="lbl" fill="#1b5e20" text-anchor="middle"><tspan x="461.0" dy="0">实测 wrench + 观测</tspan><tspan x="461.0" dy="20">回流</tspan></text>
<text x="461.0" y="204" font-size="12" fill="#5f6b7a" text-anchor="middle">(12 维指尖 wrench,</text>
<rect x="647.5" y="208.5" width="233" height="126" rx="14" fill="#37474f" opacity="0.13"/>
<rect x="645" y="205" width="233" height="126" rx="14" fill="url(#g-frozen)" stroke="#1565c0" stroke-width="2.0"/>
<circle cx="761.5" cy="205" r="24" fill="#ffffff" stroke="#1565c0" stroke-width="1.8"/>
<circle cx="761.5" cy="205" r="27.5" fill="none" stroke="#1565c0" stroke-width="1" opacity="0.35"/>
<g transform="translate(748.0,191.5) scale(1.1250)">
  <path d="M12.83 2.18a2 2 0 0 0-1.66 0L2.6 6.08a1 1 0 0 0 0 1.83l8.58 3.91a2 2 0 0 0 1.66 0l8.58-3.9a1 1 0 0 0 0-1.83z" />
  <path d="M2 12a1 1 0 0 0 .58.91l8.6 3.91a2 2 0 0 0 1.65 0l8.58-3.9A1 1 0 0 0 22 12" />
  <path d="M2 17a1 1 0 0 0 .58.91l8.6 3.91a2 2 0 0 0 1.65 0l8.58-3.9A1 1 0 0 0 22 17" />
</g>
<text x="761.5" y="249" font-size="15" class="lbl" fill="#0d47a1" text-anchor="middle"><tspan x="761.5" dy="0">冻结 wrench-aware </tspan><tspan x="761.5" dy="20">VLA</tspan></text>
<text x="761.5" y="279" font-size="12" fill="#5f6b7a" text-anchor="middle">预测参考动作 chunk </text>
<rect x="946.5" y="208.5" width="227" height="126" rx="14" fill="#37474f" opacity="0.13"/>
<rect x="944" y="205" width="227" height="126" rx="14" fill="url(#g-train)" stroke="#ef6c00" stroke-width="3.2"/>
<circle cx="1057.5" cy="205" r="24" fill="#ffffff" stroke="#ef6c00" stroke-width="1.8"/>
<circle cx="1057.5" cy="205" r="27.5" fill="none" stroke="#ef6c00" stroke-width="1" opacity="0.35"/>
<g transform="translate(1044.0,191.5) scale(1.1250)">
  <path d="M4 14a1 1 0 0 1-.78-1.63l9.9-10.2a.5.5 0 0 1 .86.46l-1.92 6.02A1 1 0 0 0 13 10h7a1 1 0 0 1 .78 1.63l-9.9 10.2a.5.5 0 0 1-.86-.46l1.92-6.02A1 1 0 0 0 11 14z" />
</g>
<text x="1057.5" y="249" font-size="15" class="lbl" fill="#b34700" text-anchor="middle"><tspan x="1057.5" dy="0">轻量在线 RL actor</tspan><tspan x="1057.5" dy="20">学修正量: a = a_re</tspan></text>
<text x="1057.5" y="279" font-size="12" fill="#5f6b7a" text-anchor="middle">f + delta</text>
<rect x="1239.5" y="208.5" width="230" height="126" rx="14" fill="#37474f" opacity="0.13"/>
<rect x="1237" y="205" width="230" height="126" rx="14" fill="url(#g-act)" stroke="#6a1b9a" stroke-width="2.0"/>
<circle cx="1352.0" cy="205" r="24" fill="#ffffff" stroke="#6a1b9a" stroke-width="1.8"/>
<circle cx="1352.0" cy="205" r="27.5" fill="none" stroke="#6a1b9a" stroke-width="1" opacity="0.35"/>
<g transform="translate(1338.5,191.5) scale(1.1250)">
  <path d="M4 14a1 1 0 0 1-.78-1.63l9.9-10.2a.5.5 0 0 1 .86.46l-1.92 6.02A1 1 0 0 0 13 10h7a1 1 0 0 1 .78 1.63l-9.9 10.2a.5.5 0 0 1-.86-.46l1.92-6.02A1 1 0 0 0 11 14z" />
</g>
<text x="1352.0" y="249" font-size="15" class="lbl" fill="#4a148c" text-anchor="middle"><tspan x="1352.0" dy="0">MoE 融合</tspan><tspan x="1352.0" dy="20">门控加权: 参考动作 </tspan></text>
<text x="1352.0" y="279" font-size="12" fill="#5f6b7a" text-anchor="middle">/ wrench 预测 / RL</text>
<rect x="345.5" y="283.5" width="236" height="126" rx="14" fill="#37474f" opacity="0.13"/>
<rect x="343" y="280" width="236" height="126" rx="14" fill="url(#g-key)" stroke="#ef6c00" stroke-width="3.2"/>
<circle cx="461.0" cy="280" r="24" fill="#ffffff" stroke="#ef6c00" stroke-width="1.8"/>
<circle cx="461.0" cy="280" r="27.5" fill="none" stroke="#ef6c00" stroke-width="1" opacity="0.35"/>
<g transform="translate(447.5,266.5) scale(0.1055)"><path d="M176,128a48,48,0,1,1-48-48A48,48,0,0,1,176,128Z" opacity="0.2"/><path d="M221.87,83.16A104.1,104.1,0,1,1,195.67,49l22.67-22.68a8,8,0,0,1,11.32,11.32l-96,96a8,8,0,0,1-11.32-11.32l27.72-27.72a40,40,0,1,0,17.87,31.09,8,8,0,1,1,16-.9,56,56,0,1,1-22.38-41.65L184.3,60.39a87.88,87.88,0,1,0,23.13,29.67,8,8,0,0,1,14.44-6.9Z"/></g>
<text x="461.0" y="324" font-size="15" class="lbl" fill="#9a4d00" text-anchor="middle"><tspan x="461.0" dy="0">intervention-censo</tspan><tspan x="461.0" dy="20">red critic (核心)</tspan></text>
<text x="461.0" y="354" font-size="12" fill="#5f6b7a" text-anchor="middle">干预前策略动作回报记</text>
<rect x="48.5" y="299.5" width="230" height="93" rx="14" fill="#37474f" opacity="0.13"/>
<rect x="46" y="296" width="230" height="93" rx="14" fill="url(#g-data)" stroke="#2e7d32" stroke-width="2.0"/>
<circle cx="161.0" cy="296" r="24" fill="#ffffff" stroke="#2e7d32" stroke-width="1.8"/>
<circle cx="161.0" cy="296" r="27.5" fill="none" stroke="#2e7d32" stroke-width="1" opacity="0.35"/>
<g transform="translate(147.5,282.5) scale(0.1055)"><path d="M200,48v63.1c0,39.7-31.75,72.6-71.45,72.9A72,72,0,0,1,56,112V48Z" opacity="0.2"/><path d="M232,64H208V48a8,8,0,0,0-8-8H56a8,8,0,0,0-8,8V64H24A16,16,0,0,0,8,80V96a40,40,0,0,0,40,40h3.65A80.13,80.13,0,0,0,120,191.61V216H96a8,8,0,0,0,0,16h64a8,8,0,0,0,0-16H136V191.58c31.94-3.23,58.44-25.64,68.08-55.58H208a40,40,0,0,0,40-40V80A16,16,0,0,0,232,64ZM48,120A24,24,0,0,1,24,96V80H48v32q0,4,.39,8Zm144-8.9c0,35.52-29,64.64-64,64.9a64,64,0,0,1-64-64V56H192ZM232,96a24,24,0,0,1-24,24h-.5a81.81,81.81,0,0,0,.5-8.9V80h24Z"/></g>
<text x="161.0" y="340" font-size="15" class="lbl" fill="#1b5e20" text-anchor="middle"><tspan x="161.0" dy="0">人工干预 + 二值成功</tspan><tspan x="161.0" dy="20">奖励</tspan></text>
<g transform="translate(309.5,342.8)"><rect x="-46.1" y="-11" width="92.2" height="22" rx="11" fill="#ffffff" stroke="#1565c0" stroke-width="1.2"/><text y="4" font-size="12" fill="#1565c0" font-weight="600" text-anchor="middle">&quot;干预 mask&quot;</text></g>
<g transform="translate(799.0,343.0)"><rect x="-61.1" y="-11" width="122.2" height="22" rx="11" fill="#ffffff" stroke="#c62828" stroke-width="1.2"/><text y="4" font-size="12" fill="#c62828" font-weight="600" text-anchor="middle">&quot;Q 梯度在线精调&quot;</text></g>
<text x="40" y="444.5" font-size="12" fill="#78909c">图例</text>
<g><rect x="86" y="430" width="86.76" height="22" rx="11" fill="url(#g-act)" stroke="#6a1b9a" stroke-width="1.3"/><circle cx="99" cy="441" r="4.2" fill="#6a1b9a"/><text x="110" y="445" font-size="11.5" fill="#4a148c">动作生成</text></g>
<g><rect x="184.76" y="430" width="93.43" height="22" rx="11" fill="url(#g-data)" stroke="#2e7d32" stroke-width="1.3"/><circle cx="197.76" cy="441" r="4.2" fill="#2e7d32"/><text x="208.76" y="445" font-size="11.5" fill="#1b5e20">数据/输入</text></g>
<g><rect x="290.19" y="430" width="62.38" height="22" rx="11" fill="url(#g-env)" stroke="#00695c" stroke-width="1.3"/><circle cx="303.19" cy="441" r="4.2" fill="#00695c"/><text x="314.19" y="445" font-size="11.5" fill="#004d40">环境</text></g>
<g><rect x="364.57" y="430" width="86.76" height="22" rx="11" fill="url(#g-frozen)" stroke="#1565c0" stroke-width="1.3"/><circle cx="377.57" cy="441" r="4.2" fill="#1565c0"/><text x="388.57" y="445" font-size="11.5" fill="#0d47a1">冻结模块</text></g>
<g><rect x="463.33" y="430" width="86.76" height="22" rx="11" fill="url(#g-key)" stroke="#ef6c00" stroke-width="1.3"/><circle cx="476.33" cy="441" r="4.2" fill="#ef6c00"/><text x="487.33" y="445" font-size="11.5" fill="#9a4d00">关键组件</text></g>
<g><rect x="562.09" y="430" width="98.95" height="22" rx="11" fill="url(#g-train)" stroke="#ef6c00" stroke-width="1.3"/><circle cx="575.09" cy="441" r="4.2" fill="#ef6c00"/><text x="586.09" y="445" font-size="11.5" fill="#b34700">可训练模块</text></g>
<text x="40" y="484" font-size="11.5" fill="#78909c">线型</text>
<g><path d="M 80 480 h 44" stroke="#546e7a" stroke-width="3.2" marker-end="url(#arr-main)"/><text x="132" y="484" font-size="11.5" fill="#546e7a">信息流</text></g>
<g><path d="M 200.57 480 h 44" stroke="#263238" stroke-width="4.4" marker-end="url(#arr-thick)"/><text x="252.57" y="484" font-size="11.5" fill="#263238">主数据流</text></g>
<g><path d="M 333.33 480 h 44" stroke="#1565c0" stroke-width="2.8" stroke-dasharray="12 7" marker-end="url(#arr-fb)"/><text x="385.33" y="484" font-size="11.5" fill="#1565c0">闭环反馈</text></g>
<g><path d="M 466.09 480 h 44" stroke="#c62828" stroke-width="2.8" stroke-dasharray="3 4.5 11 4.5" marker-end="url(#arr-loss)"/><text x="518.0899999999999" y="484" font-size="11.5" fill="#c62828">损失/监督</text></g>
</svg>