<svg xmlns="http://www.w3.org/2000/svg" width="875" height="1449" viewBox="0 0 875 1449" font-family="'PingFang SC','Hiragino Sans GB','Microsoft YaHei','Segoe UI',sans-serif">
<style>text{font-family:'PingFang SC','Hiragino Sans GB','Microsoft YaHei','Segoe UI',sans-serif;} .lbl{font-weight:700;}</style>
<defs>
<linearGradient id="g-data" x1="0" y1="0" x2="0" y2="1"><stop offset="0" stop-color="#f1f9f1"/><stop offset="1" stop-color="#e2f0e2"/></linearGradient>
<linearGradient id="g-frozen" x1="0" y1="0" x2="0" y2="1"><stop offset="0" stop-color="#f0f7fe"/><stop offset="1" stop-color="#dcecfb"/></linearGradient>
<linearGradient id="g-train" x1="0" y1="0" x2="0" y2="1"><stop offset="0" stop-color="#fff6e8"/><stop offset="1" stop-color="#ffedd4"/></linearGradient>
<linearGradient id="g-loss" x1="0" y1="0" x2="0" y2="1"><stop offset="0" stop-color="#fdf0f1"/><stop offset="1" stop-color="#f9e0e2"/></linearGradient>
<linearGradient id="g-act" x1="0" y1="0" x2="0" y2="1"><stop offset="0" stop-color="#f8f1fb"/><stop offset="1" stop-color="#f0e4f7"/></linearGradient>
<linearGradient id="g-loop" x1="0" y1="0" x2="0" y2="1"><stop offset="0" stop-color="#f2f5f7"/><stop offset="1" stop-color="#e6ebee"/></linearGradient>
<linearGradient id="g-env" x1="0" y1="0" x2="0" y2="1"><stop offset="0" stop-color="#eef8f6"/><stop offset="1" stop-color="#dcf0ec"/></linearGradient>
<linearGradient id="g-mem" x1="0" y1="0" x2="0" y2="1"><stop offset="0" stop-color="#fffef0"/><stop offset="1" stop-color="#fdf6d8"/></linearGradient>
<linearGradient id="g-reward" x1="0" y1="0" x2="0" y2="1"><stop offset="0" stop-color="#fdf2f7"/><stop offset="1" stop-color="#f9e2ed"/></linearGradient>
<linearGradient id="g-key" x1="0" y1="0" x2="0" y2="1"><stop offset="0" stop-color="#fffaf0"/><stop offset="1" stop-color="#fff1d6"/></linearGradient>
<linearGradient id="g-title" x1="0" y1="0" x2="1" y2="0"><stop offset="0" stop-color="#00695c"/><stop offset="1" stop-color="#1565c0"/></linearGradient>
<marker id="arr-main" viewBox="0 0 10 10" refX="8.5" refY="5" markerWidth="13" markerHeight="13" markerUnits="userSpaceOnUse" orient="auto-start-reverse"><path d="M0 0 L10 5 L0 10 z" fill="#546e7a"/></marker>
<marker id="arr-thick" viewBox="0 0 10 10" refX="8.5" refY="5" markerWidth="13" markerHeight="13" markerUnits="userSpaceOnUse" orient="auto-start-reverse"><path d="M0 0 L10 5 L0 10 z" fill="#263238"/></marker>
<marker id="arr-thin" viewBox="0 0 10 10" refX="8.5" refY="5" markerWidth="13" markerHeight="13" markerUnits="userSpaceOnUse" orient="auto-start-reverse"><path d="M0 0 L10 5 L0 10 z" fill="#9fb0bb"/></marker>
<marker id="arr-fb" viewBox="0 0 10 10" refX="8.5" refY="5" markerWidth="13" markerHeight="13" markerUnits="userSpaceOnUse" orient="auto-start-reverse"><path d="M0 0 L10 5 L0 10 z" fill="#1565c0"/></marker>
<marker id="arr-loss" viewBox="0 0 10 10" refX="8.5" refY="5" markerWidth="13" markerHeight="13" markerUnits="userSpaceOnUse" orient="auto-start-reverse"><path d="M0 0 L10 5 L0 10 z" fill="#c62828"/></marker>
</defs>
<rect width="875" height="1449" fill="#ffffff"/>
<rect x="34" y="30" width="5" height="42" rx="2.5" fill="url(#g-title)"/>
<text x="52" y="52" font-size="25" font-weight="800" fill="#1a2733">mobile-aloha-act</text>
<text x="52" y="74" font-size="13.5" fill="#78909c">Mobile ALOHA 与 ACT 提供了低成本全身遥操作硬件方案与动作分块（Action Chunking）Transformer 架构，通过 CVAE 建模多模态示教分布</text>
<text x="841" y="1431" font-size="11.5" fill="#a0aab4" text-anchor="end">mobile-aloha-act · arXiv 2401.02117 · v3 auto</text>
<rect x="20" y="0" width="835" height="175" rx="18" fill="#fbfdff" stroke="#b7c6d6" stroke-width="1.4" stroke-dasharray="8 5"/>
<rect x="36" y="13" width="50.5" height="26" rx="13" fill="#eef3f8" stroke="#b7c6d6"/>
<text x="47" y="30" font-size="12.5" fill="#4a6579">输入</text>
<rect x="282" y="203" width="311" height="614" rx="18" fill="#fbfdff" stroke="#b7c6d6" stroke-width="1.4" stroke-dasharray="8 5"/>
<rect x="298" y="216" width="152.0" height="26" rx="13" fill="#eef3f8" stroke="#b7c6d6"/>
<text x="309" y="233" font-size="12.5" fill="#4a6579">ACT 策略 = CVAE + </text>
<path d="M 397.5 153.0 L 397.5 249.0 L 437.5 249.0" fill="none" stroke="#546e7a" stroke-width="3.2" marker-end="url(#arr-main)" opacity="0.92"/>
<path d="M 230.0 99.5 L 244.0 99.5 L 244.0 319.0 L 308.0 319.0" fill="none" stroke="#546e7a" stroke-width="3.2" marker-end="url(#arr-main)" opacity="0.92"/>
<path d="M 437.5 389.0 L 438.0 485.0" fill="none" stroke="#263238" stroke-width="4.4" marker-end="url(#arr-thick)" opacity="0.92"/>
<path d="M 438.0 592.0 L 437.0 688.0" fill="none" stroke="#263238" stroke-width="4.4" marker-end="url(#arr-thick)" opacity="0.92"/>
<path d="M 397.5 153.0 L 284.0 153.0 L 284.0 688.0 L 437.0 688.0" fill="none" stroke="#263238" stroke-width="4.4" marker-end="url(#arr-thick)" opacity="0.92"/>
<path d="M 697.0 153.0 L 697.0 688.0 L 437.0 688.0" fill="none" stroke="#1565c0" stroke-width="2.8" stroke-dasharray="12 7" marker-end="url(#arr-fb)" opacity="0.92"/>
<path d="M 437.0 795.0 L 437.0 891.0 L 574.5 891.0" fill="none" stroke="#1565c0" stroke-width="2.8" stroke-dasharray="12 7" marker-end="url(#arr-fb)" opacity="0.92"/>
<path d="M 138.0 153.0 L 138.0 891.0 L 574.5 891.0" fill="none" stroke="#1565c0" stroke-width="2.8" stroke-dasharray="12 7" marker-end="url(#arr-fb)" opacity="0.92"/>
<path d="M 437.0 795.0 L 420.0 795.0 L 420.0 908.0 L 288.0 908.0" fill="none" stroke="#263238" stroke-width="4.4" marker-end="url(#arr-thick)" opacity="0.92"/>
<path d="M 288.0 1015.0 L 288.0 1127.0 L 438.0 1127.0" fill="none" stroke="#263238" stroke-width="4.4" marker-end="url(#arr-thick)" opacity="0.92"/>
<path d="M 438.0 1127.0 L 849.0 1127.0 L 849.0 -14.0 L 397.5 -14.0 L 397.5 46.0" fill="none" stroke="#1565c0" stroke-width="2.8" stroke-dasharray="12 7" marker-end="url(#arr-fb)" opacity="0.92"/>
<rect x="270.5" y="49.5" width="259" height="107" rx="14" fill="#37474f" opacity="0.13"/>
<rect x="268" y="46" width="259" height="107" rx="14" fill="url(#g-data)" stroke="#2e7d32" stroke-width="2.0"/>
<circle cx="397.5" cy="46" r="24" fill="#ffffff" stroke="#2e7d32" stroke-width="1.8"/>
<circle cx="397.5" cy="46" r="27.5" fill="none" stroke="#2e7d32" stroke-width="1" opacity="0.35"/>
<g transform="translate(384.0,32.5) scale(1.1250)">
  <path d="M13.997 4a2 2 0 0 1 1.76 1.05l.486.9A2 2 0 0 0 18.003 7H20a2 2 0 0 1 2 2v9a2 2 0 0 1-2 2H4a2 2 0 0 1-2-2V9a2 2 0 0 1 2-2h1.997a2 2 0 0 0 1.759-1.048l.489-.904A2 2 0 0 1 10.004 4z" />
  <circle cx="12" cy="13" r="3" />
</g>
<text x="397.5" y="102" font-size="15" class="lbl" fill="#1b5e20" text-anchor="middle"><tspan x="397.5" dy="0">当前观测 x</tspan><tspan x="397.5" dy="20">3 路 RGB 480x640@50Hz</tspan></text>
<rect x="48.5" y="49.5" width="184" height="107" rx="14" fill="#37474f" opacity="0.13"/>
<rect x="46" y="46" width="184" height="107" rx="14" fill="url(#g-data)" stroke="#2e7d32" stroke-width="2.0"/>
<circle cx="138.0" cy="46" r="24" fill="#ffffff" stroke="#2e7d32" stroke-width="1.8"/>
<circle cx="138.0" cy="46" r="27.5" fill="none" stroke="#2e7d32" stroke-width="1" opacity="0.35"/>
<g transform="translate(124.5,32.5) scale(1.1250)">
  <path d="M4 14a1 1 0 0 1-.78-1.63l9.9-10.2a.5.5 0 0 1 .86.46l-1.92 6.02A1 1 0 0 0 13 10h7a1 1 0 0 1 .78 1.63l-9.9 10.2a.5.5 0 0 1-.86-.46l1.92-6.02A1 1 0 0 0 11 14z" />
</g>
<text x="138.0" y="102" font-size="15" class="lbl" fill="#1b5e20" text-anchor="middle"><tspan x="138.0" dy="0">示教动作 y</tspan><tspan x="138.0" dy="20">每任务仅 50 条</tspan></text>
<rect x="567.5" y="49.5" width="264" height="107" rx="14" fill="#37474f" opacity="0.13"/>
<rect x="565" y="46" width="264" height="107" rx="14" fill="url(#g-data)" stroke="#2e7d32" stroke-width="2.0"/>
<circle cx="697.0" cy="46" r="24" fill="#ffffff" stroke="#2e7d32" stroke-width="1.8"/>
<circle cx="697.0" cy="46" r="27.5" fill="none" stroke="#2e7d32" stroke-width="1" opacity="0.35"/>
<g transform="translate(683.5,32.5) scale(0.1055)"><path d="M216,80c0,26.51-39.4,48-88,48S40,106.51,40,80s39.4-48,88-48S216,53.49,216,80Z" opacity="0.2"/><path d="M128,24C74.17,24,32,48.6,32,80v96c0,31.4,42.17,56,96,56s96-24.6,96-56V80C224,48.6,181.83,24,128,24Zm80,104c0,9.62-7.88,19.43-21.61,26.92C170.93,163.35,150.19,168,128,168s-42.93-4.65-58.39-13.08C55.88,147.43,48,137.62,48,128V111.36c17.06,15,46.23,24.64,80,24.64s62.94-9.68,80-24.64ZM69.61,53.08C85.07,44.65,105.81,40,128,40s42.93,4.65,58.39,13.08C200.12,60.57,208,70.38,208,80s-7.88,19.43-21.61,26.92C170.93,115.35,150.19,120,128,120s-42.93-4.65-58.39-13.08C55.88,99.43,48,89.62,48,80S55.88,60.57,69.61,53.08ZM186.39,202.92C170.93,211.35,150.19,216,128,216s-42.93-4.65-58.39-13.08C55.88,195.43,48,185.62,48,176V159.36c17.06,15,46.23,24.64,80,24.64s62.94-9.68,80-24.64V176C208,185.62,200.12,195.43,186.39,202.92Z"/></g>
<text x="697.0" y="102" font-size="15" class="lbl" fill="#1b5e20" text-anchor="middle"><tspan x="697.0" dy="0">静态 ALOHA 数据 2.7K&lt;b</tspan><tspan x="697.0" dy="20">r/</tspan></text>
<rect x="310.5" y="252.5" width="259" height="140" rx="14" fill="#37474f" opacity="0.13"/>
<rect x="308" y="249" width="259" height="140" rx="14" fill="url(#g-train)" stroke="#ef6c00" stroke-width="3.2"/>
<circle cx="437.5" cy="249" r="24" fill="#ffffff" stroke="#ef6c00" stroke-width="1.8"/>
<circle cx="437.5" cy="249" r="27.5" fill="none" stroke="#ef6c00" stroke-width="1" opacity="0.35"/>
<g transform="translate(424.0,235.5) scale(0.1055)"><path d="M128,56C48,56,16,128,16,128s32,72,112,72,112-72,112-72S208,56,128,56Zm0,112a40,40,0,1,1,40-40A40,40,0,0,1,128,168Z" opacity="0.2"/><path d="M247.31,124.76c-.35-.79-8.82-19.58-27.65-38.41C194.57,61.26,162.88,48,128,48S61.43,61.26,36.34,86.35C17.51,105.18,9,124,8.69,124.76a8,8,0,0,0,0,6.5c.35.79,8.82,19.57,27.65,38.4C61.43,194.74,93.12,208,128,208s66.57-13.26,91.66-38.34c18.83-18.83,27.3-37.61,27.65-38.4A8,8,0,0,0,247.31,124.76ZM128,192c-30.78,0-57.67-11.19-79.93-33.25A133.47,133.47,0,0,1,25,128,133.33,133.33,0,0,1,48.07,97.25C70.33,75.19,97.22,64,128,64s57.67,11.19,79.93,33.25A133.46,133.46,0,0,1,231.05,128C223.84,141.46,192.43,192,128,192Zm0-112a48,48,0,1,0,48,48A48.05,48.05,0,0,0,128,80Zm0,80a32,32,0,1,1,32-32A32,32,0,0,1,128,160Z"/></g>
<text x="437.5" y="305" font-size="15" class="lbl" fill="#b34700" text-anchor="middle"><tspan x="437.5" dy="0">CVAE 编码器 q(z|x,y)</tspan><tspan x="437.5" dy="20">ResNet18 + 4 层 Trans</tspan></text>
<text x="437.5" y="335" font-size="12" fill="#5f6b7a" text-anchor="middle">former</text>
<rect x="332.5" y="488.5" width="216" height="107" rx="14" fill="#37474f" opacity="0.13"/>
<rect x="330" y="485" width="216" height="107" rx="14" fill="url(#g-train)" stroke="#ef6c00" stroke-width="3.2"/>
<circle cx="438.0" cy="485" r="24" fill="#ffffff" stroke="#ef6c00" stroke-width="1.8"/>
<circle cx="438.0" cy="485" r="27.5" fill="none" stroke="#ef6c00" stroke-width="1" opacity="0.35"/>
<g transform="translate(424.5,471.5) scale(0.1055)"><path d="M128,56C48,56,16,128,16,128s32,72,112,72,112-72,112-72S208,56,128,56Zm0,112a40,40,0,1,1,40-40A40,40,0,0,1,128,168Z" opacity="0.2"/><path d="M247.31,124.76c-.35-.79-8.82-19.58-27.65-38.41C194.57,61.26,162.88,48,128,48S61.43,61.26,36.34,86.35C17.51,105.18,9,124,8.69,124.76a8,8,0,0,0,0,6.5c.35.79,8.82,19.57,27.65,38.4C61.43,194.74,93.12,208,128,208s66.57-13.26,91.66-38.34c18.83-18.83,27.3-37.61,27.65-38.4A8,8,0,0,0,247.31,124.76ZM128,192c-30.78,0-57.67-11.19-79.93-33.25A133.47,133.47,0,0,1,25,128,133.33,133.33,0,0,1,48.07,97.25C70.33,75.19,97.22,64,128,64s57.67,11.19,79.93,33.25A133.46,133.46,0,0,1,231.05,128C223.84,141.46,192.43,192,128,192Zm0-112a48,48,0,1,0,48,48A48.05,48.05,0,0,0,128,80Zm0,80a32,32,0,1,1,32-32A32,32,0,0,1,128,160Z"/></g>
<text x="438.0" y="541" font-size="15" class="lbl" fill="#b34700" text-anchor="middle"><tspan x="438.0" dy="0">隐变量 z</tspan><tspan x="438.0" dy="20">编码多模态操作风格</tspan></text>
<rect x="316.5" y="691.5" width="246" height="107" rx="14" fill="#37474f" opacity="0.13"/>
<rect x="314" y="688" width="246" height="107" rx="14" fill="url(#g-train)" stroke="#ef6c00" stroke-width="3.2"/>
<circle cx="437.0" cy="688" r="24" fill="#ffffff" stroke="#ef6c00" stroke-width="1.8"/>
<circle cx="437.0" cy="688" r="27.5" fill="none" stroke="#ef6c00" stroke-width="1" opacity="0.35"/>
<g transform="translate(423.5,674.5) scale(1.1250)">
  <path d="M4 14a1 1 0 0 1-.78-1.63l9.9-10.2a.5.5 0 0 1 .86.46l-1.92 6.02A1 1 0 0 0 13 10h7a1 1 0 0 1 .78 1.63l-9.9 10.2a.5.5 0 0 1-.86-.46l1.92-6.02A1 1 0 0 0 11 14z" />
</g>
<text x="437.0" y="744" font-size="15" class="lbl" fill="#b34700" text-anchor="middle"><tspan x="437.0" dy="0">CVAE 解码器 p(y|x,z)</tspan><tspan x="437.0" dy="20">7 层 Transformer</tspan></text>
<rect x="446.5" y="894.5" width="261" height="140" rx="14" fill="#37474f" opacity="0.13"/>
<rect x="444" y="891" width="261" height="140" rx="14" fill="url(#g-loss)" stroke="#c62828" stroke-width="2.0" stroke-dasharray="7 4"/>
<circle cx="574.5" cy="891" r="24" fill="#ffffff" stroke="#c62828" stroke-width="1.8"/>
<circle cx="574.5" cy="891" r="27.5" fill="none" stroke="#c62828" stroke-width="1" opacity="0.35"/>
<g transform="translate(561.0,877.5) scale(0.1055)"><path d="M192,48V208H64l64-80L64,48Z" opacity="0.2"/><path d="M184,72V56H80.65l53.6,67a8,8,0,0,1,0,10l-53.6,67H184V184a8,8,0,0,1,16,0v24a8,8,0,0,1-8,8H64a8,8,0,0,1-6.25-13l60-75-60-75A8,8,0,0,1,64,40H192a8,8,0,0,1,8,8V72a8,8,0,0,1-16,0Z"/></g>
<text x="574.5" y="947" font-size="15" class="lbl" fill="#b71c1c" text-anchor="middle"><tspan x="574.5" dy="0">ELBO</tspan><tspan x="574.5" dy="20">抑制复合误差 O(T^2 eps</tspan></text>
<text x="574.5" y="977" font-size="12" fill="#5f6b7a" text-anchor="middle">)</text>
<rect x="172.5" y="911.5" width="236" height="107" rx="14" fill="#37474f" opacity="0.13"/>
<rect x="170" y="908" width="236" height="107" rx="14" fill="url(#g-key)" stroke="#ef6c00" stroke-width="3.2"/>
<circle cx="288.0" cy="908" r="24" fill="#ffffff" stroke="#ef6c00" stroke-width="1.8"/>
<circle cx="288.0" cy="908" r="27.5" fill="none" stroke="#ef6c00" stroke-width="1" opacity="0.35"/>
<g transform="translate(274.5,894.5) scale(1.1250)">
  <path d="M12.83 2.18a2 2 0 0 0-1.66 0L2.6 6.08a1 1 0 0 0 0 1.83l8.58 3.91a2 2 0 0 0 1.66 0l8.58-3.9a1 1 0 0 0 0-1.83z" />
  <path d="M2 12a1 1 0 0 0 .58.91l8.6 3.91a2 2 0 0 0 1.65 0l8.58-3.9A1 1 0 0 0 22 12" />
  <path d="M2 17a1 1 0 0 0 .58.91l8.6 3.91a2 2 0 0 0 1.65 0l8.58-3.9A1 1 0 0 0 22 17" />
</g>
<text x="288.0" y="964" font-size="15" class="lbl" fill="#9a4d00" text-anchor="middle"><tspan x="288.0" dy="0">动作块 Action Chunk</tspan><tspan x="288.0" dy="20">一次预测 K=45 步</tspan></text>
<rect x="308.5" y="1130.5" width="264" height="140" rx="14" fill="#37474f" opacity="0.13"/>
<rect x="306" y="1127" width="264" height="140" rx="14" fill="url(#g-act)" stroke="#6a1b9a" stroke-width="2.0"/>
<circle cx="438.0" cy="1127" r="24" fill="#ffffff" stroke="#6a1b9a" stroke-width="1.8"/>
<circle cx="438.0" cy="1127" r="27.5" fill="none" stroke="#6a1b9a" stroke-width="1" opacity="0.35"/>
<g transform="translate(424.5,1113.5) scale(1.1250)">
  <path d="M12 8V4H8" />
  <rect width="16" height="12" x="4" y="8" rx="2" />
  <path d="M2 14h2" />
  <path d="M20 14h2" />
  <path d="M15 13v2" />
  <path d="M9 13v2" />
</g>
<text x="438.0" y="1183" font-size="15" class="lbl" fill="#4a148c" text-anchor="middle"><tspan x="438.0" dy="0">机器人执行</tspan><tspan x="438.0" dy="20">双臂位置控制 + 底座速度</tspan></text>
<text x="438.0" y="1213" font-size="12" fill="#5f6b7a" text-anchor="middle">控制</text>
<g transform="translate(437.8,437.0)"><rect x="-42.4" y="-11" width="84.8" height="22" rx="11" fill="#ffffff" stroke="#263238" stroke-width="1.2"/><text y="4" font-size="12" fill="#263238" font-weight="600" text-anchor="middle">&quot;风格采样&quot;</text></g>
<g transform="translate(284.0,440.2)"><rect x="-42.4" y="-11" width="84.8" height="22" rx="11" fill="#ffffff" stroke="#263238" stroke-width="1.2"/><text y="4" font-size="12" fill="#263238" font-weight="600" text-anchor="middle">&quot;观测条件&quot;</text></g>
<g transform="translate(697.0,550.5)"><rect x="-100.2" y="-11" width="200.5" height="22" rx="11" fill="#ffffff" stroke="#1565c0" stroke-width="1.2"/><text y="4" font-size="12" fill="#1565c0" font-weight="600" text-anchor="middle">&quot;协同训练 复用视觉-动作表征&quot;</text></g>
<g transform="translate(457.8,863.0)"><rect x="-92.3" y="-11" width="184.6" height="22" rx="11" fill="#ffffff" stroke="#1565c0" stroke-width="1.2"/><text y="4" font-size="12" fill="#1565c0" font-weight="600" text-anchor="middle">&quot;重构 + KL(beta=10) ELBO</text></g>
<g transform="translate(307.0,1099.0)"><rect x="-92.3" y="-11" width="184.6" height="22" rx="11" fill="#ffffff" stroke="#263238" stroke-width="1.2"/><text y="4" font-size="12" fill="#263238" font-weight="600" text-anchor="middle">&quot;块间 temporal ensemble </text></g>
<g transform="translate(849.0,506.2)"><rect x="-115.4" y="-11" width="230.7" height="22" rx="11" fill="#ffffff" stroke="#1565c0" stroke-width="1.2"/><text y="4" font-size="12" fill="#1565c0" font-weight="600" text-anchor="middle">&quot;新观测闭环修正 无 SLAM 纠偏 ~10</text></g>
<text x="40" y="1397.5" font-size="12" fill="#78909c">图例</text>
<g><rect x="86" y="1383" width="86.76" height="22" rx="11" fill="url(#g-act)" stroke="#6a1b9a" stroke-width="1.3"/><circle cx="99" cy="1394" r="4.2" fill="#6a1b9a"/><text x="110" y="1398" font-size="11.5" fill="#4a148c">动作生成</text></g>
<g><rect x="184.76" y="1383" width="93.43" height="22" rx="11" fill="url(#g-data)" stroke="#2e7d32" stroke-width="1.3"/><circle cx="197.76" cy="1394" r="4.2" fill="#2e7d32"/><text x="208.76" y="1398" font-size="11.5" fill="#1b5e20">数据/输入</text></g>
<g><rect x="290.19" y="1383" width="86.76" height="22" rx="11" fill="url(#g-key)" stroke="#ef6c00" stroke-width="1.3"/><circle cx="303.19" cy="1394" r="4.2" fill="#ef6c00"/><text x="314.19" y="1398" font-size="11.5" fill="#9a4d00">关键组件</text></g>
<g><rect x="388.95" y="1383" width="93.43" height="22" rx="11" fill="url(#g-loss)" stroke="#c62828" stroke-width="1.3"/><circle cx="401.95" cy="1394" r="4.2" fill="#c62828"/><text x="412.95" y="1398" font-size="11.5" fill="#b71c1c">损失/监督</text></g>
<g><rect x="494.38" y="1383" width="98.95" height="22" rx="11" fill="url(#g-train)" stroke="#ef6c00" stroke-width="1.3"/><circle cx="507.38" cy="1394" r="4.2" fill="#ef6c00"/><text x="518.38" y="1398" font-size="11.5" fill="#b34700">可训练模块</text></g>
<text x="40" y="1437" font-size="11.5" fill="#78909c">线型</text>
<g><path d="M 80 1433 h 44" stroke="#546e7a" stroke-width="3.2" marker-end="url(#arr-main)"/><text x="132" y="1437" font-size="11.5" fill="#546e7a">信息流</text></g>
<g><path d="M 200.57 1433 h 44" stroke="#263238" stroke-width="4.4" marker-end="url(#arr-thick)"/><text x="252.57" y="1437" font-size="11.5" fill="#263238">主数据流</text></g>
<g><path d="M 333.33 1433 h 44" stroke="#1565c0" stroke-width="2.8" stroke-dasharray="12 7" marker-end="url(#arr-fb)"/><text x="385.33" y="1437" font-size="11.5" fill="#1565c0">闭环反馈</text></g>
</svg>