<svg xmlns="http://www.w3.org/2000/svg" width="656" height="1924" viewBox="0 0 656 1924" font-family="'PingFang SC','Hiragino Sans GB','Microsoft YaHei','Segoe UI',sans-serif">
<style>text{font-family:'PingFang SC','Hiragino Sans GB','Microsoft YaHei','Segoe UI',sans-serif;} .lbl{font-weight:700;}</style>
<defs>
<linearGradient id="g-data" x1="0" y1="0" x2="0" y2="1"><stop offset="0" stop-color="#f1f9f1"/><stop offset="1" stop-color="#e2f0e2"/></linearGradient>
<linearGradient id="g-frozen" x1="0" y1="0" x2="0" y2="1"><stop offset="0" stop-color="#f0f7fe"/><stop offset="1" stop-color="#dcecfb"/></linearGradient>
<linearGradient id="g-train" x1="0" y1="0" x2="0" y2="1"><stop offset="0" stop-color="#fff6e8"/><stop offset="1" stop-color="#ffedd4"/></linearGradient>
<linearGradient id="g-loss" x1="0" y1="0" x2="0" y2="1"><stop offset="0" stop-color="#fdf0f1"/><stop offset="1" stop-color="#f9e0e2"/></linearGradient>
<linearGradient id="g-act" x1="0" y1="0" x2="0" y2="1"><stop offset="0" stop-color="#f8f1fb"/><stop offset="1" stop-color="#f0e4f7"/></linearGradient>
<linearGradient id="g-loop" x1="0" y1="0" x2="0" y2="1"><stop offset="0" stop-color="#f2f5f7"/><stop offset="1" stop-color="#e6ebee"/></linearGradient>
<linearGradient id="g-env" x1="0" y1="0" x2="0" y2="1"><stop offset="0" stop-color="#eef8f6"/><stop offset="1" stop-color="#dcf0ec"/></linearGradient>
<linearGradient id="g-mem" x1="0" y1="0" x2="0" y2="1"><stop offset="0" stop-color="#fffef0"/><stop offset="1" stop-color="#fdf6d8"/></linearGradient>
<linearGradient id="g-reward" x1="0" y1="0" x2="0" y2="1"><stop offset="0" stop-color="#fdf2f7"/><stop offset="1" stop-color="#f9e2ed"/></linearGradient>
<linearGradient id="g-key" x1="0" y1="0" x2="0" y2="1"><stop offset="0" stop-color="#fffaf0"/><stop offset="1" stop-color="#fff1d6"/></linearGradient>
<linearGradient id="g-title" x1="0" y1="0" x2="1" y2="0"><stop offset="0" stop-color="#00695c"/><stop offset="1" stop-color="#1565c0"/></linearGradient>
<marker id="arr-main" viewBox="0 0 10 10" refX="8.5" refY="5" markerWidth="13" markerHeight="13" markerUnits="userSpaceOnUse" orient="auto-start-reverse"><path d="M0 0 L10 5 L0 10 z" fill="#546e7a"/></marker>
<marker id="arr-thick" viewBox="0 0 10 10" refX="8.5" refY="5" markerWidth="13" markerHeight="13" markerUnits="userSpaceOnUse" orient="auto-start-reverse"><path d="M0 0 L10 5 L0 10 z" fill="#263238"/></marker>
<marker id="arr-thin" viewBox="0 0 10 10" refX="8.5" refY="5" markerWidth="13" markerHeight="13" markerUnits="userSpaceOnUse" orient="auto-start-reverse"><path d="M0 0 L10 5 L0 10 z" fill="#9fb0bb"/></marker>
<marker id="arr-fb" viewBox="0 0 10 10" refX="8.5" refY="5" markerWidth="13" markerHeight="13" markerUnits="userSpaceOnUse" orient="auto-start-reverse"><path d="M0 0 L10 5 L0 10 z" fill="#1565c0"/></marker>
<marker id="arr-loss" viewBox="0 0 10 10" refX="8.5" refY="5" markerWidth="13" markerHeight="13" markerUnits="userSpaceOnUse" orient="auto-start-reverse"><path d="M0 0 L10 5 L0 10 z" fill="#c62828"/></marker>
</defs>
<rect width="656" height="1924" fill="#ffffff"/>
<rect x="34" y="30" width="5" height="42" rx="2.5" fill="url(#g-title)"/>
<text x="52" y="52" font-size="25" font-weight="800" fill="#1a2733">oxygen</text>
<text x="52" y="74" font-size="13.5" fill="#78909c">问题**：MoT 结构 VLA（如 π0.5）架构上支持动作+语言多任务并行，但现有推理系统孤立执行——同一观测被每个任务重复 prefill、语言解码阻塞动作硬实时，端侧单 </text>
<text x="622" y="1906" font-size="11.5" fill="#a0aab4" text-anchor="end">oxygen · arXiv 2603.14371 · v3 auto</text>
<path d="M 476.5 167.0 L 476.5 218.5 L 328.5 218.5 L 328.5 270.0" fill="none" stroke="#546e7a" stroke-width="3.2" marker-end="url(#arr-main)" opacity="0.92"/>
<path d="M 328.5 408.0 L 328.0 494.0" fill="none" stroke="#546e7a" stroke-width="3.2" marker-end="url(#arr-main)" opacity="0.92"/>
<path d="M 328.0 632.0 L 328.0 675.0 L 178.5 675.0 L 178.5 718.0" fill="none" stroke="#546e7a" stroke-width="3.2" marker-end="url(#arr-main)" opacity="0.92"/>
<path d="M 328.0 632.0 L 328.0 675.0 L 473.5 675.0 L 473.5 718.0" fill="none" stroke="#546e7a" stroke-width="3.2" marker-end="url(#arr-main)" opacity="0.92"/>
<path d="M 201.5 184.0 L 201.5 644.0 L 479.0 644.0 L 479.0 942.0" fill="none" stroke="#546e7a" stroke-width="3.2" marker-end="url(#arr-main)" opacity="0.92"/>
<path d="M 473.5 856.0 L 479.0 942.0" fill="none" stroke="#546e7a" stroke-width="3.2" marker-end="url(#arr-main)" opacity="0.92"/>
<path d="M 479.0 1080.0 L 479.0 1123.0 L 328.5 1123.0 L 328.5 1166.0" fill="none" stroke="#546e7a" stroke-width="3.2" marker-end="url(#arr-main)" opacity="0.92"/>
<path d="M 328.5 1304.0 L 328.5 1390.0" fill="none" stroke="#546e7a" stroke-width="3.2" marker-end="url(#arr-main)" opacity="0.92"/>
<path d="M 328.5 1528.0 L 328.5 1571.0 L 476.0 1571.0 L 476.0 1614.0" fill="none" stroke="#546e7a" stroke-width="3.2" marker-end="url(#arr-main)" opacity="0.92"/>
<path d="M 422.8 1752.0 L 422.8 2508.0 L 505.2 2508.0 L 505.2 1080.0" fill="none" stroke="#1565c0" stroke-width="2.8" stroke-dasharray="12 7" marker-end="url(#arr-fb)" opacity="0.92"/>
<path d="M 178.5 856.0 L 178.0 942.0" fill="none" stroke="#263238" stroke-width="4.4" marker-end="url(#arr-thick)" opacity="0.92"/>
<path d="M 328.5 1528.0 L 328.5 1579.0 L 176.0 1579.0 L 176.0 1630.0" fill="none" stroke="#263238" stroke-width="4.4" marker-end="url(#arr-thick)" opacity="0.92"/>
<rect x="371.5" y="65.5" width="215" height="105" rx="14" fill="#37474f" opacity="0.13"/>
<rect x="369" y="62" width="215" height="105" rx="14" fill="url(#g-data)" stroke="#2e7d32" stroke-width="2.0"/>
<circle cx="476.5" cy="62" r="24" fill="#ffffff" stroke="#2e7d32" stroke-width="1.8"/>
<circle cx="476.5" cy="62" r="27.5" fill="none" stroke="#2e7d32" stroke-width="1" opacity="0.35"/>
<g transform="translate(463.0,48.5) scale(1.1250)">
  <path d="M13.997 4a2 2 0 0 1 1.76 1.05l.486.9A2 2 0 0 0 18.003 7H20a2 2 0 0 1 2 2v9a2 2 0 0 1-2 2H4a2 2 0 0 1-2-2V9a2 2 0 0 1 2-2h1.997a2 2 0 0 0 1.759-1.048l.489-.904A2 2 0 0 1 10.004 4z" />
  <circle cx="12" cy="13" r="3" />
</g>
<text x="476.5" y="118" font-size="15" class="lbl" fill="#1b5e20" text-anchor="middle"><tspan x="476.5" dy="0">新观测 o_t</tspan><tspan x="476.5" dy="20">(多路 RGB + 语言)</tspan></text>
<rect x="196.5" y="273.5" width="269" height="138" rx="14" fill="#37474f" opacity="0.13"/>
<rect x="194" y="270" width="269" height="138" rx="14" fill="url(#g-frozen)" stroke="#1565c0" stroke-width="2.0"/>
<circle cx="328.5" cy="270" r="24" fill="#ffffff" stroke="#1565c0" stroke-width="1.8"/>
<circle cx="328.5" cy="270" r="27.5" fill="none" stroke="#1565c0" stroke-width="1" opacity="0.35"/>
<g transform="translate(315.0,256.5) scale(0.1055)"><path d="M240,124a48,48,0,0,1-32,45.27h0V176a40,40,0,0,1-80,0,40,40,0,0,1-80,0v-6.73h0a48,48,0,0,1,0-90.54V72a40,40,0,0,1,80,0,40,40,0,0,1,80,0v6.73A48,48,0,0,1,240,124Z" opacity="0.2"/><path d="M248,124a56.11,56.11,0,0,0-32-50.61V72a48,48,0,0,0-88-26.49A48,48,0,0,0,40,72v1.39a56,56,0,0,0,0,101.2V176a48,48,0,0,0,88,26.49A48,48,0,0,0,216,176v-1.41A56.09,56.09,0,0,0,248,124ZM88,208a32,32,0,0,1-31.81-28.56A55.87,55.87,0,0,0,64,180h8a8,8,0,0,0,0-16H64A40,40,0,0,1,50.67,86.27,8,8,0,0,0,56,78.73V72a32,32,0,0,1,64,0v68.26A47.8,47.8,0,0,0,88,128a8,8,0,0,0,0,16,32,32,0,0,1,0,64Zm104-44h-8a8,8,0,0,0,0,16h8a55.87,55.87,0,0,0,7.81-.56A32,32,0,1,1,168,144a8,8,0,0,0,0-16,47.8,47.8,0,0,0-32,12.26V72a32,32,0,0,1,64,0v6.73a8,8,0,0,0,5.33,7.54A40,40,0,0,1,192,164Zm16-52a8,8,0,0,1-8,8h-4a36,36,0,0,1-36-36V80a8,8,0,0,1,16,0v4a20,20,0,0,0,20,20h4A8,8,0,0,1,208,112ZM60,120H56a8,8,0,0,1,0-16h4A20,20,0,0,0,80,84V80a8,8,0,0,1,16,0v4A36,36,0,0,1,60,120Z"/></g>
<text x="328.5" y="326" font-size="15" class="lbl" fill="#0d47a1" text-anchor="middle"><tspan x="328.5" dy="0">共享 VLM 只 prefill 一</tspan><tspan x="328.5" dy="20">次</tspan></text>
<text x="328.5" y="356" font-size="12" fill="#5f6b7a" text-anchor="middle">(pi0.5 权重完全冻结, 零</text>
<rect x="198.5" y="497.5" width="264" height="138" rx="14" fill="#37474f" opacity="0.13"/>
<rect x="196" y="494" width="264" height="138" rx="14" fill="url(#g-mem)" stroke="#b8860b" stroke-width="2.0"/>
<circle cx="328.0" cy="494" r="24" fill="#ffffff" stroke="#b8860b" stroke-width="1.8"/>
<circle cx="328.0" cy="494" r="27.5" fill="none" stroke="#b8860b" stroke-width="1" opacity="0.35"/>
<g transform="translate(314.5,480.5) scale(0.1055)"><path d="M176,80v96H80V80Z" opacity="0.2"/><path d="M224,40V80a8,8,0,0,1-16,0V48H176a8,8,0,0,1,0-16h40A8,8,0,0,1,224,40ZM80,208H48V176a8,8,0,0,0-16,0v40a8,8,0,0,0,8,8H80a8,8,0,0,0,0-16Zm136-40a8,8,0,0,0-8,8v32H176a8,8,0,0,0,0,16h40a8,8,0,0,0,8-8V176A8,8,0,0,0,216,168ZM40,88a8,8,0,0,0,8-8V48H80a8,8,0,0,0,0-16H40a8,8,0,0,0-8,8V80A8,8,0,0,0,40,88ZM80,72h96a8,8,0,0,1,8,8v96a8,8,0,0,1-8,8H80a8,8,0,0,1-8-8V80A8,8,0,0,1,80,72Zm8,96h80V88H88Z"/></g>
<text x="328.0" y="550" font-size="15" class="lbl" fill="#8a6d00" text-anchor="middle"><tspan x="328.0" dy="0">K_t: 模态无关 KV cache</tspan><tspan x="328.0" dy="20">只编码观测本身, 两类专</tspan></text>
<text x="328.0" y="580" font-size="12" fill="#5f6b7a" text-anchor="middle">家共享</text>
<rect x="54.5" y="721.5" width="253" height="138" rx="14" fill="#37474f" opacity="0.13"/>
<rect x="52" y="718" width="253" height="138" rx="14" fill="url(#g-frozen)" stroke="#1565c0" stroke-width="2.0"/>
<circle cx="178.5" cy="718" r="24" fill="#ffffff" stroke="#1565c0" stroke-width="1.8"/>
<circle cx="178.5" cy="718" r="27.5" fill="none" stroke="#1565c0" stroke-width="1" opacity="0.35"/>
<g transform="translate(165.0,704.5) scale(1.1250)">
  <path d="M12.83 2.18a2 2 0 0 0-1.66 0L2.6 6.08a1 1 0 0 0 0 1.83l8.58 3.91a2 2 0 0 0 1.66 0l8.58-3.9a1 1 0 0 0 0-1.83z" />
  <path d="M2 12a1 1 0 0 0 .58.91l8.6 3.91a2 2 0 0 0 1.65 0l8.58-3.9A1 1 0 0 0 22 12" />
  <path d="M2 17a1 1 0 0 0 .58.91l8.6 3.91a2 2 0 0 0 1.65 0l8.58-3.9A1 1 0 0 0 22 17" />
</g>
<text x="178.5" y="774" font-size="15" class="lbl" fill="#0d47a1" text-anchor="middle"><tspan x="178.5" dy="0">动作专家: 只读 K_t</tspan><tspan x="178.5" dy="20">S = 10 步去噪 -&gt; 动作</tspan></text>
<text x="178.5" y="804" font-size="12" fill="#5f6b7a" text-anchor="middle">块 A_t</text>
<rect x="345.5" y="721.5" width="261" height="138" rx="14" fill="#37474f" opacity="0.13"/>
<rect x="343" y="718" width="261" height="138" rx="14" fill="url(#g-mem)" stroke="#b8860b" stroke-width="2.0"/>
<circle cx="473.5" cy="718" r="24" fill="#ffffff" stroke="#b8860b" stroke-width="1.8"/>
<circle cx="473.5" cy="718" r="27.5" fill="none" stroke="#b8860b" stroke-width="1" opacity="0.35"/>
<g transform="translate(460.0,704.5) scale(1.1250)">
  <path d="M22 17a2 2 0 0 1-2 2H6.828a2 2 0 0 0-1.414.586l-2.202 2.202A.71.71 0 0 1 2 21.286V5a2 2 0 0 1 2-2h16a2 2 0 0 1 2 2z" />
</g>
<text x="473.5" y="774" font-size="15" class="lbl" fill="#8a6d00" text-anchor="middle"><tspan x="473.5" dy="0">语言可恢复状态</tspan><tspan x="473.5" dy="20">sigma_t = (K_t, y_t, </tspan></text>
<text x="473.5" y="804" font-size="12" fill="#5f6b7a" text-anchor="middle">delta_t)</text>
<rect x="74.5" y="49.5" width="259" height="138" rx="14" fill="#37474f" opacity="0.13"/>
<rect x="72" y="46" width="259" height="138" rx="14" fill="url(#g-data)" stroke="#2e7d32" stroke-width="2.0"/>
<circle cx="201.5" cy="46" r="24" fill="#ffffff" stroke="#2e7d32" stroke-width="1.8"/>
<circle cx="201.5" cy="46" r="27.5" fill="none" stroke="#2e7d32" stroke-width="1" opacity="0.35"/>
<g transform="translate(188.0,32.5) scale(1.1250)">
  <path d="M22 17a2 2 0 0 1-2 2H6.828a2 2 0 0 0-1.414.586l-2.202 2.202A.71.71 0 0 1 2 21.286V5a2 2 0 0 1 2-2h16a2 2 0 0 1 2 2z" />
</g>
<text x="201.5" y="102" font-size="15" class="lbl" fill="#1b5e20" text-anchor="middle"><tspan x="201.5" dy="0">历史帧在飞语言请求</tspan><tspan x="201.5" dy="20">t-1, t-2, ... 的 sigm</tspan></text>
<text x="201.5" y="132" font-size="12" fill="#5f6b7a" text-anchor="middle">a</text>
<rect x="350.5" y="945.5" width="262" height="138" rx="14" fill="#37474f" opacity="0.13"/>
<rect x="348" y="942" width="262" height="138" rx="14" fill="url(#g-key)" stroke="#ef6c00" stroke-width="3.2"/>
<circle cx="479.0" cy="942" r="24" fill="#ffffff" stroke="#ef6c00" stroke-width="1.8"/>
<circle cx="479.0" cy="942" r="27.5" fill="none" stroke="#ef6c00" stroke-width="1" opacity="0.35"/>
<g transform="translate(465.5,928.5) scale(1.1250)">
  <path d="m21 21-4.34-4.34" />
  <circle cx="11" cy="11" r="8" />
</g>
<text x="479.0" y="998" font-size="15" class="lbl" fill="#9a4d00" text-anchor="middle"><tspan x="479.0" dy="0">统一 KV cache 管理器 M</tspan><tspan x="479.0" dy="20">Store / Retrieve / Up</tspan></text>
<text x="479.0" y="1028" font-size="12" fill="#5f6b7a" text-anchor="middle">date / Remove</text>
<rect x="196.5" y="1169.5" width="269" height="138" rx="14" fill="#37474f" opacity="0.13"/>
<rect x="194" y="1166" width="269" height="138" rx="14" fill="url(#g-key)" stroke="#ef6c00" stroke-width="3.2"/>
<circle cx="328.5" cy="1166" r="24" fill="#ffffff" stroke="#ef6c00" stroke-width="1.8"/>
<circle cx="328.5" cy="1166" r="27.5" fill="none" stroke="#ef6c00" stroke-width="1" opacity="0.35"/>
<g transform="translate(315.0,1152.5) scale(0.1055)"><path d="M176,80v96H80V80Z" opacity="0.2"/><path d="M224,40V80a8,8,0,0,1-16,0V48H176a8,8,0,0,1,0-16h40A8,8,0,0,1,224,40ZM80,208H48V176a8,8,0,0,0-16,0v40a8,8,0,0,0,8,8H80a8,8,0,0,0,0-16Zm136-40a8,8,0,0,0-8,8v32H176a8,8,0,0,0,0,16h40a8,8,0,0,0,8-8V176A8,8,0,0,0,216,168ZM40,88a8,8,0,0,0,8-8V48H80a8,8,0,0,0,0-16H40a8,8,0,0,0-8,8V80A8,8,0,0,0,40,88ZM80,72h96a8,8,0,0,1,8,8v96a8,8,0,0,1-8,8H80a8,8,0,0,1-8-8V80A8,8,0,0,1,80,72Zm8,96h80V88H88Z"/></g>
<text x="328.5" y="1222" font-size="15" class="lbl" fill="#9a4d00" text-anchor="middle"><tspan x="328.5" dy="0">Retrieve + Batch</tspan><tspan x="328.5" dy="20">m 个活跃状态沿 batch 维</tspan></text>
<text x="328.5" y="1252" font-size="12" fill="#5f6b7a" text-anchor="middle">堆成 sigma_hat</text>
<rect x="198.5" y="1393.5" width="265" height="138" rx="14" fill="#37474f" opacity="0.13"/>
<rect x="196" y="1390" width="265" height="138" rx="14" fill="url(#g-key)" stroke="#ef6c00" stroke-width="3.2"/>
<circle cx="328.5" cy="1390" r="24" fill="#ffffff" stroke="#ef6c00" stroke-width="1.8"/>
<circle cx="328.5" cy="1390" r="27.5" fill="none" stroke="#ef6c00" stroke-width="1" opacity="0.35"/>
<g transform="translate(315.0,1376.5) scale(1.1250)">
  <path d="M4 14a1 1 0 0 1-.78-1.63l9.9-10.2a.5.5 0 0 1 .86.46l-1.92 6.02A1 1 0 0 0 13 10h7a1 1 0 0 1 .78 1.63l-9.9 10.2a.5.5 0 0 1-.86-.46l1.92-6.02A1 1 0 0 0 11 14z" />
</g>
<text x="328.5" y="1446" font-size="15" class="lbl" fill="#9a4d00" text-anchor="middle"><tspan x="328.5" dy="0">跨帧连续批解码</tspan><tspan x="328.5" dy="20">每帧为全部请求解 k 个 t</tspan></text>
<text x="328.5" y="1476" font-size="12" fill="#5f6b7a" text-anchor="middle">oken</text>
<rect x="345.5" y="1617.5" width="266" height="138" rx="14" fill="#37474f" opacity="0.13"/>
<rect x="343" y="1614" width="266" height="138" rx="14" fill="url(#g-loop)" stroke="#546e7a" stroke-width="2.0"/>
<circle cx="476.0" cy="1614" r="24" fill="#ffffff" stroke="#546e7a" stroke-width="1.8"/>
<circle cx="476.0" cy="1614" r="27.5" fill="none" stroke="#546e7a" stroke-width="1" opacity="0.35"/>
<g transform="translate(462.5,1600.5) scale(1.1250)">
  <path d="M3 12a9 9 0 0 1 9-9 9.75 9.75 0 0 1 6.74 2.74L21 8" />
  <path d="M21 3v5h-5" />
  <path d="M21 12a9 9 0 0 1-9 9 9.75 9.75 0 0 1-6.74-2.74L3 16" />
  <path d="M8 16H3v5" />
</g>
<text x="476.0" y="1670" font-size="15" class="lbl" fill="#37474f" text-anchor="middle"><tspan x="476.0" dy="0">UnBatch: 完成则 Remove</tspan><tspan x="476.0" dy="20"> (delta=1)</tspan></text>
<text x="476.0" y="1700" font-size="12" fill="#5f6b7a" text-anchor="middle">未完成则 Update 持久化</text>
<rect x="48.5" y="945.5" width="264" height="138" rx="14" fill="#37474f" opacity="0.13"/>
<rect x="46" y="942" width="264" height="138" rx="14" fill="url(#g-act)" stroke="#6a1b9a" stroke-width="2.0"/>
<circle cx="178.0" cy="942" r="24" fill="#ffffff" stroke="#6a1b9a" stroke-width="1.8"/>
<circle cx="178.0" cy="942" r="27.5" fill="none" stroke="#6a1b9a" stroke-width="1" opacity="0.35"/>
<g transform="translate(164.5,928.5) scale(1.1250)">
  <path d="M12 8V4H8" />
  <rect width="16" height="12" x="4" y="8" rx="2" />
  <path d="M2 14h2" />
  <path d="M20 14h2" />
  <path d="M15 13v2" />
  <path d="M9 13v2" />
</g>
<text x="178.0" y="998" font-size="15" class="lbl" fill="#4a148c" text-anchor="middle"><tspan x="178.0" dy="0">机器人动作 60-70 Hz</tspan><tspan x="178.0" dy="20">关键路径 198 ms &lt; 333 </tspan></text>
<text x="178.0" y="1028" font-size="12" fill="#5f6b7a" text-anchor="middle">ms 执行窗口</text>
<rect x="49.5" y="1633.5" width="258" height="105" rx="14" fill="#37474f" opacity="0.13"/>
<rect x="47" y="1630" width="258" height="105" rx="14" fill="url(#g-act)" stroke="#6a1b9a" stroke-width="2.0"/>
<circle cx="176.0" cy="1630" r="24" fill="#ffffff" stroke="#6a1b9a" stroke-width="1.8"/>
<circle cx="176.0" cy="1630" r="27.5" fill="none" stroke="#6a1b9a" stroke-width="1" opacity="0.35"/>
<g transform="translate(162.5,1616.5) scale(1.1250)">
  <path d="M22 17a2 2 0 0 1-2 2H6.828a2 2 0 0 0-1.414.586l-2.202 2.202A.71.71 0 0 1 2 21.286V5a2 2 0 0 1 2-2h16a2 2 0 0 1 2 2z" />
</g>
<text x="176.0" y="1686" font-size="15" class="lbl" fill="#4a148c" text-anchor="middle"><tspan x="176.0" dy="0">语言 token 200+ tok/s</tspan><tspan x="176.0" dy="20">藏在动作执行窗口之后</tspan></text>
<g transform="translate(505.2,2213.2)"><rect x="-87.5" y="-11" width="175.0" height="22" rx="11" fill="#ffffff" stroke="#1565c0" stroke-width="1.2"/><text y="4" font-size="12" fill="#1565c0" font-weight="600" text-anchor="middle">&quot;断点续传, 跨帧无损续跑&quot;</text></g>
<text x="40" y="1872.5" font-size="12" fill="#78909c">图例</text>
<g><rect x="86" y="1858" width="86.76" height="22" rx="11" fill="url(#g-act)" stroke="#6a1b9a" stroke-width="1.3"/><circle cx="99" cy="1869" r="4.2" fill="#6a1b9a"/><text x="110" y="1873" font-size="11.5" fill="#4a148c">动作生成</text></g>
<g><rect x="184.76" y="1858" width="93.43" height="22" rx="11" fill="url(#g-data)" stroke="#2e7d32" stroke-width="1.3"/><circle cx="197.76" cy="1869" r="4.2" fill="#2e7d32"/><text x="208.76" y="1873" font-size="11.5" fill="#1b5e20">数据/输入</text></g>
<g><rect x="290.19" y="1858" width="86.76" height="22" rx="11" fill="url(#g-frozen)" stroke="#1565c0" stroke-width="1.3"/><circle cx="303.19" cy="1869" r="4.2" fill="#1565c0"/><text x="314.19" y="1873" font-size="11.5" fill="#0d47a1">冻结模块</text></g>
<g><rect x="388.95" y="1858" width="86.76" height="22" rx="11" fill="url(#g-key)" stroke="#ef6c00" stroke-width="1.3"/><circle cx="401.95" cy="1869" r="4.2" fill="#ef6c00"/><text x="412.95" y="1873" font-size="11.5" fill="#9a4d00">关键组件</text></g>
<g><rect x="487.71" y="1858" width="93.43" height="22" rx="11" fill="url(#g-loop)" stroke="#546e7a" stroke-width="1.3"/><circle cx="500.71" cy="1869" r="4.2" fill="#546e7a"/><text x="511.71" y="1873" font-size="11.5" fill="#37474f">循环/反馈</text></g>
<g><rect x="593.14" y="1858" width="62.38" height="22" rx="11" fill="url(#g-mem)" stroke="#b8860b" stroke-width="1.3"/><circle cx="606.14" cy="1869" r="4.2" fill="#b8860b"/><text x="617.14" y="1873" font-size="11.5" fill="#8a6d00">记忆</text></g>
<text x="40" y="1912" font-size="11.5" fill="#78909c">线型</text>
<g><path d="M 80 1908 h 44" stroke="#546e7a" stroke-width="3.2" marker-end="url(#arr-main)"/><text x="132" y="1912" font-size="11.5" fill="#546e7a">信息流</text></g>
<g><path d="M 200.57 1908 h 44" stroke="#1565c0" stroke-width="2.8" stroke-dasharray="12 7" marker-end="url(#arr-fb)"/><text x="252.57" y="1912" font-size="11.5" fill="#1565c0">闭环反馈</text></g>
<g><path d="M 333.33 1908 h 44" stroke="#263238" stroke-width="4.4" marker-end="url(#arr-thick)"/><text x="385.33" y="1912" font-size="11.5" fill="#263238">主数据流</text></g>
</svg>