<svg xmlns="http://www.w3.org/2000/svg" width="2635" height="462" viewBox="0 0 2635 462" font-family="'PingFang SC','Hiragino Sans GB','Microsoft YaHei','Segoe UI',sans-serif">
<style>text{font-family:'PingFang SC','Hiragino Sans GB','Microsoft YaHei','Segoe UI',sans-serif;} .lbl{font-weight:700;}</style>
<defs>
<linearGradient id="g-data" x1="0" y1="0" x2="0" y2="1"><stop offset="0" stop-color="#f1f9f1"/><stop offset="1" stop-color="#e2f0e2"/></linearGradient>
<linearGradient id="g-frozen" x1="0" y1="0" x2="0" y2="1"><stop offset="0" stop-color="#f0f7fe"/><stop offset="1" stop-color="#dcecfb"/></linearGradient>
<linearGradient id="g-train" x1="0" y1="0" x2="0" y2="1"><stop offset="0" stop-color="#fff6e8"/><stop offset="1" stop-color="#ffedd4"/></linearGradient>
<linearGradient id="g-loss" x1="0" y1="0" x2="0" y2="1"><stop offset="0" stop-color="#fdf0f1"/><stop offset="1" stop-color="#f9e0e2"/></linearGradient>
<linearGradient id="g-act" x1="0" y1="0" x2="0" y2="1"><stop offset="0" stop-color="#f8f1fb"/><stop offset="1" stop-color="#f0e4f7"/></linearGradient>
<linearGradient id="g-loop" x1="0" y1="0" x2="0" y2="1"><stop offset="0" stop-color="#f2f5f7"/><stop offset="1" stop-color="#e6ebee"/></linearGradient>
<linearGradient id="g-env" x1="0" y1="0" x2="0" y2="1"><stop offset="0" stop-color="#eef8f6"/><stop offset="1" stop-color="#dcf0ec"/></linearGradient>
<linearGradient id="g-mem" x1="0" y1="0" x2="0" y2="1"><stop offset="0" stop-color="#fffef0"/><stop offset="1" stop-color="#fdf6d8"/></linearGradient>
<linearGradient id="g-reward" x1="0" y1="0" x2="0" y2="1"><stop offset="0" stop-color="#fdf2f7"/><stop offset="1" stop-color="#f9e2ed"/></linearGradient>
<linearGradient id="g-key" x1="0" y1="0" x2="0" y2="1"><stop offset="0" stop-color="#fffaf0"/><stop offset="1" stop-color="#fff1d6"/></linearGradient>
<linearGradient id="g-title" x1="0" y1="0" x2="1" y2="0"><stop offset="0" stop-color="#00695c"/><stop offset="1" stop-color="#1565c0"/></linearGradient>
<marker id="arr-main" viewBox="0 0 10 10" refX="8.5" refY="5" markerWidth="13" markerHeight="13" markerUnits="userSpaceOnUse" orient="auto-start-reverse"><path d="M0 0 L10 5 L0 10 z" fill="#546e7a"/></marker>
<marker id="arr-thick" viewBox="0 0 10 10" refX="8.5" refY="5" markerWidth="13" markerHeight="13" markerUnits="userSpaceOnUse" orient="auto-start-reverse"><path d="M0 0 L10 5 L0 10 z" fill="#263238"/></marker>
<marker id="arr-thin" viewBox="0 0 10 10" refX="8.5" refY="5" markerWidth="13" markerHeight="13" markerUnits="userSpaceOnUse" orient="auto-start-reverse"><path d="M0 0 L10 5 L0 10 z" fill="#9fb0bb"/></marker>
<marker id="arr-fb" viewBox="0 0 10 10" refX="8.5" refY="5" markerWidth="13" markerHeight="13" markerUnits="userSpaceOnUse" orient="auto-start-reverse"><path d="M0 0 L10 5 L0 10 z" fill="#1565c0"/></marker>
<marker id="arr-loss" viewBox="0 0 10 10" refX="8.5" refY="5" markerWidth="13" markerHeight="13" markerUnits="userSpaceOnUse" orient="auto-start-reverse"><path d="M0 0 L10 5 L0 10 z" fill="#c62828"/></marker>
</defs>
<rect width="2635" height="462" fill="#ffffff"/>
<rect x="34" y="30" width="5" height="42" rx="2.5" fill="url(#g-title)"/>
<text x="52" y="52" font-size="25" font-weight="800" fill="#1a2733">egoexo-wm</text>
<text x="52" y="74" font-size="13.5" fill="#78909c">ego 世界模型被「ego 数据稀缺 + ego 视角身体大部分不可见（动作标注难）」双重卡死的问题，被 EgoExo-WM 用「3D 人体姿态当桥」解决：从海量第三方视角视频</text>
<text x="2601" y="444" font-size="11.5" fill="#a0aab4" text-anchor="end">egoexo-wm · arXiv 2605.15477 · v3 auto</text>
<rect x="20" y="86" width="1445" height="306" rx="18" fill="#fbfdff" stroke="#b7c6d6" stroke-width="1.4" stroke-dasharray="8 5"/>
<rect x="36" y="99" width="229.0" height="26" rx="13" fill="#eef3f8" stroke="#b7c6d6"/>
<text x="47" y="116" font-size="12.5" fill="#4a6579">互联网 exo 视频转化为 ego 母语</text>
<path d="M 269.0 192.0 L 335.0 193.0" fill="none" stroke="#546e7a" stroke-width="3.2" marker-end="url(#arr-main)" opacity="0.92"/>
<path d="M 269.0 192.0 L 304.5 192.0 L 304.5 326.0 L 340.0 326.0" fill="none" stroke="#546e7a" stroke-width="3.2" marker-end="url(#arr-main)" opacity="0.92"/>
<path d="M 553.0 193.0 L 586.0 193.0 L 586.0 251.0 L 619.0 251.0" fill="none" stroke="#263238" stroke-width="4.4" marker-end="url(#arr-thick)" opacity="0.92"/>
<path d="M 547.0 326.0 L 583.0 326.0 L 583.0 251.0 L 619.0 251.0" fill="none" stroke="#263238" stroke-width="4.4" marker-end="url(#arr-thick)" opacity="0.92"/>
<path d="M 852.0 251.0 L 918.0 251.0" fill="none" stroke="#263238" stroke-width="4.4" marker-end="url(#arr-thick)" opacity="0.92"/>
<path d="M 1148.0 251.0 L 1214.0 251.0" fill="none" stroke="#263238" stroke-width="4.4" marker-end="url(#arr-thick)" opacity="0.92"/>
<path d="M 553.0 193.0 L 906.0 193.0 L 906.0 250.5 L 1507.0 250.5" fill="none" stroke="#263238" stroke-width="4.4" marker-end="url(#arr-thick)" opacity="0.92"/>
<path d="M 1441.0 251.0 L 1507.0 250.5" fill="none" stroke="#263238" stroke-width="4.4" marker-end="url(#arr-thick)" opacity="0.92"/>
<path d="M 266.0 308.5 L 886.5 308.5 L 886.5 250.5 L 1507.0 250.5" fill="none" stroke="#263238" stroke-width="4.4" marker-end="url(#arr-thick)" opacity="0.92"/>
<path d="M 1716.0 250.5 L 1768.0 250.5 L 1768.0 193.0 L 1820.0 193.0" fill="none" stroke="#1565c0" stroke-width="2.8" stroke-dasharray="12 7" marker-end="url(#arr-fb)" opacity="0.92"/>
<path d="M 1716.0 250.5 L 1749.0 250.5 L 1749.0 309.0 L 1782.0 309.0" fill="none" stroke="#263238" stroke-width="4.4" marker-end="url(#arr-thick)" opacity="0.92"/>
<path d="M 1997.0 309.0 L 2030.0 309.0 L 2030.0 251.0 L 2063.0 251.0" fill="none" stroke="#263238" stroke-width="4.4" marker-end="url(#arr-thick)" opacity="0.92"/>
<path d="M 2298.0 251.0 L 2364.0 251.0" fill="none" stroke="#263238" stroke-width="4.4" marker-end="url(#arr-thick)" opacity="0.92"/>
<rect x="46.5" y="149.5" width="225" height="92" rx="14" fill="#37474f" opacity="0.13"/>
<rect x="44" y="146" width="225" height="92" rx="14" fill="url(#g-data)" stroke="#2e7d32" stroke-width="2.0"/>
<circle cx="156.5" cy="146" r="24" fill="#ffffff" stroke="#2e7d32" stroke-width="1.8"/>
<circle cx="156.5" cy="146" r="27.5" fill="none" stroke="#2e7d32" stroke-width="1" opacity="0.35"/>
<g transform="translate(143.0,132.5) scale(0.1055)"><path d="M216,80c0,26.51-39.4,48-88,48S40,106.51,40,80s39.4-48,88-48S216,53.49,216,80Z" opacity="0.2"/><path d="M128,24C74.17,24,32,48.6,32,80v96c0,31.4,42.17,56,96,56s96-24.6,96-56V80C224,48.6,181.83,24,128,24Zm80,104c0,9.62-7.88,19.43-21.61,26.92C170.93,163.35,150.19,168,128,168s-42.93-4.65-58.39-13.08C55.88,147.43,48,137.62,48,128V111.36c17.06,15,46.23,24.64,80,24.64s62.94-9.68,80-24.64ZM69.61,53.08C85.07,44.65,105.81,40,128,40s42.93,4.65,58.39,13.08C200.12,60.57,208,70.38,208,80s-7.88,19.43-21.61,26.92C170.93,115.35,150.19,120,128,120s-42.93-4.65-58.39-13.08C55.88,99.43,48,89.62,48,80S55.88,60.57,69.61,53.08ZM186.39,202.92C170.93,211.35,150.19,216,128,216s-42.93-4.65-58.39-13.08C55.88,195.43,48,185.62,48,176V159.36c17.06,15,46.23,24.64,80,24.64s62.94-9.68,80-24.64V176C208,185.62,200.12,195.43,186.39,202.92Z"/></g>
<text x="156.5" y="197" font-size="16" class="lbl" fill="#1b5e20" text-anchor="middle">Exo 互联网视频&lt;br/</text>
<rect x="337.5" y="133.5" width="218" height="126" rx="14" fill="#37474f" opacity="0.13"/>
<rect x="335" y="130" width="218" height="126" rx="14" fill="url(#g-key)" stroke="#ef6c00" stroke-width="3.2"/>
<circle cx="444.0" cy="130" r="24" fill="#ffffff" stroke="#ef6c00" stroke-width="1.8"/>
<circle cx="444.0" cy="130" r="27.5" fill="none" stroke="#ef6c00" stroke-width="1" opacity="0.35"/>
<g transform="translate(430.5,116.5) scale(1.1250)">
  <path d="M11.017 2.814a1 1 0 0 1 1.966 0l1.051 5.558a2 2 0 0 0 1.594 1.594l5.558 1.051a1 1 0 0 1 0 1.966l-5.558 1.051a2 2 0 0 0-1.594 1.594l-1.051 5.558a1 1 0 0 1-1.966 0l-1.051-5.558a2 2 0 0 0-1.594-1.594l-5.558-1.051a1 1 0 0 1 0-1.966l5.558-1.051a2 2 0 0 0 1.594-1.594z" />
  <path d="M20 2v4" />
  <path d="M22 4h-4" />
  <circle cx="4" cy="20" r="2" />
</g>
<text x="444.0" y="174" font-size="15" class="lbl" fill="#9a4d00" text-anchor="middle"><tspan x="444.0" dy="0">SAM-Body4D 人体姿</tspan><tspan x="444.0" dy="20">态</tspan></text>
<text x="444.0" y="204" font-size="12" fill="#5f6b7a" text-anchor="middle">MHR -&gt; SMPL-X</text>
<rect x="342.5" y="283.5" width="207" height="92" rx="14" fill="#37474f" opacity="0.13"/>
<rect x="340" y="280" width="207" height="92" rx="14" fill="url(#g-train)" stroke="#ef6c00" stroke-width="3.2"/>
<circle cx="443.5" cy="280" r="24" fill="#ffffff" stroke="#ef6c00" stroke-width="1.8"/>
<circle cx="443.5" cy="280" r="27.5" fill="none" stroke="#ef6c00" stroke-width="1" opacity="0.35"/>
<g transform="translate(430.0,266.5) scale(0.1055)"><path d="M200,48H56a8,8,0,0,0-8,8V200a8,8,0,0,0,8,8H200a8,8,0,0,0,8-8V56A8,8,0,0,0,200,48ZM152,152H104V104h48Z" opacity="0.2"/><path d="M152,96H104a8,8,0,0,0-8,8v48a8,8,0,0,0,8,8h48a8,8,0,0,0,8-8V104A8,8,0,0,0,152,96Zm-8,48H112V112h32Zm88,0H216V112h16a8,8,0,0,0,0-16H216V56a16,16,0,0,0-16-16H160V24a8,8,0,0,0-16,0V40H112V24a8,8,0,0,0-16,0V40H56A16,16,0,0,0,40,56V96H24a8,8,0,0,0,0,16H40v32H24a8,8,0,0,0,0,16H40v40a16,16,0,0,0,16,16H96v16a8,8,0,0,0,16,0V216h32v16a8,8,0,0,0,16,0V216h40a16,16,0,0,0,16-16V160h16a8,8,0,0,0,0-16Zm-32,56H56V56H200v95.87s0,.09,0,.13,0,.09,0,.13V200Z"/></g>
<text x="443.5" y="331" font-size="16" class="lbl" fill="#b34700" text-anchor="middle">ViPE 4D 场景重建</text>
<rect x="621.5" y="191.5" width="233" height="126" rx="14" fill="#37474f" opacity="0.13"/>
<rect x="619" y="188" width="233" height="126" rx="14" fill="url(#g-key)" stroke="#ef6c00" stroke-width="3.2"/>
<circle cx="735.5" cy="188" r="24" fill="#ffffff" stroke="#ef6c00" stroke-width="1.8"/>
<circle cx="735.5" cy="188" r="27.5" fill="none" stroke="#ef6c00" stroke-width="1" opacity="0.35"/>
<g transform="translate(722.0,174.5) scale(1.1250)">
  <path d="m18 14 4 4-4 4" />
  <path d="m18 2 4 4-4 4" />
  <path d="M2 18h1.973a4 4 0 0 0 3.3-1.7l5.454-8.6a4 4 0 0 1 3.3-1.7H22" />
  <path d="M2 6h1.972a4 4 0 0 1 3.6 2.2" />
  <path d="M22 18h-6.041a4 4 0 0 1-3.3-1.8l-.359-.45" />
</g>
<text x="735.5" y="232" font-size="15" class="lbl" fill="#9a4d00" text-anchor="middle"><tspan x="735.5" dy="0">EgoX-Body 转换器</tspan><tspan x="735.5" dy="20">骨架叠加 + ego 手部</tspan></text>
<text x="735.5" y="262" font-size="12" fill="#5f6b7a" text-anchor="middle">先验</text>
<rect x="920.5" y="191.5" width="230" height="126" rx="14" fill="#37474f" opacity="0.13"/>
<rect x="918" y="188" width="230" height="126" rx="14" fill="url(#g-data)" stroke="#2e7d32" stroke-width="2.0"/>
<circle cx="1033.0" cy="188" r="24" fill="#ffffff" stroke="#2e7d32" stroke-width="1.8"/>
<circle cx="1033.0" cy="188" r="27.5" fill="none" stroke="#2e7d32" stroke-width="1" opacity="0.35"/>
<g transform="translate(1019.5,174.5) scale(0.1055)"><path d="M216,80c0,26.51-39.4,48-88,48S40,106.51,40,80s39.4-48,88-48S216,53.49,216,80Z" opacity="0.2"/><path d="M128,24C74.17,24,32,48.6,32,80v96c0,31.4,42.17,56,96,56s96-24.6,96-56V80C224,48.6,181.83,24,128,24Zm80,104c0,9.62-7.88,19.43-21.61,26.92C170.93,163.35,150.19,168,128,168s-42.93-4.65-58.39-13.08C55.88,147.43,48,137.62,48,128V111.36c17.06,15,46.23,24.64,80,24.64s62.94-9.68,80-24.64ZM69.61,53.08C85.07,44.65,105.81,40,128,40s42.93,4.65,58.39,13.08C200.12,60.57,208,70.38,208,80s-7.88,19.43-21.61,26.92C170.93,115.35,150.19,120,128,120s-42.93-4.65-58.39-13.08C55.88,99.43,48,89.62,48,80S55.88,60.57,69.61,53.08ZM186.39,202.92C170.93,211.35,150.19,216,128,216s-42.93-4.65-58.39-13.08C55.88,195.43,48,185.62,48,176V159.36c17.06,15,46.23,24.64,80,24.64s62.94-9.68,80-24.64V176C208,185.62,200.12,195.43,186.39,202.92Z"/></g>
<text x="1033.0" y="232" font-size="15" class="lbl" fill="#1b5e20" text-anchor="middle"><tspan x="1033.0" dy="0">时域降采样 16-&gt;8Hz</tspan><tspan x="1033.0" dy="20">裁剪 85%, resize 2</tspan></text>
<text x="1033.0" y="262" font-size="12" fill="#5f6b7a" text-anchor="middle">24</text>
<rect x="1216.5" y="191.5" width="227" height="126" rx="14" fill="#37474f" opacity="0.13"/>
<rect x="1214" y="188" width="227" height="126" rx="14" fill="url(#g-frozen)" stroke="#1565c0" stroke-width="2.0"/>
<circle cx="1327.5" cy="188" r="24" fill="#ffffff" stroke="#1565c0" stroke-width="1.8"/>
<circle cx="1327.5" cy="188" r="27.5" fill="none" stroke="#1565c0" stroke-width="1" opacity="0.35"/>
<g transform="translate(1314.0,174.5) scale(0.1055)"><path d="M128,56C48,56,16,128,16,128s32,72,112,72,112-72,112-72S208,56,128,56Zm0,112a40,40,0,1,1,40-40A40,40,0,0,1,128,168Z" opacity="0.2"/><path d="M247.31,124.76c-.35-.79-8.82-19.58-27.65-38.41C194.57,61.26,162.88,48,128,48S61.43,61.26,36.34,86.35C17.51,105.18,9,124,8.69,124.76a8,8,0,0,0,0,6.5c.35.79,8.82,19.57,27.65,38.4C61.43,194.74,93.12,208,128,208s66.57-13.26,91.66-38.34c18.83-18.83,27.3-37.61,27.65-38.4A8,8,0,0,0,247.31,124.76ZM128,192c-30.78,0-57.67-11.19-79.93-33.25A133.47,133.47,0,0,1,25,128,133.33,133.33,0,0,1,48.07,97.25C70.33,75.19,97.22,64,128,64s57.67,11.19,79.93,33.25A133.46,133.46,0,0,1,231.05,128C223.84,141.46,192.43,192,128,192Zm0-112a48,48,0,1,0,48,48A48.05,48.05,0,0,0,128,80Zm0,80a32,32,0,1,1,32-32A32,32,0,0,1,128,160Z"/></g>
<text x="1327.5" y="232" font-size="15" class="lbl" fill="#0d47a1" text-anchor="middle"><tspan x="1327.5" dy="0">冻结 DINOv3-L 编码</tspan><tspan x="1327.5" dy="20">器</tspan></text>
<text x="1327.5" y="262" font-size="12" fill="#5f6b7a" text-anchor="middle">z_t patch tokens</text>
<rect x="1509.5" y="207.5" width="209" height="93" rx="14" fill="#37474f" opacity="0.13"/>
<rect x="1507" y="204" width="209" height="93" rx="14" fill="url(#g-train)" stroke="#ef6c00" stroke-width="3.2"/>
<circle cx="1611.5" cy="204" r="24" fill="#ffffff" stroke="#ef6c00" stroke-width="1.8"/>
<circle cx="1611.5" cy="204" r="27.5" fill="none" stroke="#ef6c00" stroke-width="1" opacity="0.35"/>
<g transform="translate(1598.0,190.5) scale(1.1250)">
  <path stroke="none" d="M0 0h24v24H0z" fill="none" />
  <path d="M10 18a2 2 0 1 0 4 0a2 2 0 1 0 -4 0" />
  <path d="M5 6a2 2 0 1 0 4 0a2 2 0 1 0 -4 0" />
  <path d="M15 6a2 2 0 1 0 4 0a2 2 0 1 0 -4 0" />
  <path d="M7 8v2a2 2 0 0 0 2 2h6a2 2 0 0 0 2 -2v-2" />
  <path d="M12 12l0 4" />
</g>
<text x="1611.5" y="248" font-size="15" class="lbl" fill="#b34700" text-anchor="middle"><tspan x="1611.5" dy="0">世界模型 f_theta</tspan><tspan x="1611.5" dy="20">CDiT-L/2, 可训练</tspan></text>
<rect x="48.5" y="265.5" width="220" height="93" rx="14" fill="#37474f" opacity="0.13"/>
<rect x="46" y="262" width="220" height="93" rx="14" fill="url(#g-data)" stroke="#2e7d32" stroke-width="2.0"/>
<circle cx="156.0" cy="262" r="24" fill="#ffffff" stroke="#2e7d32" stroke-width="1.8"/>
<circle cx="156.0" cy="262" r="27.5" fill="none" stroke="#2e7d32" stroke-width="1" opacity="0.35"/>
<g transform="translate(142.5,248.5) scale(0.1055)"><path d="M216,80c0,26.51-39.4,48-88,48S40,106.51,40,80s39.4-48,88-48S216,53.49,216,80Z" opacity="0.2"/><path d="M128,24C74.17,24,32,48.6,32,80v96c0,31.4,42.17,56,96,56s96-24.6,96-56V80C224,48.6,181.83,24,128,24Zm80,104c0,9.62-7.88,19.43-21.61,26.92C170.93,163.35,150.19,168,128,168s-42.93-4.65-58.39-13.08C55.88,147.43,48,137.62,48,128V111.36c17.06,15,46.23,24.64,80,24.64s62.94-9.68,80-24.64ZM69.61,53.08C85.07,44.65,105.81,40,128,40s42.93,4.65,58.39,13.08C200.12,60.57,208,70.38,208,80s-7.88,19.43-21.61,26.92C170.93,115.35,150.19,120,128,120s-42.93-4.65-58.39-13.08C55.88,99.43,48,89.62,48,80S55.88,60.57,69.61,53.08ZM186.39,202.92C170.93,211.35,150.19,216,128,216s-42.93-4.65-58.39-13.08C55.88,195.43,48,185.62,48,176V159.36c17.06,15,46.23,24.64,80,24.64s62.94-9.68,80-24.64V176C208,185.62,200.12,195.43,186.39,202.92Z"/></g>
<text x="156.0" y="306" font-size="15" class="lbl" fill="#1b5e20" text-anchor="middle"><tspan x="156.0" dy="0">Nymeria 真实 ego </tspan><tspan x="156.0" dy="20">数据&lt;br/</tspan></text>
<rect x="1822.5" y="150.5" width="140" height="92" rx="14" fill="#37474f" opacity="0.13"/>
<rect x="1820" y="147" width="140" height="92" rx="14" fill="url(#g-loss)" stroke="#c62828" stroke-width="2.0" stroke-dasharray="7 4"/>
<circle cx="1890.0" cy="147" r="24" fill="#ffffff" stroke="#c62828" stroke-width="1.8"/>
<circle cx="1890.0" cy="147" r="27.5" fill="none" stroke="#c62828" stroke-width="1" opacity="0.35"/>
<g transform="translate(1876.5,133.5) scale(0.1055)"><path d="M192,48V208H64l64-80L64,48Z" opacity="0.2"/><path d="M184,72V56H80.65l53.6,67a8,8,0,0,1,0,10l-53.6,67H184V184a8,8,0,0,1,16,0v24a8,8,0,0,1-8,8H64a8,8,0,0,1-6.25-13l60-75-60-75A8,8,0,0,1,64,40H192a8,8,0,0,1,8,8V72a8,8,0,0,1-16,0Z"/></g>
<text x="1890.0" y="198" font-size="16" class="lbl" fill="#b71c1c" text-anchor="middle">预测损失</text>
<rect x="1784.5" y="266.5" width="215" height="92" rx="14" fill="#37474f" opacity="0.13"/>
<rect x="1782" y="263" width="215" height="92" rx="14" fill="url(#g-env)" stroke="#00695c" stroke-width="2.0"/>
<circle cx="1889.5" cy="263" r="24" fill="#ffffff" stroke="#00695c" stroke-width="1.8"/>
<circle cx="1889.5" cy="263" r="27.5" fill="none" stroke="#00695c" stroke-width="1" opacity="0.35"/>
<g transform="translate(1876.0,249.5) scale(1.1250)">
  <path d="m18 14 4 4-4 4" />
  <path d="m18 2 4 4-4 4" />
  <path d="M2 18h1.973a4 4 0 0 0 3.3-1.7l5.454-8.6a4 4 0 0 1 3.3-1.7H22" />
  <path d="M2 6h1.972a4 4 0 0 1 3.6 2.2" />
  <path d="M22 18h-6.041a4 4 0 0 1-3.3-1.8l-.359-.45" />
</g>
<text x="1889.5" y="314" font-size="16" class="lbl" fill="#004d40" text-anchor="middle">预测的下一 latent</text>
<rect x="2065.5" y="191.5" width="235" height="126" rx="14" fill="#37474f" opacity="0.13"/>
<rect x="2063" y="188" width="235" height="126" rx="14" fill="url(#g-act)" stroke="#6a1b9a" stroke-width="2.0"/>
<circle cx="2180.5" cy="188" r="24" fill="#ffffff" stroke="#6a1b9a" stroke-width="1.8"/>
<circle cx="2180.5" cy="188" r="27.5" fill="none" stroke="#6a1b9a" stroke-width="1" opacity="0.35"/>
<g transform="translate(2167.0,174.5) scale(1.1250)">
  <path d="m18 14 4 4-4 4" />
  <path d="m18 2 4 4-4 4" />
  <path d="M2 18h1.973a4 4 0 0 0 3.3-1.7l5.454-8.6a4 4 0 0 1 3.3-1.7H22" />
  <path d="M2 6h1.972a4 4 0 0 1 3.6 2.2" />
  <path d="M22 18h-6.041a4 4 0 0 1-3.3-1.8l-.359-.45" />
</g>
<text x="2180.5" y="232" font-size="15" class="lbl" fill="#4a148c" text-anchor="middle"><tspan x="2180.5" dy="0">UniEgoMotion 采样</tspan><tspan x="2180.5" dy="20">N=4 候选, 视野 8 帧</tspan></text>
<text x="2180.5" y="262" font-size="12" fill="#5f6b7a" text-anchor="middle">运动先验负责提议</text>
<rect x="2366.5" y="191.5" width="227" height="126" rx="14" fill="#37474f" opacity="0.13"/>
<rect x="2364" y="188" width="227" height="126" rx="14" fill="url(#g-loop)" stroke="#546e7a" stroke-width="2.0"/>
<circle cx="2477.5" cy="188" r="24" fill="#ffffff" stroke="#546e7a" stroke-width="1.8"/>
<circle cx="2477.5" cy="188" r="27.5" fill="none" stroke="#546e7a" stroke-width="1" opacity="0.35"/>
<g transform="translate(2464.0,174.5) scale(1.1250)">
  <path stroke="none" d="M0 0h24v24H0z" fill="none" />
  <path d="M10 18a2 2 0 1 0 4 0a2 2 0 1 0 -4 0" />
  <path d="M5 6a2 2 0 1 0 4 0a2 2 0 1 0 -4 0" />
  <path d="M15 6a2 2 0 1 0 4 0a2 2 0 1 0 -4 0" />
  <path d="M7 8v2a2 2 0 0 0 2 2h6a2 2 0 0 0 2 -2v-2" />
  <path d="M12 12l0 4" />
</g>
<text x="2477.5" y="232" font-size="15" class="lbl" fill="#37474f" text-anchor="middle"><tspan x="2477.5" dy="0">想象 rollout 2s</tspan><tspan x="2477.5" dy="20">取到目标 latent L2</tspan></text>
<text x="2477.5" y="262" font-size="12" fill="#5f6b7a" text-anchor="middle"> 最小者</text>
<g transform="translate(885.0,149.0)"><rect x="-59.8" y="-11" width="119.6" height="22" rx="11" fill="#ffffff" stroke="#263238" stroke-width="1.2"/><text y="4" font-size="12" fill="#263238" font-weight="600" text-anchor="middle">&quot;合成 ego 视频&quot;</text></g>
<g transform="translate(1001.2,344.5)"><rect x="-102.0" y="-11" width="204.1" height="22" rx="11" fill="#ffffff" stroke="#263238" stroke-width="1.2"/><text y="4" font-size="12" fill="#263238" font-weight="600" text-anchor="middle">&quot;69 维动作 a_t 一份数据两用&quot;</text></g>
<g transform="translate(1768.0,119.8)"><rect x="-99.3" y="-11" width="198.6" height="22" rx="11" fill="#ffffff" stroke="#1565c0" stroke-width="1.2"/><text y="4" font-size="12" fill="#1565c0" font-weight="600" text-anchor="middle">&quot;L_latent + L_wrist 腕部 h</text></g>
<text x="40" y="410.5" font-size="12" fill="#78909c">图例</text>
<g><rect x="86" y="396" width="86.76" height="22" rx="11" fill="url(#g-act)" stroke="#6a1b9a" stroke-width="1.3"/><circle cx="99" cy="407" r="4.2" fill="#6a1b9a"/><text x="110" y="411" font-size="11.5" fill="#4a148c">动作生成</text></g>
<g><rect x="184.76" y="396" width="93.43" height="22" rx="11" fill="url(#g-data)" stroke="#2e7d32" stroke-width="1.3"/><circle cx="197.76" cy="407" r="4.2" fill="#2e7d32"/><text x="208.76" y="411" font-size="11.5" fill="#1b5e20">数据/输入</text></g>
<g><rect x="290.19" y="396" width="62.38" height="22" rx="11" fill="url(#g-env)" stroke="#00695c" stroke-width="1.3"/><circle cx="303.19" cy="407" r="4.2" fill="#00695c"/><text x="314.19" y="411" font-size="11.5" fill="#004d40">环境</text></g>
<g><rect x="364.57" y="396" width="86.76" height="22" rx="11" fill="url(#g-frozen)" stroke="#1565c0" stroke-width="1.3"/><circle cx="377.57" cy="407" r="4.2" fill="#1565c0"/><text x="388.57" y="411" font-size="11.5" fill="#0d47a1">冻结模块</text></g>
<g><rect x="463.33" y="396" width="86.76" height="22" rx="11" fill="url(#g-key)" stroke="#ef6c00" stroke-width="1.3"/><circle cx="476.33" cy="407" r="4.2" fill="#ef6c00"/><text x="487.33" y="411" font-size="11.5" fill="#9a4d00">关键组件</text></g>
<g><rect x="562.09" y="396" width="93.43" height="22" rx="11" fill="url(#g-loop)" stroke="#546e7a" stroke-width="1.3"/><circle cx="575.09" cy="407" r="4.2" fill="#546e7a"/><text x="586.09" y="411" font-size="11.5" fill="#37474f">循环/反馈</text></g>
<g><rect x="667.52" y="396" width="93.43" height="22" rx="11" fill="url(#g-loss)" stroke="#c62828" stroke-width="1.3"/><circle cx="680.52" cy="407" r="4.2" fill="#c62828"/><text x="691.52" y="411" font-size="11.5" fill="#b71c1c">损失/监督</text></g>
<g><rect x="772.95" y="396" width="98.95" height="22" rx="11" fill="url(#g-train)" stroke="#ef6c00" stroke-width="1.3"/><circle cx="785.95" cy="407" r="4.2" fill="#ef6c00"/><text x="796.95" y="411" font-size="11.5" fill="#b34700">可训练模块</text></g>
<text x="40" y="450" font-size="11.5" fill="#78909c">线型</text>
<g><path d="M 80 446 h 44" stroke="#546e7a" stroke-width="3.2" marker-end="url(#arr-main)"/><text x="132" y="450" font-size="11.5" fill="#546e7a">信息流</text></g>
<g><path d="M 200.57 446 h 44" stroke="#263238" stroke-width="4.4" marker-end="url(#arr-thick)"/><text x="252.57" y="450" font-size="11.5" fill="#263238">主数据流</text></g>
<g><path d="M 333.33 446 h 44" stroke="#1565c0" stroke-width="2.8" stroke-dasharray="12 7" marker-end="url(#arr-fb)"/><text x="385.33" y="450" font-size="11.5" fill="#1565c0">闭环反馈</text></g>
</svg>