<svg xmlns="http://www.w3.org/2000/svg" width="659" height="1924" viewBox="0 0 659 1924" font-family="'PingFang SC','Hiragino Sans GB','Microsoft YaHei','Segoe UI',sans-serif">
<style>text{font-family:'PingFang SC','Hiragino Sans GB','Microsoft YaHei','Segoe UI',sans-serif;} .lbl{font-weight:700;}</style>
<defs>
<linearGradient id="g-data" x1="0" y1="0" x2="0" y2="1"><stop offset="0" stop-color="#f1f9f1"/><stop offset="1" stop-color="#e2f0e2"/></linearGradient>
<linearGradient id="g-frozen" x1="0" y1="0" x2="0" y2="1"><stop offset="0" stop-color="#f0f7fe"/><stop offset="1" stop-color="#dcecfb"/></linearGradient>
<linearGradient id="g-train" x1="0" y1="0" x2="0" y2="1"><stop offset="0" stop-color="#fff6e8"/><stop offset="1" stop-color="#ffedd4"/></linearGradient>
<linearGradient id="g-loss" x1="0" y1="0" x2="0" y2="1"><stop offset="0" stop-color="#fdf0f1"/><stop offset="1" stop-color="#f9e0e2"/></linearGradient>
<linearGradient id="g-act" x1="0" y1="0" x2="0" y2="1"><stop offset="0" stop-color="#f8f1fb"/><stop offset="1" stop-color="#f0e4f7"/></linearGradient>
<linearGradient id="g-loop" x1="0" y1="0" x2="0" y2="1"><stop offset="0" stop-color="#f2f5f7"/><stop offset="1" stop-color="#e6ebee"/></linearGradient>
<linearGradient id="g-env" x1="0" y1="0" x2="0" y2="1"><stop offset="0" stop-color="#eef8f6"/><stop offset="1" stop-color="#dcf0ec"/></linearGradient>
<linearGradient id="g-mem" x1="0" y1="0" x2="0" y2="1"><stop offset="0" stop-color="#fffef0"/><stop offset="1" stop-color="#fdf6d8"/></linearGradient>
<linearGradient id="g-reward" x1="0" y1="0" x2="0" y2="1"><stop offset="0" stop-color="#fdf2f7"/><stop offset="1" stop-color="#f9e2ed"/></linearGradient>
<linearGradient id="g-key" x1="0" y1="0" x2="0" y2="1"><stop offset="0" stop-color="#fffaf0"/><stop offset="1" stop-color="#fff1d6"/></linearGradient>
<linearGradient id="g-title" x1="0" y1="0" x2="1" y2="0"><stop offset="0" stop-color="#00695c"/><stop offset="1" stop-color="#1565c0"/></linearGradient>
<marker id="arr-main" viewBox="0 0 10 10" refX="8.5" refY="5" markerWidth="13" markerHeight="13" markerUnits="userSpaceOnUse" orient="auto-start-reverse"><path d="M0 0 L10 5 L0 10 z" fill="#546e7a"/></marker>
<marker id="arr-thick" viewBox="0 0 10 10" refX="8.5" refY="5" markerWidth="13" markerHeight="13" markerUnits="userSpaceOnUse" orient="auto-start-reverse"><path d="M0 0 L10 5 L0 10 z" fill="#263238"/></marker>
<marker id="arr-thin" viewBox="0 0 10 10" refX="8.5" refY="5" markerWidth="13" markerHeight="13" markerUnits="userSpaceOnUse" orient="auto-start-reverse"><path d="M0 0 L10 5 L0 10 z" fill="#9fb0bb"/></marker>
<marker id="arr-fb" viewBox="0 0 10 10" refX="8.5" refY="5" markerWidth="13" markerHeight="13" markerUnits="userSpaceOnUse" orient="auto-start-reverse"><path d="M0 0 L10 5 L0 10 z" fill="#1565c0"/></marker>
<marker id="arr-loss" viewBox="0 0 10 10" refX="8.5" refY="5" markerWidth="13" markerHeight="13" markerUnits="userSpaceOnUse" orient="auto-start-reverse"><path d="M0 0 L10 5 L0 10 z" fill="#c62828"/></marker>
</defs>
<rect width="659" height="1924" fill="#ffffff"/>
<rect x="34" y="30" width="5" height="42" rx="2.5" fill="url(#g-title)"/>
<text x="52" y="52" font-size="25" font-weight="800" fill="#1a2733">openclaw-rl</text>
<text x="52" y="74" font-size="13.5" fill="#78909c">把 agent 每次交互自然产生的**下一状态信号**（next-state signal：用户回复、工具输出、终端或 GUI 状态变化）就地转化为两类互补训练信号——评价性（</text>
<text x="625" y="1906" font-size="11.5" fill="#a0aab4" text-anchor="end">openclaw-rl · arXiv 2603.10165 · v3 auto</text>
<rect x="37" y="0" width="585" height="196" rx="18" fill="#fbfdff" stroke="#b7c6d6" stroke-width="1.4" stroke-dasharray="8 5"/>
<rect x="53" y="13" width="259.25" height="26" rx="13" fill="#eef3f8" stroke="#b7c6d6"/>
<text x="64" y="30" font-size="12.5" fill="#4a6579">Client 侧: 任意 agent 框架即数据源</text>
<rect x="20" y="224" width="619" height="1316" rx="18" fill="#fbfdff" stroke="#b7c6d6" stroke-width="1.4" stroke-dasharray="8 5"/>
<rect x="36" y="237" width="240.0" height="26" rx="13" fill="#eef3f8" stroke="#b7c6d6"/>
<text x="47" y="254" font-size="12.5" fill="#4a6579">RL Server: slime 异步四组件解耦</text>
<path d="M 178.5 157.0 L 178.5 213.5 L 329.0 213.5 L 329.0 270.0" fill="none" stroke="#263238" stroke-width="4.4" marker-end="url(#arr-thick)" opacity="0.92"/>
<path d="M 464.0 174.0 L 464.0 222.0 L 329.0 222.0 L 329.0 270.0" fill="none" stroke="#263238" stroke-width="4.4" marker-end="url(#arr-thick)" opacity="0.92"/>
<path d="M 329.0 398.0 L 329.5 494.0" fill="none" stroke="#263238" stroke-width="4.4" marker-end="url(#arr-thick)" opacity="0.92"/>
<path d="M 329.5 622.0 L 330.0 718.0" fill="none" stroke="#263238" stroke-width="4.4" marker-end="url(#arr-thick)" opacity="0.92"/>
<path d="M 330.0 846.0 L 330.0 894.0 L 179.5 894.0 L 179.5 942.0" fill="none" stroke="#263238" stroke-width="4.4" marker-end="url(#arr-thick)" opacity="0.92"/>
<path d="M 330.0 846.0 L 330.0 894.0 L 482.0 894.0 L 482.0 942.0" fill="none" stroke="#263238" stroke-width="4.4" marker-end="url(#arr-thick)" opacity="0.92"/>
<path d="M 179.5 1070.0 L 179.5 1306.0 L 330.0 1306.0 L 330.0 1390.0" fill="none" stroke="#1565c0" stroke-width="2.8" stroke-dasharray="12 7" marker-end="url(#arr-fb)" opacity="0.92"/>
<path d="M 482.0 1070.0 L 482.0 1118.0 L 329.5 1118.0 L 329.5 1166.0" fill="none" stroke="#263238" stroke-width="4.4" marker-end="url(#arr-thick)" opacity="0.92"/>
<path d="M 329.5 1294.0 L 330.0 1390.0" fill="none" stroke="#1565c0" stroke-width="2.8" stroke-dasharray="12 7" marker-end="url(#arr-fb)" opacity="0.92"/>
<path d="M 277.2 1518.0 L 277.2 2946.0 L 355.6 2946.0 L 355.6 398.0" fill="none" stroke="#1565c0" stroke-width="2.8" stroke-dasharray="12 7" marker-end="url(#arr-fb)" opacity="0.92"/>
<path d="M 330.0 1518.0 L 329.5 1614.0" fill="none" stroke="#263238" stroke-width="4.4" marker-end="url(#arr-thick)" opacity="0.92"/>
<rect x="65.5" y="65.5" width="231" height="95" rx="14" fill="#37474f" opacity="0.13"/>
<rect x="63" y="62" width="231" height="95" rx="14" fill="url(#g-loop)" stroke="#546e7a" stroke-width="2.0"/>
<circle cx="178.5" cy="62" r="24" fill="#ffffff" stroke="#546e7a" stroke-width="1.8"/>
<circle cx="178.5" cy="62" r="27.5" fill="none" stroke="#546e7a" stroke-width="1" opacity="0.35"/>
<g transform="translate(165.0,48.5) scale(1.1250)">
  <path d="M4 14a1 1 0 0 1-.78-1.63l9.9-10.2a.5.5 0 0 1 .86.46l-1.92 6.02A1 1 0 0 0 13 10h7a1 1 0 0 1 .78 1.63l-9.9 10.2a.5.5 0 0 1-.86-.46l1.92-6.02A1 1 0 0 0 11 14z" />
</g>
<text x="178.5" y="106" font-size="15" class="lbl" fill="#37474f" text-anchor="middle"><tspan x="178.5" dy="0">个人 Agent 用户终端</tspan><tspan x="178.5" dy="20">用户回复 / 工具输出</tspan></text>
<rect x="334.5" y="49.5" width="264" height="128" rx="14" fill="#37474f" opacity="0.13"/>
<rect x="332" y="46" width="264" height="128" rx="14" fill="url(#g-loop)" stroke="#546e7a" stroke-width="2.0"/>
<circle cx="464.0" cy="46" r="24" fill="#ffffff" stroke="#546e7a" stroke-width="1.8"/>
<circle cx="464.0" cy="46" r="27.5" fill="none" stroke="#546e7a" stroke-width="1" opacity="0.35"/>
<g transform="translate(450.5,32.5) scale(1.1250)">
  <path d="M9.671 4.136a2.34 2.34 0 0 1 4.659 0 2.34 2.34 0 0 0 3.319 1.915 2.34 2.34 0 0 1 2.33 4.033 2.34 2.34 0 0 0 0 3.831 2.34 2.34 0 0 1-2.33 4.033 2.34 2.34 0 0 0-3.319 1.915 2.34 2.34 0 0 1-4.659 0 2.34 2.34 0 0 0-3.32-1.915 2.34 2.34 0 0 1-2.33-4.033 2.34 2.34 0 0 0 0-3.831A2.34 2.34 0 0 1 6.35 6.051a2.34 2.34 0 0 0 3.319-1.915" />
  <circle cx="12" cy="12" r="3" />
</g>
<text x="464.0" y="90" font-size="15" class="lbl" fill="#37474f" text-anchor="middle"><tspan x="464.0" dy="0">Terminal / GUI / SWE </tspan><tspan x="464.0" dy="20">/ Tool-call</tspan></text>
<text x="464.0" y="120" font-size="12" fill="#5f6b7a" text-anchor="middle">云环境 128/64/64/32 并</text>
<rect x="198.5" y="273.5" width="266" height="128" rx="14" fill="#37474f" opacity="0.13"/>
<rect x="196" y="270" width="266" height="128" rx="14" fill="url(#g-loop)" stroke="#546e7a" stroke-width="2.0"/>
<circle cx="329.0" cy="270" r="24" fill="#ffffff" stroke="#546e7a" stroke-width="1.8"/>
<circle cx="329.0" cy="270" r="27.5" fill="none" stroke="#546e7a" stroke-width="1" opacity="0.35"/>
<g transform="translate(315.5,256.5) scale(0.1055)"><path d="M176,80v96H80V80Z" opacity="0.2"/><path d="M224,40V80a8,8,0,0,1-16,0V48H176a8,8,0,0,1,0-16h40A8,8,0,0,1,224,40ZM80,208H48V176a8,8,0,0,0-16,0v40a8,8,0,0,0,8,8H80a8,8,0,0,0,0-16Zm136-40a8,8,0,0,0-8,8v32H176a8,8,0,0,0,0,16h40a8,8,0,0,0,8-8V176A8,8,0,0,0,216,168ZM40,88a8,8,0,0,0,8-8V48H80a8,8,0,0,0,0-16H40a8,8,0,0,0-8,8V80A8,8,0,0,0,40,88ZM80,72h96a8,8,0,0,1,8,8v96a8,8,0,0,1-8,8H80a8,8,0,0,1-8-8V80A8,8,0,0,1,80,72Zm8,96h80V88H88Z"/></g>
<text x="329.0" y="314" font-size="15" class="lbl" fill="#37474f" text-anchor="middle"><tspan x="329.0" dy="0">Policy Server (被训策</tspan><tspan x="329.0" dy="20">略挂载)</tspan></text>
<text x="329.0" y="344" font-size="12" fill="#5f6b7a" text-anchor="middle">SGLang 无状态 completi</text>
<rect x="199.5" y="497.5" width="265" height="128" rx="14" fill="#37474f" opacity="0.13"/>
<rect x="197" y="494" width="265" height="128" rx="14" fill="url(#g-loop)" stroke="#546e7a" stroke-width="2.0"/>
<circle cx="329.5" cy="494" r="24" fill="#ffffff" stroke="#546e7a" stroke-width="1.8"/>
<circle cx="329.5" cy="494" r="27.5" fill="none" stroke="#546e7a" stroke-width="1" opacity="0.35"/>
<g transform="translate(316.0,480.5) scale(0.1055)"><path d="M216,80c0,26.51-39.4,48-88,48S40,106.51,40,80s39.4-48,88-48S216,53.49,216,80Z" opacity="0.2"/><path d="M128,24C74.17,24,32,48.6,32,80v96c0,31.4,42.17,56,96,56s96-24.6,96-56V80C224,48.6,181.83,24,128,24Zm80,104c0,9.62-7.88,19.43-21.61,26.92C170.93,163.35,150.19,168,128,168s-42.93-4.65-58.39-13.08C55.88,147.43,48,137.62,48,128V111.36c17.06,15,46.23,24.64,80,24.64s62.94-9.68,80-24.64ZM69.61,53.08C85.07,44.65,105.81,40,128,40s42.93,4.65,58.39,13.08C200.12,60.57,208,70.38,208,80s-7.88,19.43-21.61,26.92C170.93,115.35,150.19,120,128,120s-42.93-4.65-58.39-13.08C55.88,99.43,48,89.62,48,80S55.88,60.57,69.61,53.08ZM186.39,202.92C170.93,211.35,150.19,216,128,216s-42.93-4.65-58.39-13.08C55.88,195.43,48,185.62,48,176V159.36c17.06,15,46.23,24.64,80,24.64s62.94-9.68,80-24.64V176C208,185.62,200.12,195.43,186.39,202.92Z"/></g>
<text x="329.5" y="538" font-size="15" class="lbl" fill="#37474f" text-anchor="middle"><tspan x="329.5" dy="0">主线/侧线分流: 主线回合</tspan><tspan x="329.5" dy="20">可训练</tspan></text>
<text x="329.5" y="568" font-size="12" fill="#5f6b7a" text-anchor="middle">侧线 (记忆/辅助查询) 只</text>
<rect x="204.5" y="721.5" width="256" height="128" rx="14" fill="#37474f" opacity="0.13"/>
<rect x="202" y="718" width="256" height="128" rx="14" fill="url(#g-loop)" stroke="#546e7a" stroke-width="2.0"/>
<circle cx="330.0" cy="718" r="24" fill="#ffffff" stroke="#546e7a" stroke-width="1.8"/>
<circle cx="330.0" cy="718" r="27.5" fill="none" stroke="#546e7a" stroke-width="1" opacity="0.35"/>
<g transform="translate(316.5,704.5) scale(0.1055)"><path d="M176,80v96H80V80Z" opacity="0.2"/><path d="M224,40V80a8,8,0,0,1-16,0V48H176a8,8,0,0,1,0-16h40A8,8,0,0,1,224,40ZM80,208H48V176a8,8,0,0,0-16,0v40a8,8,0,0,0,8,8H80a8,8,0,0,0,0-16Zm136-40a8,8,0,0,0-8,8v32H176a8,8,0,0,0,0,16h40a8,8,0,0,0,8-8V176A8,8,0,0,0,216,168ZM40,88a8,8,0,0,0,8-8V48H80a8,8,0,0,0,0-16H40a8,8,0,0,0-8,8V80A8,8,0,0,0,40,88ZM80,72h96a8,8,0,0,1,8,8v96a8,8,0,0,1-8,8H80a8,8,0,0,1-8-8V80A8,8,0,0,1,80,72Zm8,96h80V88H88Z"/></g>
<text x="330.0" y="762" font-size="15" class="lbl" fill="#37474f" text-anchor="middle"><tspan x="330.0" dy="0">PRM Server (核心): 下</tspan><tspan x="330.0" dy="20">一状态信号就地提取</tspan></text>
<text x="330.0" y="792" font-size="12" fill="#5f6b7a" text-anchor="middle">用户回复/工具输出/状态</text>
<rect x="48.5" y="945.5" width="267" height="128" rx="14" fill="#37474f" opacity="0.13"/>
<rect x="46" y="942" width="267" height="128" rx="14" fill="url(#g-loop)" stroke="#546e7a" stroke-width="2.0"/>
<circle cx="179.5" cy="942" r="24" fill="#ffffff" stroke="#546e7a" stroke-width="1.8"/>
<circle cx="179.5" cy="942" r="27.5" fill="none" stroke="#546e7a" stroke-width="1" opacity="0.35"/>
<g transform="translate(166.0,928.5) scale(1.1250)">
  <path d="M3 12a9 9 0 0 1 9-9 9.75 9.75 0 0 1 6.74 2.74L21 8" />
  <path d="M21 3v5h-5" />
  <path d="M21 12a9 9 0 0 1-9 9 9.75 9.75 0 0 1-6.74-2.74L3 16" />
  <path d="M8 16H3v5" />
</g>
<text x="179.5" y="986" font-size="15" class="lbl" fill="#37474f" text-anchor="middle"><tspan x="179.5" dy="0">评价性: 标量 PRM 多数投</tspan><tspan x="179.5" dy="20">票</tspan></text>
<text x="179.5" y="1016" font-size="12" fill="#5f6b7a" text-anchor="middle">r_t in {+1, -1, 0}</text>
<rect x="353.5" y="945.5" width="262" height="128" rx="14" fill="#37474f" opacity="0.13"/>
<rect x="351" y="942" width="262" height="128" rx="14" fill="url(#g-loop)" stroke="#546e7a" stroke-width="2.0"/>
<circle cx="482.0" cy="942" r="24" fill="#ffffff" stroke="#546e7a" stroke-width="1.8"/>
<circle cx="482.0" cy="942" r="27.5" fill="none" stroke="#546e7a" stroke-width="1" opacity="0.35"/>
<g transform="translate(468.5,928.5) scale(0.1055)"><path d="M176,80v96H80V80Z" opacity="0.2"/><path d="M224,40V80a8,8,0,0,1-16,0V48H176a8,8,0,0,1,0-16h40A8,8,0,0,1,224,40ZM80,208H48V176a8,8,0,0,0-16,0v40a8,8,0,0,0,8,8H80a8,8,0,0,0,0-16Zm136-40a8,8,0,0,0-8,8v32H176a8,8,0,0,0,0,16h40a8,8,0,0,0,8-8V176A8,8,0,0,0,216,168ZM40,88a8,8,0,0,0,8-8V48H80a8,8,0,0,0,0-16H40a8,8,0,0,0-8,8V80A8,8,0,0,0,40,88ZM80,72h96a8,8,0,0,1,8,8v96a8,8,0,0,1-8,8H80a8,8,0,0,1-8-8V80A8,8,0,0,1,80,72Zm8,96h80V88H88Z"/></g>
<text x="482.0" y="986" font-size="15" class="lbl" fill="#37474f" text-anchor="middle"><tspan x="482.0" dy="0">指导性: 下一状态含修正</tspan><tspan x="482.0" dy="20">时</tspan></text>
<text x="482.0" y="1016" font-size="12" fill="#5f6b7a" text-anchor="middle">蒸馏 [HINT] 包裹的 tok</text>
<rect x="201.5" y="1169.5" width="261" height="128" rx="14" fill="#37474f" opacity="0.13"/>
<rect x="199" y="1166" width="261" height="128" rx="14" fill="url(#g-loop)" stroke="#546e7a" stroke-width="2.0"/>
<circle cx="329.5" cy="1166" r="24" fill="#ffffff" stroke="#546e7a" stroke-width="1.8"/>
<circle cx="329.5" cy="1166" r="27.5" fill="none" stroke="#546e7a" stroke-width="1" opacity="0.35"/>
<g transform="translate(316.0,1152.5) scale(1.1250)">
  <path d="M14 2v6a2 2 0 0 0 .245.96l5.51 10.08A2 2 0 0 1 18 22H6a2 2 0 0 1-1.755-2.96l5.51-10.08A2 2 0 0 0 10 8V2" />
  <path d="M6.453 15h11.094" />
  <path d="M8.5 2h7" />
</g>
<text x="329.5" y="1210" font-size="15" class="lbl" fill="#37474f" text-anchor="middle"><tspan x="329.5" dy="0">PRM Actor (teacher lo</tspan><tspan x="329.5" dy="20">g-prob)</tspan></text>
<text x="329.5" y="1240" font-size="12" fill="#5f6b7a" text-anchor="middle">overlap 选 hint + Del</text>
<rect x="200.5" y="1393.5" width="264" height="128" rx="14" fill="#37474f" opacity="0.13"/>
<rect x="198" y="1390" width="264" height="128" rx="14" fill="url(#g-loop)" stroke="#546e7a" stroke-width="2.0"/>
<circle cx="330.0" cy="1390" r="24" fill="#ffffff" stroke="#546e7a" stroke-width="1.8"/>
<circle cx="330.0" cy="1390" r="27.5" fill="none" stroke="#546e7a" stroke-width="1" opacity="0.35"/>
<g transform="translate(316.5,1376.5) scale(1.1250)">
  <path d="M3 12a9 9 0 0 1 9-9 9.75 9.75 0 0 1 6.74 2.74L21 8" />
  <path d="M21 3v5h-5" />
  <path d="M21 12a9 9 0 0 1-9 9 9.75 9.75 0 0 1-6.74-2.74L3 16" />
  <path d="M8 16H3v5" />
</g>
<text x="330.0" y="1434" font-size="15" class="lbl" fill="#37474f" text-anchor="middle"><tspan x="330.0" dy="0">Megatron 训练引擎</tspan><tspan x="330.0" dy="20">混合目标 L = w_RL*L_GR</tspan></text>
<text x="330.0" y="1464" font-size="12" fill="#5f6b7a" text-anchor="middle">PO + w_OPD*L_OPD</text>
<rect x="201.5" y="1617.5" width="261" height="128" rx="14" fill="#37474f" opacity="0.13"/>
<rect x="199" y="1614" width="261" height="128" rx="14" fill="url(#g-loop)" stroke="#546e7a" stroke-width="2.0"/>
<circle cx="329.5" cy="1614" r="24" fill="#ffffff" stroke="#546e7a" stroke-width="1.8"/>
<circle cx="329.5" cy="1614" r="27.5" fill="none" stroke="#546e7a" stroke-width="1" opacity="0.35"/>
<g transform="translate(316.0,1600.5) scale(1.1250)">
  <path d="M3 12a9 9 0 0 1 9-9 9.75 9.75 0 0 1 6.74 2.74L21 8" />
  <path d="M21 3v5h-5" />
  <path d="M21 12a9 9 0 0 1-9 9 9.75 9.75 0 0 1-6.74-2.74L3 16" />
  <path d="M8 16H3v5" />
</g>
<text x="329.5" y="1658" font-size="15" class="lbl" fill="#37474f" text-anchor="middle"><tspan x="329.5" dy="0">偏好对齐 10.3 会话 vs </tspan><tspan x="329.5" dy="20">GRPO 14.1 / Mem0 14.5</tspan></text>
<text x="329.5" y="1688" font-size="12" fill="#5f6b7a" text-anchor="middle">部署中在线学习: 被使用</text>
<g transform="translate(253.8,213.5)"><rect x="-86.6" y="-11" width="173.1" height="22" rx="11" fill="#ffffff" stroke="#263238" stroke-width="1.2"/><text y="4" font-size="12" fill="#263238" font-weight="600" text-anchor="middle">&quot;HTTP API + session id</text></g>
<g transform="translate(396.5,222.0)"><rect x="-36.0" y="-11" width="72.1" height="22" rx="11" fill="#ffffff" stroke="#263238" stroke-width="1.2"/><text y="4" font-size="12" fill="#263238" font-weight="600" text-anchor="middle">&quot;交互流&quot;</text></g>
<g transform="translate(179.5,1333.2)"><rect x="-74.2" y="-11" width="148.4" height="22" rx="11" fill="#ffffff" stroke="#1565c0" stroke-width="1.2"/><text y="4" font-size="12" fill="#1565c0" font-weight="600" text-anchor="middle">&quot;稠密但薄的标量优势&quot;</text></g>
<g transform="translate(393.8,1342.0)"><rect x="-92.2" y="-11" width="184.4" height="22" rx="11" fill="#ffffff" stroke="#1565c0" stroke-width="1.2"/><text y="4" font-size="12" fill="#1565c0" font-weight="600" text-anchor="middle">&quot;稀疏但厚的 token 级优势&quot;</text></g>
<g transform="translate(355.6,2425.2)"><rect x="-100.2" y="-11" width="200.5" height="22" rx="11" fill="#ffffff" stroke="#1565c0" stroke-width="1.2"/><text y="4" font-size="12" fill="#1565c0" font-weight="600" text-anchor="middle">&quot;同步边界推权重, 零服务中断&quot;</text></g>
<text x="40" y="1872.5" font-size="12" fill="#78909c">图例</text>
<g><rect x="86" y="1858" width="93.43" height="22" rx="11" fill="url(#g-loop)" stroke="#546e7a" stroke-width="1.3"/><circle cx="99" cy="1869" r="4.2" fill="#546e7a"/><text x="110" y="1873" font-size="11.5" fill="#37474f">循环/反馈</text></g>
<text x="40" y="1912" font-size="11.5" fill="#78909c">线型</text>
<g><path d="M 80 1908 h 44" stroke="#263238" stroke-width="4.4" marker-end="url(#arr-thick)"/><text x="132" y="1912" font-size="11.5" fill="#263238">主数据流</text></g>
<g><path d="M 212.76 1908 h 44" stroke="#1565c0" stroke-width="2.8" stroke-dasharray="12 7" marker-end="url(#arr-fb)"/><text x="264.76" y="1912" font-size="11.5" fill="#1565c0">闭环反馈</text></g>
</svg>