<svg xmlns="http://www.w3.org/2000/svg" width="667" height="2115" viewBox="0 0 667 2115" font-family="'PingFang SC','Hiragino Sans GB','Microsoft YaHei','Segoe UI',sans-serif">
<style>text{font-family:'PingFang SC','Hiragino Sans GB','Microsoft YaHei','Segoe UI',sans-serif;} .lbl{font-weight:700;}</style>
<defs>
<linearGradient id="g-data" x1="0" y1="0" x2="0" y2="1"><stop offset="0" stop-color="#f1f9f1"/><stop offset="1" stop-color="#e2f0e2"/></linearGradient>
<linearGradient id="g-frozen" x1="0" y1="0" x2="0" y2="1"><stop offset="0" stop-color="#f0f7fe"/><stop offset="1" stop-color="#dcecfb"/></linearGradient>
<linearGradient id="g-train" x1="0" y1="0" x2="0" y2="1"><stop offset="0" stop-color="#fff6e8"/><stop offset="1" stop-color="#ffedd4"/></linearGradient>
<linearGradient id="g-loss" x1="0" y1="0" x2="0" y2="1"><stop offset="0" stop-color="#fdf0f1"/><stop offset="1" stop-color="#f9e0e2"/></linearGradient>
<linearGradient id="g-act" x1="0" y1="0" x2="0" y2="1"><stop offset="0" stop-color="#f8f1fb"/><stop offset="1" stop-color="#f0e4f7"/></linearGradient>
<linearGradient id="g-loop" x1="0" y1="0" x2="0" y2="1"><stop offset="0" stop-color="#f2f5f7"/><stop offset="1" stop-color="#e6ebee"/></linearGradient>
<linearGradient id="g-env" x1="0" y1="0" x2="0" y2="1"><stop offset="0" stop-color="#eef8f6"/><stop offset="1" stop-color="#dcf0ec"/></linearGradient>
<linearGradient id="g-mem" x1="0" y1="0" x2="0" y2="1"><stop offset="0" stop-color="#fffef0"/><stop offset="1" stop-color="#fdf6d8"/></linearGradient>
<linearGradient id="g-reward" x1="0" y1="0" x2="0" y2="1"><stop offset="0" stop-color="#fdf2f7"/><stop offset="1" stop-color="#f9e2ed"/></linearGradient>
<linearGradient id="g-key" x1="0" y1="0" x2="0" y2="1"><stop offset="0" stop-color="#fffaf0"/><stop offset="1" stop-color="#fff1d6"/></linearGradient>
<linearGradient id="g-title" x1="0" y1="0" x2="1" y2="0"><stop offset="0" stop-color="#00695c"/><stop offset="1" stop-color="#1565c0"/></linearGradient>
<marker id="arr-main" viewBox="0 0 10 10" refX="8.5" refY="5" markerWidth="13" markerHeight="13" markerUnits="userSpaceOnUse" orient="auto-start-reverse"><path d="M0 0 L10 5 L0 10 z" fill="#546e7a"/></marker>
<marker id="arr-thick" viewBox="0 0 10 10" refX="8.5" refY="5" markerWidth="13" markerHeight="13" markerUnits="userSpaceOnUse" orient="auto-start-reverse"><path d="M0 0 L10 5 L0 10 z" fill="#263238"/></marker>
<marker id="arr-thin" viewBox="0 0 10 10" refX="8.5" refY="5" markerWidth="13" markerHeight="13" markerUnits="userSpaceOnUse" orient="auto-start-reverse"><path d="M0 0 L10 5 L0 10 z" fill="#9fb0bb"/></marker>
<marker id="arr-fb" viewBox="0 0 10 10" refX="8.5" refY="5" markerWidth="13" markerHeight="13" markerUnits="userSpaceOnUse" orient="auto-start-reverse"><path d="M0 0 L10 5 L0 10 z" fill="#1565c0"/></marker>
<marker id="arr-loss" viewBox="0 0 10 10" refX="8.5" refY="5" markerWidth="13" markerHeight="13" markerUnits="userSpaceOnUse" orient="auto-start-reverse"><path d="M0 0 L10 5 L0 10 z" fill="#c62828"/></marker>
</defs>
<rect width="667" height="2115" fill="#ffffff"/>
<rect x="34" y="30" width="5" height="42" rx="2.5" fill="url(#g-title)"/>
<text x="52" y="52" font-size="25" font-weight="800" fill="#1a2733">g2po</text>
<text x="52" y="74" font-size="13.5" fill="#78909c">G2PO（微软 + 北大）把多轮 agent RL 的线性轨迹重构为全局状态转移图——相同 observation 聚为状态组节点、动作作为有向边——用 group-aggre</text>
<text x="633" y="2097" font-size="11.5" fill="#a0aab4" text-anchor="end">g2po · arXiv 2606.22995 · v3 auto</text>
<path d="M 333.5 174.0 L 334.0 270.0" fill="none" stroke="#1565c0" stroke-width="2.8" stroke-dasharray="12 7" marker-end="url(#arr-fb)" opacity="0.92"/>
<path d="M 334.0 398.0 L 334.0 494.0" fill="none" stroke="#263238" stroke-width="4.4" marker-end="url(#arr-thick)" opacity="0.92"/>
<path d="M 334.0 589.0 L 334.0 637.0 L 486.5 637.0 L 486.5 685.0" fill="none" stroke="#263238" stroke-width="4.4" marker-end="url(#arr-thick)" opacity="0.92"/>
<path d="M 486.5 813.0 L 486.5 861.0 L 333.5 861.0 L 333.5 909.0" fill="none" stroke="#263238" stroke-width="4.4" marker-end="url(#arr-thick)" opacity="0.92"/>
<path d="M 333.5 1037.0 L 333.5 1085.0 L 179.5 1085.0 L 179.5 1133.0" fill="none" stroke="#263238" stroke-width="4.4" marker-end="url(#arr-thick)" opacity="0.92"/>
<path d="M 333.5 1037.0 L 333.5 1085.0 L 486.0 1085.0 L 486.0 1133.0" fill="none" stroke="#263238" stroke-width="4.4" marker-end="url(#arr-thick)" opacity="0.92"/>
<path d="M 334.0 589.0 L 334.0 637.0 L 181.5 637.0 L 181.5 685.0" fill="none" stroke="#263238" stroke-width="4.4" marker-end="url(#arr-thick)" opacity="0.92"/>
<path d="M 179.5 1261.0 L 179.5 1309.0 L 333.5 1309.0 L 333.5 1357.0" fill="none" stroke="#263238" stroke-width="4.4" marker-end="url(#arr-thick)" opacity="0.92"/>
<path d="M 486.0 1261.0 L 486.0 1309.0 L 333.5 1309.0 L 333.5 1357.0" fill="none" stroke="#263238" stroke-width="4.4" marker-end="url(#arr-thick)" opacity="0.92"/>
<path d="M 181.5 813.0 L 181.5 1085.0 L 333.5 1085.0 L 333.5 1357.0" fill="none" stroke="#263238" stroke-width="4.4" marker-end="url(#arr-thick)" opacity="0.92"/>
<path d="M 333.5 1485.0 L 333.5 1581.0" fill="none" stroke="#263238" stroke-width="4.4" marker-end="url(#arr-thick)" opacity="0.92"/>
<path d="M 280.1 1709.0 L 280.1 3552.0 L 360.2 3552.0 L 360.2 174.0" fill="none" stroke="#1565c0" stroke-width="2.8" stroke-dasharray="12 7" marker-end="url(#arr-fb)" opacity="0.92"/>
<path d="M 333.5 1709.0 L 333.5 1805.0" fill="none" stroke="#263238" stroke-width="4.4" marker-end="url(#arr-thick)" opacity="0.92"/>
<rect x="202.5" y="49.5" width="267" height="128" rx="14" fill="#37474f" opacity="0.13"/>
<rect x="200" y="46" width="267" height="128" rx="14" fill="url(#g-loop)" stroke="#546e7a" stroke-width="2.0"/>
<circle cx="333.5" cy="46" r="24" fill="#ffffff" stroke="#546e7a" stroke-width="1.8"/>
<circle cx="333.5" cy="46" r="27.5" fill="none" stroke="#546e7a" stroke-width="1" opacity="0.35"/>
<g transform="translate(320.0,32.5) scale(0.1055)"><path d="M240,124a48,48,0,0,1-32,45.27h0V176a40,40,0,0,1-80,0,40,40,0,0,1-80,0v-6.73h0a48,48,0,0,1,0-90.54V72a40,40,0,0,1,80,0,40,40,0,0,1,80,0v6.73A48,48,0,0,1,240,124Z" opacity="0.2"/><path d="M248,124a56.11,56.11,0,0,0-32-50.61V72a48,48,0,0,0-88-26.49A48,48,0,0,0,40,72v1.39a56,56,0,0,0,0,101.2V176a48,48,0,0,0,88,26.49A48,48,0,0,0,216,176v-1.41A56.09,56.09,0,0,0,248,124ZM88,208a32,32,0,0,1-31.81-28.56A55.87,55.87,0,0,0,64,180h8a8,8,0,0,0,0-16H64A40,40,0,0,1,50.67,86.27,8,8,0,0,0,56,78.73V72a32,32,0,0,1,64,0v68.26A47.8,47.8,0,0,0,88,128a8,8,0,0,0,0,16,32,32,0,0,1,0,64Zm104-44h-8a8,8,0,0,0,0,16h8a55.87,55.87,0,0,0,7.81-.56A32,32,0,1,1,168,144a8,8,0,0,0,0-16,47.8,47.8,0,0,0-32,12.26V72a32,32,0,0,1,64,0v6.73a8,8,0,0,0,5.33,7.54A40,40,0,0,1,192,164Zm16-52a8,8,0,0,1-8,8h-4a36,36,0,0,1-36-36V80a8,8,0,0,1,16,0v4a20,20,0,0,0,20,20h4A8,8,0,0,1,208,112ZM60,120H56a8,8,0,0,1,0-16h4A20,20,0,0,0,80,84V80a8,8,0,0,1,16,0v4A36,36,0,0,1,60,120Z"/></g>
<text x="333.5" y="90" font-size="15" class="lbl" fill="#37474f" text-anchor="middle"><tspan x="333.5" dy="0">被 RL 的策略 Qwen2.5-1</tspan><tspan x="333.5" dy="20">.5B/7B/14B</tspan></text>
<text x="333.5" y="120" font-size="12" fill="#5f6b7a" text-anchor="middle">(critic-free, 不养 val</text>
<rect x="204.5" y="273.5" width="264" height="128" rx="14" fill="#37474f" opacity="0.13"/>
<rect x="202" y="270" width="264" height="128" rx="14" fill="url(#g-loop)" stroke="#546e7a" stroke-width="2.0"/>
<circle cx="334.0" cy="270" r="24" fill="#ffffff" stroke="#546e7a" stroke-width="1.8"/>
<circle cx="334.0" cy="270" r="27.5" fill="none" stroke="#546e7a" stroke-width="1" opacity="0.35"/>
<g transform="translate(320.5,256.5) scale(1.1250)">
  <path d="M22 17a2 2 0 0 1-2 2H6.828a2 2 0 0 0-1.414.586l-2.202 2.202A.71.71 0 0 1 2 21.286V5a2 2 0 0 1 2-2h16a2 2 0 0 1 2 2z" />
</g>
<text x="334.0" y="314" font-size="15" class="lbl" fill="#37474f" text-anchor="middle"><tspan x="334.0" dy="0">文本环境: WebShop / AL</tspan><tspan x="334.0" dy="20">FWorld / AppWorld</tspan></text>
<text x="334.0" y="344" font-size="12" fill="#5f6b7a" text-anchor="middle">稀疏终局奖励, 中间步零</text>
<rect x="210.5" y="497.5" width="252" height="95" rx="14" fill="#37474f" opacity="0.13"/>
<rect x="208" y="494" width="252" height="95" rx="14" fill="url(#g-loop)" stroke="#546e7a" stroke-width="2.0"/>
<circle cx="334.0" cy="494" r="24" fill="#ffffff" stroke="#546e7a" stroke-width="1.8"/>
<circle cx="334.0" cy="494" r="27.5" fill="none" stroke="#546e7a" stroke-width="1" opacity="0.35"/>
<g transform="translate(320.5,480.5) scale(0.1055)"><path d="M176,80v96H80V80Z" opacity="0.2"/><path d="M224,40V80a8,8,0,0,1-16,0V48H176a8,8,0,0,1,0-16h40A8,8,0,0,1,224,40ZM80,208H48V176a8,8,0,0,0-16,0v40a8,8,0,0,0,8,8H80a8,8,0,0,0,0-16Zm136-40a8,8,0,0,0-8,8v32H176a8,8,0,0,0,0,16h40a8,8,0,0,0,8-8V176A8,8,0,0,0,216,168ZM40,88a8,8,0,0,0,8-8V48H80a8,8,0,0,0,0-16H40a8,8,0,0,0-8,8V80A8,8,0,0,0,40,88ZM80,72h96a8,8,0,0,1,8,8v96a8,8,0,0,1-8,8H80a8,8,0,0,1-8-8V80A8,8,0,0,1,80,72Zm8,96h80V88H88Z"/></g>
<text x="334.0" y="538" font-size="15" class="lbl" fill="#37474f" text-anchor="middle"><tspan x="334.0" dy="0">每任务 N=8 条并行轨迹</tspan><tspan x="334.0" dy="20">多宇宙探索天然共享状态</tspan></text>
<rect x="356.5" y="688.5" width="265" height="128" rx="14" fill="#37474f" opacity="0.13"/>
<rect x="354" y="685" width="265" height="128" rx="14" fill="url(#g-loop)" stroke="#546e7a" stroke-width="2.0"/>
<circle cx="486.5" cy="685" r="24" fill="#ffffff" stroke="#546e7a" stroke-width="1.8"/>
<circle cx="486.5" cy="685" r="27.5" fill="none" stroke="#546e7a" stroke-width="1" opacity="0.35"/>
<g transform="translate(473.0,671.5) scale(1.1250)">
  <path d="M13.997 4a2 2 0 0 1 1.76 1.05l.486.9A2 2 0 0 0 18.003 7H20a2 2 0 0 1 2 2v9a2 2 0 0 1-2 2H4a2 2 0 0 1-2-2V9a2 2 0 0 1 2-2h1.997a2 2 0 0 0 1.759-1.048l.489-.904A2 2 0 0 1 10.004 4z" />
  <circle cx="12" cy="13" r="3" />
</g>
<text x="486.5" y="729" font-size="15" class="lbl" fill="#37474f" text-anchor="middle"><tspan x="486.5" dy="0">状态转移图 (核心): 相同</tspan><tspan x="486.5" dy="20"> observation 聚为状态</tspan></text>
<text x="486.5" y="759" font-size="12" fill="#5f6b7a" text-anchor="middle">组节点</text>
<rect x="201.5" y="912.5" width="269" height="128" rx="14" fill="#37474f" opacity="0.13"/>
<rect x="199" y="909" width="269" height="128" rx="14" fill="url(#g-loop)" stroke="#546e7a" stroke-width="2.0"/>
<circle cx="333.5" cy="909" r="24" fill="#ffffff" stroke="#546e7a" stroke-width="1.8"/>
<circle cx="333.5" cy="909" r="27.5" fill="none" stroke="#546e7a" stroke-width="1" opacity="0.35"/>
<g transform="translate(320.0,895.5) scale(0.1055)"><path d="M176,80v96H80V80Z" opacity="0.2"/><path d="M224,40V80a8,8,0,0,1-16,0V48H176a8,8,0,0,1,0-16h40A8,8,0,0,1,224,40ZM80,208H48V176a8,8,0,0,0-16,0v40a8,8,0,0,0,8,8H80a8,8,0,0,0,0-16Zm136-40a8,8,0,0,0-8,8v32H176a8,8,0,0,0,0,16h40a8,8,0,0,0,8-8V176A8,8,0,0,0,216,168ZM40,88a8,8,0,0,0,8-8V48H80a8,8,0,0,0,0-16H40a8,8,0,0,0-8,8V80A8,8,0,0,0,40,88ZM80,72h96a8,8,0,0,1,8,8v96a8,8,0,0,1-8,8H80a8,8,0,0,1-8-8V80A8,8,0,0,1,80,72Zm8,96h80V88H88Z"/></g>
<text x="333.5" y="953" font-size="15" class="lbl" fill="#37474f" text-anchor="middle"><tspan x="333.5" dy="0">组聚合状态价值 V(G_k) =</tspan><tspan x="333.5" dy="20"> 组内折扣回报平均</tspan></text>
<text x="333.5" y="983" font-size="12" fill="#5f6b7a" text-anchor="middle">方差 sigma^2 -&gt; sigma^</text>
<rect x="48.5" y="1136.5" width="267" height="128" rx="14" fill="#37474f" opacity="0.13"/>
<rect x="46" y="1133" width="267" height="128" rx="14" fill="url(#g-loop)" stroke="#546e7a" stroke-width="2.0"/>
<circle cx="179.5" cy="1133" r="24" fill="#ffffff" stroke="#546e7a" stroke-width="1.8"/>
<circle cx="179.5" cy="1133" r="27.5" fill="none" stroke="#546e7a" stroke-width="1" opacity="0.35"/>
<g transform="translate(166.0,1119.5) scale(1.1250)">
  <path d="M9.671 4.136a2.34 2.34 0 0 1 4.659 0 2.34 2.34 0 0 0 3.319 1.915 2.34 2.34 0 0 1 2.33 4.033 2.34 2.34 0 0 0 0 3.831 2.34 2.34 0 0 1-2.33 4.033 2.34 2.34 0 0 0-3.319 1.915 2.34 2.34 0 0 1-4.659 0 2.34 2.34 0 0 0-3.32-1.915 2.34 2.34 0 0 1-2.33-4.033 2.34 2.34 0 0 0 0-3.831A2.34 2.34 0 0 1 6.35 6.051a2.34 2.34 0 0 0 3.319-1.915" />
  <circle cx="12" cy="12" r="3" />
</g>
<text x="179.5" y="1177" font-size="15" class="lbl" fill="#37474f" text-anchor="middle"><tspan x="179.5" dy="0">edge-centric 优势 A_EC</tspan><tspan x="179.5" dy="20">: 组间 1-step TD error</tspan></text>
<text x="179.5" y="1207" font-size="12" fill="#5f6b7a" text-anchor="middle">在全图所有转移上均值-方</text>
<rect x="353.5" y="1136.5" width="270" height="128" rx="14" fill="#37474f" opacity="0.13"/>
<rect x="351" y="1133" width="270" height="128" rx="14" fill="url(#g-loop)" stroke="#546e7a" stroke-width="2.0"/>
<circle cx="486.0" cy="1133" r="24" fill="#ffffff" stroke="#546e7a" stroke-width="1.8"/>
<circle cx="486.0" cy="1133" r="27.5" fill="none" stroke="#546e7a" stroke-width="1" opacity="0.35"/>
<g transform="translate(472.5,1119.5) scale(0.1055)"><path d="M176,80v96H80V80Z" opacity="0.2"/><path d="M224,40V80a8,8,0,0,1-16,0V48H176a8,8,0,0,1,0-16h40A8,8,0,0,1,224,40ZM80,208H48V176a8,8,0,0,0-16,0v40a8,8,0,0,0,8,8H80a8,8,0,0,0,0-16Zm136-40a8,8,0,0,0-8,8v32H176a8,8,0,0,0,0,16h40a8,8,0,0,0,8-8V176A8,8,0,0,0,216,168ZM40,88a8,8,0,0,0,8-8V48H80a8,8,0,0,0,0-16H40a8,8,0,0,0-8,8V80A8,8,0,0,0,40,88ZM80,72h96a8,8,0,0,1,8,8v96a8,8,0,0,1-8,8H80a8,8,0,0,1-8-8V80A8,8,0,0,1,80,72Zm8,96h80V88H88Z"/></g>
<text x="486.0" y="1177" font-size="15" class="lbl" fill="#37474f" text-anchor="middle"><tspan x="486.0" dy="0">node-centric 优势 A_NC</tspan><tspan x="486.0" dy="20">同源状态各动作的局部相对</tspan></text>
<text x="486.0" y="1207" font-size="12" fill="#5f6b7a" text-anchor="middle">比较</text>
<rect x="50.5" y="688.5" width="267" height="128" rx="14" fill="#37474f" opacity="0.13"/>
<rect x="48" y="685" width="267" height="128" rx="14" fill="url(#g-loop)" stroke="#546e7a" stroke-width="2.0"/>
<circle cx="181.5" cy="685" r="24" fill="#ffffff" stroke="#546e7a" stroke-width="1.8"/>
<circle cx="181.5" cy="685" r="27.5" fill="none" stroke="#546e7a" stroke-width="1" opacity="0.35"/>
<g transform="translate(168.0,671.5) scale(1.1250)">
  <path d="M3 12a9 9 0 0 1 9-9 9.75 9.75 0 0 1 6.74 2.74L21 8" />
  <path d="M21 3v5h-5" />
  <path d="M21 12a9 9 0 0 1-9 9 9.75 9.75 0 0 1-6.74-2.74L3 16" />
  <path d="M8 16H3v5" />
</g>
<text x="181.5" y="729" font-size="15" class="lbl" fill="#37474f" text-anchor="middle"><tspan x="181.5" dy="0">episode 级优势 A_EP</tspan><tspan x="181.5" dy="20">GRPO 式终局归一化, 锚定</tspan></text>
<text x="181.5" y="759" font-size="12" fill="#5f6b7a" text-anchor="middle">任务目标</text>
<rect x="205.5" y="1360.5" width="261" height="128" rx="14" fill="#37474f" opacity="0.13"/>
<rect x="203" y="1357" width="261" height="128" rx="14" fill="url(#g-loop)" stroke="#546e7a" stroke-width="2.0"/>
<circle cx="333.5" cy="1357" r="24" fill="#ffffff" stroke="#546e7a" stroke-width="1.8"/>
<circle cx="333.5" cy="1357" r="27.5" fill="none" stroke="#546e7a" stroke-width="1" opacity="0.35"/>
<g transform="translate(320.0,1343.5) scale(1.1250)">
  <path d="M3 12a9 9 0 0 1 9-9 9.75 9.75 0 0 1 6.74 2.74L21 8" />
  <path d="M21 3v5h-5" />
  <path d="M21 12a9 9 0 0 1-9 9 9.75 9.75 0 0 1-6.74-2.74L3 16" />
  <path d="M8 16H3v5" />
</g>
<text x="333.5" y="1401" font-size="15" class="lbl" fill="#37474f" text-anchor="middle"><tspan x="333.5" dy="0">三粒度合成</tspan><tspan x="333.5" dy="20">A = A_EP + w*(A_NC + </tspan></text>
<text x="333.5" y="1431" font-size="12" fill="#5f6b7a" text-anchor="middle">A_EC)</text>
<rect x="202.5" y="1584.5" width="267" height="128" rx="14" fill="#37474f" opacity="0.13"/>
<rect x="200" y="1581" width="267" height="128" rx="14" fill="url(#g-loop)" stroke="#546e7a" stroke-width="2.0"/>
<circle cx="333.5" cy="1581" r="24" fill="#ffffff" stroke="#546e7a" stroke-width="1.8"/>
<circle cx="333.5" cy="1581" r="27.5" fill="none" stroke="#546e7a" stroke-width="1" opacity="0.35"/>
<g transform="translate(320.0,1567.5) scale(1.1250)">
  <path d="M3 12a9 9 0 0 1 9-9 9.75 9.75 0 0 1 6.74 2.74L21 8" />
  <path d="M21 3v5h-5" />
  <path d="M21 12a9 9 0 0 1-9 9 9.75 9.75 0 0 1-6.74-2.74L3 16" />
  <path d="M8 16H3v5" />
</g>
<text x="333.5" y="1625" font-size="15" class="lbl" fill="#37474f" text-anchor="middle"><tspan x="333.5" dy="0">G2PO 目标: 逐样本裁剪代</tspan><tspan x="333.5" dy="20">理 + KL 惩罚</tspan></text>
<text x="333.5" y="1655" font-size="12" fill="#5f6b7a" text-anchor="middle">w=0 时退化为 GRPO; 优</text>
<rect x="205.5" y="1808.5" width="261" height="128" rx="14" fill="#37474f" opacity="0.13"/>
<rect x="203" y="1805" width="261" height="128" rx="14" fill="url(#g-loop)" stroke="#546e7a" stroke-width="2.0"/>
<circle cx="333.5" cy="1805" r="24" fill="#ffffff" stroke="#546e7a" stroke-width="1.8"/>
<circle cx="333.5" cy="1805" r="27.5" fill="none" stroke="#546e7a" stroke-width="1" opacity="0.35"/>
<g transform="translate(320.0,1791.5) scale(1.1250)">
  <path d="M3 12a9 9 0 0 1 9-9 9.75 9.75 0 0 1 6.74 2.74L21 8" />
  <path d="M21 3v5h-5" />
  <path d="M21 12a9 9 0 0 1-9 9 9.75 9.75 0 0 1-6.74-2.74L3 16" />
  <path d="M8 16H3v5" />
</g>
<text x="333.5" y="1849" font-size="15" class="lbl" fill="#37474f" text-anchor="middle"><tspan x="333.5" dy="0">1.5B ALFWorld 95.0 vs</tspan><tspan x="333.5" dy="20"> GRPO 72.8 / GiGPO 86</tspan></text>
<text x="333.5" y="1879" font-size="12" fill="#5f6b7a" text-anchor="middle">.7</text>
<g transform="translate(333.8,222.0)"><rect x="-41.3" y="-11" width="82.6" height="22" rx="11" fill="#ffffff" stroke="#1565c0" stroke-width="1.2"/><text y="4" font-size="12" fill="#1565c0" font-weight="600" text-anchor="middle">&quot;rollout&quot;</text></g>
<g transform="translate(410.2,637.0)"><rect x="-106.7" y="-11" width="213.4" height="22" rx="11" fill="#ffffff" stroke="#263238" stroke-width="1.2"/><text y="4" font-size="12" fill="#263238" font-weight="600" text-anchor="middle">&quot;收集全部中间 observation, 完</text></g>
<g transform="translate(360.2,2824.5)"><rect x="-55.1" y="-11" width="110.2" height="22" rx="11" fill="#ffffff" stroke="#1565c0" stroke-width="1.2"/><text y="4" font-size="12" fill="#1565c0" font-weight="600" text-anchor="middle">&quot;逐步策略更新&quot;</text></g>
<text x="40" y="2063.5" font-size="12" fill="#78909c">图例</text>
<g><rect x="86" y="2049" width="93.43" height="22" rx="11" fill="url(#g-loop)" stroke="#546e7a" stroke-width="1.3"/><circle cx="99" cy="2060" r="4.2" fill="#546e7a"/><text x="110" y="2064" font-size="11.5" fill="#37474f">循环/反馈</text></g>
<text x="40" y="2103" font-size="11.5" fill="#78909c">线型</text>
<g><path d="M 80 2099 h 44" stroke="#1565c0" stroke-width="2.8" stroke-dasharray="12 7" marker-end="url(#arr-fb)"/><text x="132" y="2103" font-size="11.5" fill="#1565c0">闭环反馈</text></g>
<g><path d="M 212.76 2099 h 44" stroke="#263238" stroke-width="4.4" marker-end="url(#arr-thick)"/><text x="264.76" y="2103" font-size="11.5" fill="#263238">主数据流</text></g>
</svg>