<svg xmlns="http://www.w3.org/2000/svg" width="1712" height="1602" viewBox="0 0 1712 1602" font-family="'PingFang SC','Hiragino Sans GB','Microsoft YaHei','Segoe UI',sans-serif">
<style>text{font-family:'PingFang SC','Hiragino Sans GB','Microsoft YaHei','Segoe UI',sans-serif;} .lbl{font-weight:700;}</style>
<defs>
<linearGradient id="g-data" x1="0" y1="0" x2="0" y2="1"><stop offset="0" stop-color="#f1f9f1"/><stop offset="1" stop-color="#e2f0e2"/></linearGradient>
<linearGradient id="g-frozen" x1="0" y1="0" x2="0" y2="1"><stop offset="0" stop-color="#f0f7fe"/><stop offset="1" stop-color="#dcecfb"/></linearGradient>
<linearGradient id="g-train" x1="0" y1="0" x2="0" y2="1"><stop offset="0" stop-color="#fff6e8"/><stop offset="1" stop-color="#ffedd4"/></linearGradient>
<linearGradient id="g-loss" x1="0" y1="0" x2="0" y2="1"><stop offset="0" stop-color="#fdf0f1"/><stop offset="1" stop-color="#f9e0e2"/></linearGradient>
<linearGradient id="g-act" x1="0" y1="0" x2="0" y2="1"><stop offset="0" stop-color="#f8f1fb"/><stop offset="1" stop-color="#f0e4f7"/></linearGradient>
<linearGradient id="g-loop" x1="0" y1="0" x2="0" y2="1"><stop offset="0" stop-color="#f2f5f7"/><stop offset="1" stop-color="#e6ebee"/></linearGradient>
<linearGradient id="g-env" x1="0" y1="0" x2="0" y2="1"><stop offset="0" stop-color="#eef8f6"/><stop offset="1" stop-color="#dcf0ec"/></linearGradient>
<linearGradient id="g-mem" x1="0" y1="0" x2="0" y2="1"><stop offset="0" stop-color="#fffef0"/><stop offset="1" stop-color="#fdf6d8"/></linearGradient>
<linearGradient id="g-reward" x1="0" y1="0" x2="0" y2="1"><stop offset="0" stop-color="#fdf2f7"/><stop offset="1" stop-color="#f9e2ed"/></linearGradient>
<linearGradient id="g-key" x1="0" y1="0" x2="0" y2="1"><stop offset="0" stop-color="#fffaf0"/><stop offset="1" stop-color="#fff1d6"/></linearGradient>
<linearGradient id="g-title" x1="0" y1="0" x2="1" y2="0"><stop offset="0" stop-color="#00695c"/><stop offset="1" stop-color="#1565c0"/></linearGradient>
<marker id="arr-main" viewBox="0 0 10 10" refX="9" refY="5" markerWidth="7.5" markerHeight="7.5" orient="auto-start-reverse"><path d="M0 0 L10 5 L0 10 z" fill="#607d8b"/></marker>
<marker id="arr-thick" viewBox="0 0 10 10" refX="9" refY="5" markerWidth="7.5" markerHeight="7.5" orient="auto-start-reverse"><path d="M0 0 L10 5 L0 10 z" fill="#37474f"/></marker>
<marker id="arr-thin" viewBox="0 0 10 10" refX="9" refY="5" markerWidth="7.5" markerHeight="7.5" orient="auto-start-reverse"><path d="M0 0 L10 5 L0 10 z" fill="#90a4ae"/></marker>
<marker id="arr-fb" viewBox="0 0 10 10" refX="9" refY="5" markerWidth="7.5" markerHeight="7.5" orient="auto-start-reverse"><path d="M0 0 L10 5 L0 10 z" fill="#1565c0"/></marker>
<marker id="arr-loss" viewBox="0 0 10 10" refX="9" refY="5" markerWidth="7.5" markerHeight="7.5" orient="auto-start-reverse"><path d="M0 0 L10 5 L0 10 z" fill="#c62828"/></marker>
</defs>
<rect width="1712" height="1602" fill="#ffffff"/>
<rect x="34" y="30" width="5" height="42" rx="2.5" fill="url(#g-title)"/>
<text x="52" y="52" font-size="25" font-weight="800" fill="#1a2733">robottt</text>
<text x="52" y="74" font-size="13.5" fill="#78909c">RoboTTT 将 Test-Time Training 引入 VLA 基础模型：在 GR00T N1.7 的 DiT 动作头的 attention 层后插入 16 个 TTT</text>
<text x="1678" y="1584" font-size="11.5" fill="#a0aab4" text-anchor="end">robottt · arXiv 2607.15275 · v3 auto</text>
<rect x="694" y="86" width="302" height="954" rx="18" fill="#fbfdff" stroke="#b7c6d6" stroke-width="1.4" stroke-dasharray="8 5"/>
<rect x="710" y="99" width="277.25" height="26" rx="13" fill="#eef3f8" stroke="#b7c6d6"/>
<text x="721" y="116" font-size="12.5" fill="#4a6579">跨时间 TTT 层 x 16 - 记忆存于参数空间</text>
<path d="M 243.0 176.5 C 480.7 176.5, 418.3 329.5, 656.0 329.5" fill="none" stroke="#37474f" stroke-width="3.2" marker-end="url(#arr-thick)" opacity="0.92"/>
<path d="M 771.0 376.0 C 771.0 436.9, 856.0 375.1, 856.0 436.0" fill="none" stroke="#37474f" stroke-width="3.2" marker-end="url(#arr-thick)" opacity="0.92"/>
<path d="M 444.0 176.0 C 704.4 176.0, 649.6 330.0, 910.0 330.0" fill="none" stroke="#37474f" stroke-width="3.2" marker-end="url(#arr-thick)" opacity="0.92"/>
<path d="M 983.0 376.0 C 983.0 518.8, 856.0 446.2, 856.0 589.0" fill="none" stroke="#37474f" stroke-width="3.2" marker-end="url(#arr-thick)" opacity="0.92"/>
<path d="M 856.0 529.0 C 856.0 575.0, 856.0 543.0, 856.0 589.0" fill="none" stroke="#37474f" stroke-width="3.2" marker-end="url(#arr-thick)" opacity="0.92"/>
<path d="M 580.5 222.0 C 580.5 491.8, 856.0 319.2, 856.0 589.0" fill="none" stroke="#37474f" stroke-width="3.2" marker-end="url(#arr-thick)" opacity="0.92"/>
<path d="M 856.0 682.0 C 856.0 728.0, 856.0 696.0, 856.0 742.0" fill="none" stroke="#37474f" stroke-width="3.2" marker-end="url(#arr-thick)" opacity="0.92"/>
<path d="M 856.0 834.0 C 856.0 880.0, 856.5 848.0, 856.5 894.0" fill="none" stroke="#37474f" stroke-width="3.2" marker-end="url(#arr-thick)" opacity="0.92"/>
<path d="M 856.5 1020.0 C 856.5 1066.0, 856.0 1034.0, 856.0 1080.0" fill="none" stroke="#37474f" stroke-width="3.2" marker-end="url(#arr-thick)" opacity="0.92"/>
<path d="M 856.0 1206.0 C 856.0 1252.0, 856.0 1220.0, 856.0 1266.0" fill="none" stroke="#37474f" stroke-width="3.2" marker-end="url(#arr-thick)" opacity="0.92"/>
<path d="M 856.0 1359.0 C 856.0 1405.0, 856.0 1373.0, 856.0 1419.0" fill="none" stroke="#37474f" stroke-width="3.2" marker-end="url(#arr-thick)" opacity="0.92"/>
<path d="M 1055.5 223.0 C 1055.5 588.4, 856.5 528.6, 856.5 894.0" fill="none" stroke="#1565c0" stroke-width="2.2" stroke-dasharray="7 5" marker-end="url(#arr-fb)" opacity="0.92"/>
<path d="M 1319.0 223.0 C 1319.0 855.5, 856.0 633.5, 856.0 1266.0" fill="none" stroke="#1565c0" stroke-width="2.2" stroke-dasharray="7 5" marker-end="url(#arr-fb)" opacity="0.92"/>
<rect x="17.5" y="133.5" width="228" height="93" rx="14" fill="#37474f" opacity="0.13"/>
<rect x="15" y="130" width="228" height="93" rx="14" fill="url(#g-loop)" stroke="#546e7a" stroke-width="1.6"/>
<circle cx="129.0" cy="130" r="24" fill="#ffffff" stroke="#546e7a" stroke-width="1.8"/>
<circle cx="129.0" cy="130" r="27.5" fill="none" stroke="#546e7a" stroke-width="1" opacity="0.35"/>
<g transform="translate(115.5,116.5) scale(0.1055)"><path d="M176,80v96H80V80Z" opacity="0.2"/><path d="M224,40V80a8,8,0,0,1-16,0V48H176a8,8,0,0,1,0-16h40A8,8,0,0,1,224,40ZM80,208H48V176a8,8,0,0,0-16,0v40a8,8,0,0,0,8,8H80a8,8,0,0,0,0-16Zm136-40a8,8,0,0,0-8,8v32H176a8,8,0,0,0,0,16h40a8,8,0,0,0,8-8V176A8,8,0,0,0,216,168ZM40,88a8,8,0,0,0,8-8V48H80a8,8,0,0,0,0-16H40a8,8,0,0,0-8,8V80A8,8,0,0,0,40,88ZM80,72h96a8,8,0,0,1,8,8v96a8,8,0,0,1-8,8H80a8,8,0,0,1-8-8V80A8,8,0,0,1,80,72Zm8,96h80V88H88Z"/></g>
<text x="129.0" y="174" font-size="15" class="lbl" fill="#37474f" text-anchor="middle"><tspan x="129.0" dy="0">观测 o_t 3 路 Real</tspan><tspan x="129.0" dy="20">Sense</tspan></text>
<rect x="658.5" y="286.5" width="230" height="93" rx="14" fill="#37474f" opacity="0.13"/>
<rect x="656" y="283" width="230" height="93" rx="14" fill="url(#g-loop)" stroke="#546e7a" stroke-width="1.6"/>
<circle cx="771.0" cy="283" r="24" fill="#ffffff" stroke="#546e7a" stroke-width="1.8"/>
<circle cx="771.0" cy="283" r="27.5" fill="none" stroke="#546e7a" stroke-width="1" opacity="0.35"/>
<g transform="translate(757.5,269.5) scale(0.1055)"><path d="M240,124a48,48,0,0,1-32,45.27h0V176a40,40,0,0,1-80,0,40,40,0,0,1-80,0v-6.73h0a48,48,0,0,1,0-90.54V72a40,40,0,0,1,80,0,40,40,0,0,1,80,0v6.73A48,48,0,0,1,240,124Z" opacity="0.2"/><path d="M248,124a56.11,56.11,0,0,0-32-50.61V72a48,48,0,0,0-88-26.49A48,48,0,0,0,40,72v1.39a56,56,0,0,0,0,101.2V176a48,48,0,0,0,88,26.49A48,48,0,0,0,216,176v-1.41A56.09,56.09,0,0,0,248,124ZM88,208a32,32,0,0,1-31.81-28.56A55.87,55.87,0,0,0,64,180h8a8,8,0,0,0,0-16H64A40,40,0,0,1,50.67,86.27,8,8,0,0,0,56,78.73V72a32,32,0,0,1,64,0v68.26A47.8,47.8,0,0,0,88,128a8,8,0,0,0,0,16,32,32,0,0,1,0,64Zm104-44h-8a8,8,0,0,0,0,16h8a55.87,55.87,0,0,0,7.81-.56A32,32,0,1,1,168,144a8,8,0,0,0,0-16,47.8,47.8,0,0,0-32,12.26V72a32,32,0,0,1,64,0v6.73a8,8,0,0,0,5.33,7.54A40,40,0,0,1,192,164Zm16-52a8,8,0,0,1-8,8h-4a36,36,0,0,1-36-36V80a8,8,0,0,1,16,0v4a20,20,0,0,0,20,20h4A8,8,0,0,1,208,112ZM60,120H56a8,8,0,0,1,0-16h4A20,20,0,0,0,80,84V80a8,8,0,0,1,16,0v4A36,36,0,0,1,60,120Z"/></g>
<text x="771.0" y="327" font-size="15" class="lbl" fill="#37474f" text-anchor="middle"><tspan x="771.0" dy="0">VLM 骨干 GR00T N1.</tspan><tspan x="771.0" dy="20">7&lt;br/</tspan></text>
<rect x="742.5" y="439.5" width="232" height="93" rx="14" fill="#37474f" opacity="0.13"/>
<rect x="740" y="436" width="232" height="93" rx="14" fill="url(#g-loop)" stroke="#546e7a" stroke-width="1.6"/>
<circle cx="856.0" cy="436" r="24" fill="#ffffff" stroke="#546e7a" stroke-width="1.8"/>
<circle cx="856.0" cy="436" r="27.5" fill="none" stroke="#546e7a" stroke-width="1" opacity="0.35"/>
<g transform="translate(842.5,422.5) scale(1.1250)">
  <path d="M3 12a9 9 0 0 1 9-9 9.75 9.75 0 0 1 6.74 2.74L21 8" />
  <path d="M21 3v5h-5" />
  <path d="M21 12a9 9 0 0 1-9 9 9.75 9.75 0 0 1-6.74-2.74L3 16" />
  <path d="M8 16H3v5" />
</g>
<text x="856.0" y="480" font-size="15" class="lbl" fill="#37474f" text-anchor="middle"><tspan x="856.0" dy="0">16 个 register tok</tspan><tspan x="856.0" dy="20">en&lt;br/</tspan></text>
<rect x="279.5" y="133.5" width="167" height="92" rx="14" fill="#37474f" opacity="0.13"/>
<rect x="277" y="130" width="167" height="92" rx="14" fill="url(#g-loop)" stroke="#546e7a" stroke-width="1.6"/>
<circle cx="360.5" cy="130" r="24" fill="#ffffff" stroke="#546e7a" stroke-width="1.8"/>
<circle cx="360.5" cy="130" r="27.5" fill="none" stroke="#546e7a" stroke-width="1" opacity="0.35"/>
<g transform="translate(347.0,116.5) scale(0.1055)"><path d="M176,80v96H80V80Z" opacity="0.2"/><path d="M224,40V80a8,8,0,0,1-16,0V48H176a8,8,0,0,1,0-16h40A8,8,0,0,1,224,40ZM80,208H48V176a8,8,0,0,0-16,0v40a8,8,0,0,0,8,8H80a8,8,0,0,0,0-16Zm136-40a8,8,0,0,0-8,8v32H176a8,8,0,0,0,0,16h40a8,8,0,0,0,8-8V176A8,8,0,0,0,216,168ZM40,88a8,8,0,0,0,8-8V48H80a8,8,0,0,0,0-16H40a8,8,0,0,0-8,8V80A8,8,0,0,0,40,88ZM80,72h96a8,8,0,0,1,8,8v96a8,8,0,0,1-8,8H80a8,8,0,0,1-8-8V80A8,8,0,0,1,80,72Zm8,96h80V88H88Z"/></g>
<text x="360.5" y="181" font-size="16" class="lbl" fill="#37474f" text-anchor="middle">本体状态 q_t</text>
<rect x="912.5" y="287.5" width="146" height="92" rx="14" fill="#37474f" opacity="0.13"/>
<rect x="910" y="284" width="146" height="92" rx="14" fill="url(#g-loop)" stroke="#546e7a" stroke-width="1.6"/>
<circle cx="983.0" cy="284" r="24" fill="#ffffff" stroke="#546e7a" stroke-width="1.8"/>
<circle cx="983.0" cy="284" r="27.5" fill="none" stroke="#546e7a" stroke-width="1" opacity="0.35"/>
<g transform="translate(969.5,270.5) scale(0.1055)"><path d="M176,80v96H80V80Z" opacity="0.2"/><path d="M224,40V80a8,8,0,0,1-16,0V48H176a8,8,0,0,1,0-16h40A8,8,0,0,1,224,40ZM80,208H48V176a8,8,0,0,0-16,0v40a8,8,0,0,0,8,8H80a8,8,0,0,0,0-16Zm136-40a8,8,0,0,0-8,8v32H176a8,8,0,0,0,0,16h40a8,8,0,0,0,8-8V176A8,8,0,0,0,216,168ZM40,88a8,8,0,0,0,8-8V48H80a8,8,0,0,0,0-16H40a8,8,0,0,0-8,8V80A8,8,0,0,0,40,88ZM80,72h96a8,8,0,0,1,8,8v96a8,8,0,0,1-8,8H80a8,8,0,0,1-8-8V80A8,8,0,0,1,80,72Zm8,96h80V88H88Z"/></g>
<text x="983.0" y="335" font-size="16" class="lbl" fill="#37474f" text-anchor="middle">状态编码器</text>
<rect x="479.5" y="133.5" width="207" height="92" rx="14" fill="#37474f" opacity="0.13"/>
<rect x="477" y="130" width="207" height="92" rx="14" fill="url(#g-loop)" stroke="#546e7a" stroke-width="1.6"/>
<circle cx="580.5" cy="130" r="24" fill="#ffffff" stroke="#546e7a" stroke-width="1.8"/>
<circle cx="580.5" cy="130" r="27.5" fill="none" stroke="#546e7a" stroke-width="1" opacity="0.35"/>
<g transform="translate(567.0,116.5) scale(1.1250)">
  <path d="M4 14a1 1 0 0 1-.78-1.63l9.9-10.2a.5.5 0 0 1 .86.46l-1.92 6.02A1 1 0 0 0 13 10h7a1 1 0 0 1 .78 1.63l-9.9 10.2a.5.5 0 0 1-.86-.46l1.92-6.02A1 1 0 0 0 11 14z" />
</g>
<text x="580.5" y="181" font-size="16" class="lbl" fill="#37474f" text-anchor="middle">加噪动作 A_t^tau</text>
<rect x="744.5" y="592.5" width="228" height="93" rx="14" fill="#37474f" opacity="0.13"/>
<rect x="742" y="589" width="228" height="93" rx="14" fill="url(#g-loop)" stroke="#546e7a" stroke-width="1.6"/>
<circle cx="856.0" cy="589" r="24" fill="#ffffff" stroke="#546e7a" stroke-width="1.8"/>
<circle cx="856.0" cy="589" r="27.5" fill="none" stroke="#546e7a" stroke-width="1" opacity="0.35"/>
<g transform="translate(842.5,575.5) scale(1.1250)">
  <path d="M3 12a9 9 0 0 1 9-9 9.75 9.75 0 0 1 6.74 2.74L21 8" />
  <path d="M21 3v5h-5" />
  <path d="M21 12a9 9 0 0 1-9 9 9.75 9.75 0 0 1-6.74-2.74L3 16" />
  <path d="M8 16H3v5" />
</g>
<text x="856.0" y="633" font-size="15" class="lbl" fill="#37474f" text-anchor="middle"><tspan x="856.0" dy="0">单步内 self / cros</tspan><tspan x="856.0" dy="20">s-attention&lt;br/</tspan></text>
<rect x="765.5" y="745.5" width="186" height="92" rx="14" fill="#37474f" opacity="0.13"/>
<rect x="763" y="742" width="186" height="92" rx="14" fill="url(#g-loop)" stroke="#546e7a" stroke-width="1.6"/>
<circle cx="856.0" cy="742" r="24" fill="#ffffff" stroke="#546e7a" stroke-width="1.8"/>
<circle cx="856.0" cy="742" r="27.5" fill="none" stroke="#546e7a" stroke-width="1" opacity="0.35"/>
<g transform="translate(842.5,728.5) scale(1.1250)">
  <path d="M3 12a9 9 0 0 1 9-9 9.75 9.75 0 0 1 6.74 2.74L21 8" />
  <path d="M21 3v5h-5" />
  <path d="M21 12a9 9 0 0 1-9 9 9.75 9.75 0 0 1-6.74-2.74L3 16" />
  <path d="M8 16H3v5" />
</g>
<text x="856.0" y="793" font-size="16" class="lbl" fill="#37474f" text-anchor="middle">沿时间展平&lt;br/</text>
<rect x="742.5" y="897.5" width="233" height="126" rx="14" fill="#37474f" opacity="0.13"/>
<rect x="740" y="894" width="233" height="126" rx="14" fill="url(#g-loop)" stroke="#546e7a" stroke-width="1.6"/>
<circle cx="856.5" cy="894" r="24" fill="#ffffff" stroke="#546e7a" stroke-width="1.8"/>
<circle cx="856.5" cy="894" r="27.5" fill="none" stroke="#546e7a" stroke-width="1" opacity="0.35"/>
<g transform="translate(843.0,880.5) scale(1.1250)">
  <path d="M3 12a9 9 0 0 1 9-9 9.75 9.75 0 0 1 6.74 2.74L21 8" />
  <path d="M21 3v5h-5" />
  <path d="M21 12a9 9 0 0 1-9 9 9.75 9.75 0 0 1-6.74-2.74L3 16" />
  <path d="M8 16H3v5" />
</g>
<text x="856.5" y="938" font-size="15" class="lbl" fill="#37474f" text-anchor="middle"><tspan x="856.5" dy="0">TTT 内循环梯度写入</tspan><tspan x="856.5" dy="20">W_t = W_(t-1) - et</tspan></text>
<text x="856.5" y="968" font-size="12" fill="#5f6b7a" text-anchor="middle">a * grad L_FW</text>
<rect x="720.5" y="133.5" width="187" height="92" rx="14" fill="#37474f" opacity="0.13"/>
<rect x="718" y="130" width="187" height="92" rx="14" fill="url(#g-loop)" stroke="#546e7a" stroke-width="1.6"/>
<circle cx="811.5" cy="130" r="24" fill="#ffffff" stroke="#546e7a" stroke-width="1.8"/>
<circle cx="811.5" cy="130" r="27.5" fill="none" stroke="#546e7a" stroke-width="1" opacity="0.35"/>
<g transform="translate(798.0,116.5) scale(1.1250)">
  <path d="M3 12a9 9 0 0 1 9-9 9.75 9.75 0 0 1 6.74 2.74L21 8" />
  <path d="M21 3v5h-5" />
  <path d="M21 12a9 9 0 0 1-9 9 9.75 9.75 0 0 1-6.74-2.74L3 16" />
  <path d="M8 16H3v5" />
</g>
<text x="811.5" y="181" font-size="16" class="lbl" fill="#37474f" text-anchor="middle">快速权重 W&lt;br/</text>
<rect x="748.5" y="1083.5" width="220" height="126" rx="14" fill="#37474f" opacity="0.13"/>
<rect x="746" y="1080" width="220" height="126" rx="14" fill="url(#g-loop)" stroke="#546e7a" stroke-width="1.6"/>
<circle cx="856.0" cy="1080" r="24" fill="#ffffff" stroke="#546e7a" stroke-width="1.8"/>
<circle cx="856.0" cy="1080" r="27.5" fill="none" stroke="#546e7a" stroke-width="1" opacity="0.35"/>
<g transform="translate(842.5,1066.5) scale(1.1250)">
  <path d="M3 12a9 9 0 0 1 9-9 9.75 9.75 0 0 1 6.74 2.74L21 8" />
  <path d="M21 3v5h-5" />
  <path d="M21 12a9 9 0 0 1-9 9 9.75 9.75 0 0 1-6.74-2.74L3 16" />
  <path d="M8 16H3v5" />
</g>
<text x="856.0" y="1124" font-size="15" class="lbl" fill="#37474f" text-anchor="middle"><tspan x="856.0" dy="0">tanh(alpha) 门控</tspan><tspan x="856.0" dy="20">alpha 初始 0.001 </tspan></text>
<text x="856.0" y="1154" font-size="12" fill="#5f6b7a" text-anchor="middle">保护预训练</text>
<rect x="744.5" y="1269.5" width="228" height="93" rx="14" fill="#37474f" opacity="0.13"/>
<rect x="742" y="1266" width="228" height="93" rx="14" fill="url(#g-loop)" stroke="#546e7a" stroke-width="1.6"/>
<circle cx="856.0" cy="1266" r="24" fill="#ffffff" stroke="#546e7a" stroke-width="1.8"/>
<circle cx="856.0" cy="1266" r="27.5" fill="none" stroke="#546e7a" stroke-width="1" opacity="0.35"/>
<g transform="translate(842.5,1252.5) scale(1.1250)">
  <path d="M4 14a1 1 0 0 1-.78-1.63l9.9-10.2a.5.5 0 0 1 .86.46l-1.92 6.02A1 1 0 0 0 13 10h7a1 1 0 0 1 .78 1.63l-9.9 10.2a.5.5 0 0 1-.86-.46l1.92-6.02A1 1 0 0 0 11 14z" />
</g>
<text x="856.0" y="1310" font-size="15" class="lbl" fill="#37474f" text-anchor="middle"><tspan x="856.0" dy="0">DiT 解码器 flow-ma</tspan><tspan x="856.0" dy="20">tching</tspan></text>
<rect x="743.5" y="1422.5" width="230" height="93" rx="14" fill="#37474f" opacity="0.13"/>
<rect x="741" y="1419" width="230" height="93" rx="14" fill="url(#g-loop)" stroke="#546e7a" stroke-width="1.6"/>
<circle cx="856.0" cy="1419" r="24" fill="#ffffff" stroke="#546e7a" stroke-width="1.8"/>
<circle cx="856.0" cy="1419" r="27.5" fill="none" stroke="#546e7a" stroke-width="1" opacity="0.35"/>
<g transform="translate(842.5,1405.5) scale(1.1250)">
  <path d="M12.83 2.18a2 2 0 0 0-1.66 0L2.6 6.08a1 1 0 0 0 0 1.83l8.58 3.91a2 2 0 0 0 1.66 0l8.58-3.9a1 1 0 0 0 0-1.83z" />
  <path d="M2 12a1 1 0 0 0 .58.91l8.6 3.91a2 2 0 0 0 1.65 0l8.58-3.9A1 1 0 0 0 22 12" />
  <path d="M2 17a1 1 0 0 0 .58.91l8.6 3.91a2 2 0 0 0 1.65 0l8.58-3.9A1 1 0 0 0 22 17" />
</g>
<text x="856.0" y="1463" font-size="15" class="lbl" fill="#37474f" text-anchor="middle"><tspan x="856.0" dy="0">动作 chunk H=16 30</tspan><tspan x="856.0" dy="20">Hz 恒定延迟</tspan></text>
<rect x="941.5" y="133.5" width="233" height="93" rx="14" fill="#37474f" opacity="0.13"/>
<rect x="939" y="130" width="233" height="93" rx="14" fill="url(#g-loop)" stroke="#546e7a" stroke-width="1.6"/>
<circle cx="1055.5" cy="130" r="24" fill="#ffffff" stroke="#546e7a" stroke-width="1.8"/>
<circle cx="1055.5" cy="130" r="27.5" fill="none" stroke="#546e7a" stroke-width="1" opacity="0.35"/>
<g transform="translate(1042.0,116.5) scale(0.1055)"><path d="M192,48V208H64l64-80L64,48Z" opacity="0.2"/><path d="M184,72V56H80.65l53.6,67a8,8,0,0,1,0,10l-53.6,67H184V184a8,8,0,0,1,16,0v24a8,8,0,0,1-8,8H64a8,8,0,0,1-6.25-13l60-75-60-75A8,8,0,0,1,64,40H192a8,8,0,0,1,8,8V72a8,8,0,0,1-16,0Z"/></g>
<text x="1055.5" y="174" font-size="15" class="lbl" fill="#37474f" text-anchor="middle"><tspan x="1055.5" dy="0">内循环 MSE 自监督 L</tspan><tspan x="1055.5" dy="20">_FW</tspan></text>
<rect x="1207.5" y="133.5" width="228" height="93" rx="14" fill="#37474f" opacity="0.13"/>
<rect x="1205" y="130" width="228" height="93" rx="14" fill="url(#g-loop)" stroke="#546e7a" stroke-width="1.6"/>
<circle cx="1319.0" cy="130" r="24" fill="#ffffff" stroke="#546e7a" stroke-width="1.8"/>
<circle cx="1319.0" cy="130" r="27.5" fill="none" stroke="#546e7a" stroke-width="1" opacity="0.35"/>
<g transform="translate(1305.5,116.5) scale(0.1055)"><path d="M192,48V208H64l64-80L64,48Z" opacity="0.2"/><path d="M184,72V56H80.65l53.6,67a8,8,0,0,1,0,10l-53.6,67H184V184a8,8,0,0,1,16,0v24a8,8,0,0,1-8,8H64a8,8,0,0,1-6.25-13l60-75-60-75A8,8,0,0,1,64,40H192a8,8,0,0,1,8,8V72a8,8,0,0,1-16,0Z"/></g>
<text x="1319.0" y="174" font-size="15" class="lbl" fill="#37474f" text-anchor="middle"><tspan x="1319.0" dy="0">外循环 flow-matchi</tspan><tspan x="1319.0" dy="20">ng 动作损失</tspan></text>
<rect x="1469.5" y="133.5" width="230" height="93" rx="14" fill="#37474f" opacity="0.13"/>
<rect x="1467" y="130" width="230" height="93" rx="14" fill="url(#g-loop)" stroke="#546e7a" stroke-width="1.6"/>
<circle cx="1582.0" cy="130" r="24" fill="#ffffff" stroke="#546e7a" stroke-width="1.8"/>
<circle cx="1582.0" cy="130" r="27.5" fill="none" stroke="#546e7a" stroke-width="1" opacity="0.35"/>
<g transform="translate(1568.5,116.5) scale(0.1055)"><path d="M216,80c0,26.51-39.4,48-88,48S40,106.51,40,80s39.4-48,88-48S216,53.49,216,80Z" opacity="0.2"/><path d="M128,24C74.17,24,32,48.6,32,80v96c0,31.4,42.17,56,96,56s96-24.6,96-56V80C224,48.6,181.83,24,128,24Zm80,104c0,9.62-7.88,19.43-21.61,26.92C170.93,163.35,150.19,168,128,168s-42.93-4.65-58.39-13.08C55.88,147.43,48,137.62,48,128V111.36c17.06,15,46.23,24.64,80,24.64s62.94-9.68,80-24.64ZM69.61,53.08C85.07,44.65,105.81,40,128,40s42.93,4.65,58.39,13.08C200.12,60.57,208,70.38,208,80s-7.88,19.43-21.61,26.92C170.93,115.35,150.19,120,128,120s-42.93-4.65-58.39-13.08C55.88,99.43,48,89.62,48,80S55.88,60.57,69.61,53.08ZM186.39,202.92C170.93,211.35,150.19,216,128,216s-42.93-4.65-58.39-13.08C55.88,195.43,48,185.62,48,176V159.36c17.06,15,46.23,24.64,80,24.64s62.94-9.68,80-24.64V176C208,185.62,200.12,195.43,186.39,202.92Z"/></g>
<text x="1582.0" y="174" font-size="15" class="lbl" fill="#37474f" text-anchor="middle"><tspan x="1582.0" dy="0">三种记忆写入模式&lt;br</tspan><tspan x="1582.0" dy="20">/</tspan></text>
<text x="40" y="1572.5" font-size="12" fill="#78909c">图例</text>
<g><rect x="86" y="1558" width="93.43" height="22" rx="11" fill="url(#g-loop)" stroke="#546e7a" stroke-width="1.3"/><circle cx="99" cy="1569" r="4.2" fill="#546e7a"/><text x="110" y="1573" font-size="11.5" fill="#37474f">循环/反馈</text></g>
</svg>